<svg xmlns="http://www.w3.org/2000/svg" xmlns:xlink="http://www.w3.org/1999/xlink" viewBox="0 0 228.174 167.197" height="208.996" width="285.218" xmlns:v="https://vecta.io/nano"><style><![CDATA[.k{fill:#fff}.l{font-family:OCRA}.m{fill:#9a916c}.n{fill:none}.o{fill:#2a2a29}.p{fill:#474747}.q{fill:#595959}.r{fill:#373737}.s{stroke:#9a916c}.t{stroke-width:.811}.u{opacity:.5}.v{font-size:3.75px}.w{opacity:.2}.x{font-size:3.341px}.y{fill:#8c8663}.z{fill:#b8af82}.AA{fill:#80795b}.AB{fill:#5e5b43}.AC{fill:#d1c690}.AD{fill:#f2f2f2}.AE{fill:#404040}.AF{fill:#b3b3b3}.AG{opacity:.1}.AH{fill:#e6e6e6}.AI{font-size:4.677px}.AJ{font-size:3.675px}.AK{font-size:4.176px}.AL{fill:#22b573}.AM{fill-opacity:.7}.AN{fill:#9d956c}.AO{opacity:.55}.AP{opacity:.03}.AQ{stroke-width:.864}.AR{stroke-linecap:round}.AS{stroke-miterlimit:10}.AT{fill-opacity:.383}]]></style><path d="M202.537 8l4.32 4.32v32.4l7.2 7.2v92.88l-7.2 7.2v4.36a2.84 2.84 0 0 1-2.834 2.837H22.492c-1.565 0-2.834-1.27-2.834-2.834V10.834C19.657 9.27 20.926 8 22.492 8h180.046m-.217 50.4c-.004 2.505 2.023 4.54 4.527 4.543a4.544 4.544 0 0 0 .017-9.087c-2.505-.004-4.54 2.022-4.544 4.527zm0 79.2c-.004 2.505 2.023 4.54 4.527 4.543a4.54 4.54 0 1 0 .017-9.086c-2.505-.006-4.54 2.02-4.544 4.527zm-144-122.4c-.004 2.504 2.023 4.54 4.528 4.543s4.54-2.022 4.543-4.527a4.54 4.54 0 0 0-4.529-4.558c-2.505-.003-4.54 2.024-4.542 4.53zm-3.6 136.8c-.003 2.504 2.024 4.537 4.53 4.54s4.54-2.023 4.542-4.528a4.54 4.54 0 0 0-4.529-4.556c-2.505-.004-4.538 2.02-4.542 4.525zm107.73 0c-.001.664.536 1.205 1.202 1.207s1.205-.537 1.207-1.203a1.21 1.21 0 0 0-1.2-1.213c-.663-.003-1.207.537-1.208 1.203zm7.2 0c-.002.664.537 1.205 1.2 1.207s1.207-.537 1.207-1.203a1.21 1.21 0 0 0-1.2-1.213c-.665-.003-1.207.537-1.207 1.203zm7.2 0c0 .664.537 1.205 1.203 1.207s1.205-.537 1.207-1.203a1.21 1.21 0 0 0-1.2-1.213 1.21 1.21 0 0 0-1.21 1.203zm7.2 0c-.002.664.536 1.205 1.2 1.207s1.206-.537 1.207-1.203a1.21 1.21 0 0 0-1.2-1.213c-.665-.003-1.205.537-1.207 1.203zm7.2 0c-.002.664.537 1.205 1.202 1.207s1.206-.537 1.208-1.203a1.21 1.21 0 0 0-1.203-1.213c-.666-.003-1.205.537-1.207 1.203zm7.2 0c-.001.664.536 1.205 1.202 1.207s1.205-.537 1.207-1.203a1.21 1.21 0 0 0-1.2-1.213c-.663-.003-1.207.537-1.208 1.203zm.22-79.2a1.35 1.35 0 0 0 1.345 1.35 1.35 1.35 0 0 0 1.352-1.344 1.35 1.35 0 0 0-1.348-1.352 1.35 1.35 0 0 0-1.35 1.344zm7.2 0a1.35 1.35 0 0 0 1.344 1.349 1.35 1.35 0 0 0 1.35-1.344 1.35 1.35 0 0 0-1.344-1.352 1.35 1.35 0 0 0-1.35 1.344zm-7.2 7.2a1.35 1.35 0 0 0 1.345 1.349 1.35 1.35 0 0 0 1.352-1.345 1.35 1.35 0 0 0-1.348-1.353 1.35 1.35 0 0 0-1.35 1.345zm7.2 0a1.35 1.35 0 0 0 1.344 1.349 1.35 1.35 0 0 0 1.35-1.345 1.35 1.35 0 0 0-1.344-1.353 1.35 1.35 0 0 0-1.35 1.345zm-7.2 7.2a1.35 1.35 0 0 0 1.345 1.35 1.35 1.35 0 0 0 1.352-1.346 1.35 1.35 0 0 0-1.348-1.352c-.744-.002-1.348.6-1.35 1.344zm7.2 0a1.35 1.35 0 0 0 1.344 1.35 1.35 1.35 0 0 0 1.35-1.346 1.35 1.35 0 0 0-1.344-1.352c-.744-.002-1.35.6-1.35 1.344zM77.352 24.56a1.35 1.35 0 0 0 1.344 1.349 1.35 1.35 0 0 0 1.35-1.345 1.35 1.35 0 0 0-1.344-1.353 1.35 1.35 0 0 0-1.349 1.345zm0 7.2c-.001.743.6 1.347 1.344 1.348a1.35 1.35 0 0 0 1.35-1.344 1.35 1.35 0 0 0-1.344-1.353 1.35 1.35 0 0 0-1.35 1.344zm-7.2-7.2a1.35 1.35 0 0 0 1.344 1.349 1.35 1.35 0 0 0 1.35-1.345 1.35 1.35 0 0 0-1.345-1.353c-.743-.001-1.347.6-1.348 1.345zm0 7.2c-.001.743.6 1.347 1.344 1.348a1.35 1.35 0 0 0 1.35-1.344 1.35 1.35 0 0 0-1.345-1.353c-.743-.001-1.347.6-1.348 1.344zm-7.2-7.2c0 .744.603 1.346 1.347 1.346s1.346-.604 1.346-1.346a1.35 1.35 0 0 0-1.346-1.347 1.35 1.35 0 0 0-1.347 1.347zm0 7.2c0 .743.603 1.346 1.347 1.346s1.346-.603 1.346-1.346a1.35 1.35 0 0 0-1.346-1.347 1.35 1.35 0 0 0-1.347 1.347zm73.58-16.56c-.001.665.536 1.206 1.202 1.207s1.205-.537 1.207-1.202a1.21 1.21 0 0 0-1.202-1.213c-.665-.003-1.206.537-1.207 1.202zm-7.2 0c-.002.665.537 1.206 1.202 1.207s1.206-.537 1.208-1.202c.002-.67-.536-1.212-1.2-1.214a1.21 1.21 0 0 0-1.21 1.2zm-7.2 0c-.003.665.535 1.207 1.2 1.208s1.207-.535 1.2-1.2c.002-.674-.535-1.215-1.2-1.217s-1.207.536-1.2 1.2zm-7.2 0c-.002.665.535 1.207 1.2 1.208s1.207-.535 1.2-1.2c.002-.674-.535-1.215-1.2-1.217s-1.207.536-1.2 1.2zm-7.2 0c-.002.665.536 1.207 1.202 1.208a1.21 1.21 0 0 0 1.21-1.2c.002-.674-.537-1.215-1.2-1.217s-1.207.536-1.208 1.2zm-7.2 0c-.002.665.535 1.207 1.2 1.208s1.207-.535 1.208-1.2c.002-.674-.535-1.215-1.2-1.217s-1.207.536-1.208 1.2zm-7.2 0c-.002.665.536 1.207 1.2 1.208a1.21 1.21 0 0 0 1.21-1.2c.002-.674-.536-1.215-1.2-1.217a1.21 1.21 0 0 0-1.21 1.2zm-7.2 0c-.002.665.535 1.207 1.2 1.208s1.207-.535 1.208-1.2c.002-.674-.535-1.215-1.2-1.217s-1.207.536-1.208 1.2zm-7.2 0c-.002.665.536 1.207 1.2 1.208a1.21 1.21 0 0 0 1.21-1.2c.002-.674-.536-1.215-1.2-1.217s-1.206.536-1.208 1.2zm-7.2 0c-.002.665.535 1.207 1.2 1.208s1.207-.535 1.2-1.2c.002-.674-.536-1.215-1.2-1.217a1.21 1.21 0 0 0-1.21 1.2zm126.72 0c-.001.665.536 1.206 1.202 1.207s1.205-.537 1.207-1.202c.002-.67-.537-1.2-1.2-1.213s-1.207.537-1.208 1.202zm-7.2 0c-.002.665.537 1.206 1.202 1.207s1.206-.537 1.208-1.202a1.21 1.21 0 0 0-1.203-1.213c-.666-.003-1.205.537-1.207 1.202zm-7.2 0c-.002.665.536 1.206 1.2 1.207s1.206-.537 1.207-1.202c.002-.67-.535-1.2-1.2-1.213s-1.205.537-1.207 1.202zm-7.2 0c0 .665.537 1.206 1.203 1.207s1.205-.537 1.207-1.202c.002-.67-.537-1.2-1.2-1.213a1.21 1.21 0 0 0-1.21 1.202zm-7.2 0c-.002.665.537 1.206 1.2 1.207s1.207-.537 1.207-1.202c.002-.67-.535-1.2-1.2-1.213s-1.207.537-1.207 1.202zm-7.2 0c-.001.665.536 1.206 1.202 1.207s1.205-.537 1.207-1.202c.002-.67-.537-1.2-1.2-1.213s-1.207.537-1.208 1.202zm-7.2 0c-.002.665.537 1.206 1.202 1.207s1.206-.537 1.208-1.202a1.21 1.21 0 0 0-1.203-1.213c-.666-.003-1.205.537-1.207 1.202zm-7.2 0c-.002.665.536 1.206 1.2 1.207s1.206-.537 1.207-1.202c.002-.67-.535-1.2-1.2-1.213s-1.205.537-1.207 1.202zm-43.2 136.8c-.002.664.535 1.205 1.2 1.207a1.2 1.2 0 0 0 1.208-1.199c.002-.674-.535-1.215-1.2-1.217s-1.207.535-1.2 1.2zm-7.2 0c-.002.664.535 1.205 1.2 1.207a1.2 1.2 0 0 0 1.208-1.199c.002-.674-.535-1.215-1.2-1.217s-1.207.535-1.2 1.2zm14.4 0c-.002.664.535 1.205 1.2 1.207s1.206-.535 1.208-1.2c.003-.674-.535-1.215-1.2-1.217s-1.207.535-1.2 1.2zm7.2 0c-.002.664.535 1.205 1.2 1.207s1.206-.535 1.2-1.2c.002-.674-.536-1.215-1.2-1.217s-1.207.535-1.2 1.2zm7.2 0c-.003.664.534 1.205 1.2 1.207s1.207-.535 1.2-1.2c.002-.674-.535-1.215-1.2-1.217s-1.206.535-1.208 1.2zm7.2 0c-.002.664.537 1.205 1.2 1.207s1.207-.537 1.207-1.203a1.21 1.21 0 0 0-1.2-1.213c-.665-.003-1.207.537-1.207 1.203zm7.2 0c0 .664.537 1.205 1.203 1.207s1.205-.537 1.207-1.203a1.21 1.21 0 0 0-1.2-1.213 1.21 1.21 0 0 0-1.21 1.203zm7.2 0c-.002.664.536 1.205 1.2 1.207s1.206-.537 1.207-1.203a1.21 1.21 0 0 0-1.2-1.213c-.665-.003-1.205.537-1.207 1.203z" fill="#0f7391"/><circle r=".72" cy="20.96" cx="82.297" stroke="#fff" stroke-width=".72" class="n"/><text y="103.315" x="-25.387" transform="rotate(270)" class="k l v">13</text><text y="110.516" x="-25.387" transform="rotate(270)" class="k l v">12</text><text y="117.715" x="-25.387" transform="rotate(270)" class="k l v">11</text><text y="124.914" x="-25.387" transform="rotate(270)" class="k l v">10</text><text y="132.115" x="-22.68" transform="rotate(270)" class="k l v">9</text><text y="139.314" x="-22.68" transform="rotate(270)" class="k l v">8</text><text y="150.834" x="-22.68" transform="rotate(270)" class="k l v">7</text><text y="158.035" x="-22.68" transform="rotate(270)" class="k l v">6</text><text y="165.234" x="-22.68" transform="rotate(270)" class="k l v">5</text><text y="172.434" x="-22.68" transform="rotate(270)" class="k l v">4</text><text y="179.635" x="-22.68" transform="rotate(270)" class="k l v">3</text><text y="186.834" x="-22.68" transform="rotate(270)" class="k l v">2</text><text y="NaN" x="NaN" class="k l AI">L</text><text y="129.049" x="-146.998" transform="rotate(270)" class="k l x">5V</text><text y="164.904" x="-146.997" transform="rotate(270)" class="k l x">A0</text><text y="NaN" x="NaN" class="k l AJ">ANALOG IN</text><text y="88.639" x="-30.849" transform="rotate(270)" class="k l v">AREF</text><text y="NaN" x="NaN" class="k l AK">1</text><text y="96.167" x="-28.161" transform="rotate(270)" class="k l v">GND</text><text y="NaN" x="NaN" class="k l AI">TX</text><text y="NaN" x="NaN" class="k l AI">RX</text><text y="113.977" x="-146.6" transform="rotate(270)" class="k l x">RESET</text><text y="121.896" x="-146.959" transform="rotate(270)" class="k l x">3V3</text><text y="172.103" x="-146.998" transform="rotate(270)" class="k l x">A1</text><text y="179.307" x="-146.998" transform="rotate(270)" class="k l x">A2</text><text y="186.504" x="-146.997" transform="rotate(270)" class="k l x">A3</text><text y="193.705" x="-146.998" transform="rotate(270)" class="k l x">A4</text><text y="200.904" x="-146.997" transform="rotate(270)" class="k l x">A5</text><text y="150.65" x="-146.997" transform="rotate(270)" class="k l x">VIN</text><text y="136.246" x="-146.997" transform="rotate(270)" class="k l x">GND</text><text y="143.242" x="-146.961" transform="rotate(270)" class="k l x">GND</text><text y="NaN" x="NaN" class="k l AJ">DIGITAL (PWM=</text><text y="NaN" x="NaN" class="k l AJ">)</text><g transform="translate(-6.118)" class="k"><g transform="rotate(270 80.968 -50.287)"><use xlink:href="#A"/><use y="-7.423" xlink:href="#A"/></g><path d="M170.165 26.086c-.502.02-.756-.25-.756-.596 0-.2.064-.37.225-.706.12-.254.2-.44.2-.624s-.146-.266-.422-.27v-.3c.562-.025.756.265.756.576 0 .2-.06.38-.22.726-.115.234-.22.42-.22.6s.125.3.426.3zm14.4 0c-.5.02-.757-.25-.757-.596 0-.2.063-.37.226-.706.12-.254.2-.44.2-.624s-.146-.266-.42-.27v-.3c.56-.025.756.265.756.576 0 .2-.06.38-.22.726-.115.235-.222.42-.222.6s.125.3.427.3zm-21.24 0c-.502.02-.756-.25-.756-.596 0-.2.064-.37.225-.706.12-.254.2-.44.2-.624s-.146-.266-.422-.27v-.3c.56-.025.756.265.756.576 0 .2-.06.38-.22.726-.115.234-.22.42-.22.6s.125.3.426.3zm-26.28 0c-.5.02-.756-.25-.756-.596 0-.2.064-.37.225-.706.12-.254.2-.44.2-.624s-.146-.266-.42-.27v-.3c.56-.025.756.265.756.576 0 .2-.063.38-.22.726-.115.235-.223.42-.223.6s.125.3.43.3z"/><text y="nan" x="nan" font-size="6.121" class="l">Arduino</text><text y="nan" x="nan" font-size="2.226" class="l">TM</text><text transform="rotate(270 130.288 16.313)" class="l x">IOREF</text><text transform="rotate(270 146.345 -55.228)" class="l AK">ICSP</text><text y="nan" x="nan" class="l AK">ICSP2</text><text y="nan" x="nan" class="l AI">ON</text></g><path d="M69.1 53.833h14.172v14.173H69.1zm29.407 51.007h105.12v15.84H98.497z" fill="#333"/><circle r="1.61" cy="152" cx="163.657" class="n s t"/><use xlink:href="#B" x="-6.118" class="m"/><circle r="1.61" cy="152" cx="170.857" class="n s t"/><use xlink:href="#C" x="-6.118" class="m"/><circle r="1.61" cy="152" cx="178.057" class="n s t"/><use xlink:href="#D" x="-6.118" class="m"/><circle r="1.61" cy="152" cx="185.258" class="n s t"/><use xlink:href="#E" x="-6.118" class="m"/><circle r="1.61" cy="152" cx="192.457" class="n s t"/><use xlink:href="#F" x="-6.118" class="m"/><circle r="1.61" cy="152" cx="199.657" class="n s t"/><use x="29.882" xlink:href="#B" class="m"/><g class="n s"><g stroke-width=".85"><circle r="1.772" cy="72.8" cx="200.018"/><circle r="1.772" cy="72.8" cx="207.217"/><circle r="1.771" cy="80" cx="200.018"/><circle r="1.771" cy="80" cx="207.217"/><circle r="1.771" cy="87.2" cx="200.018"/><circle r="1.771" cy="87.2" cx="207.217"/><circle r="1.771" cy="24.56" cx="78.697"/><circle r="1.772" cy="31.76" cx="78.697"/><circle r="1.771" cy="24.56" cx="71.497"/><circle r="1.772" cy="31.76" cx="71.497"/><circle r="1.771" cy="24.56" cx="64.296"/><circle r="1.772" cy="31.76" cx="64.296"/></g><circle r="1.61" cy="15.2" cx="137.736" class="t"/></g><use xlink:href="#G" x="-6.118" class="m"/><circle r="1.61" cy="15.2" cx="130.537" class="n s t"/><use xlink:href="#H" x="-6.118" class="m"/><circle r="1.61" cy="15.2" cx="123.337" class="n s t"/><path d="M121.727 11.496h3.225v7.408h-3.225v-7.408m0 3.704c0 .9.725 1.6 1.6 1.6a1.61 1.61 0 1 0-1.609-1.61z" class="m"/><circle r="1.61" cy="15.2" cx="116.137" class="n s t"/><path d="M114.525 11.496h3.22v7.408h-3.22v-7.408m0 3.704a1.61 1.61 0 0 0 1.611 1.61c.9 0 1.605-.72 1.605-1.6a1.61 1.61 0 0 0-1.605-1.61 1.61 1.61 0 0 0-1.611 1.61z" class="m"/><circle r="1.61" cy="15.2" cx="108.937" class="n s t"/><path d="M107.326 11.496h3.22v7.408h-3.22v-7.408m0 3.704a1.61 1.61 0 0 0 1.609 1.61 1.6 1.6 0 0 0 1.607-1.6 1.61 1.61 0 0 0-1.607-1.61 1.61 1.61 0 0 0-1.609 1.61z" class="m"/><circle r="1.61" cy="15.2" cx="101.737" class="n s t"/><use xlink:href="#b" class="m"/><circle r="1.61" cy="15.2" cx="94.537" class="n s t"/><use xlink:href="#I" x="-6.118" class="m"/><circle r="1.61" cy="15.2" cx="87.337" class="n s t"/><use xlink:href="#b" x="-14.399" class="m"/><circle r="1.61" cy="15.2" cx="80.137" class="n s t"/><use x="-20.518" xlink:href="#I" class="m"/><circle r="1.61" cy="15.2" cx="72.936" class="n s t"/><path d="M71.326 11.496h3.22v7.408h-3.22v-7.408m0 3.704a1.611 1.611 0 1 0 3.221 0 1.611 1.611 0 1 0-3.221 0z" class="m"/><circle r="1.61" cy="15.2" cx="199.657" class="n s t"/><use x="55.802" xlink:href="#G" class="m"/><circle r="1.61" cy="15.2" cx="192.457" class="n s t"/><use x="55.802" xlink:href="#H" class="m"/><circle r="1.61" cy="15.2" cx="185.258" class="n s t"/><use xlink:href="#J" x="-6.118" class="m"/><circle r="1.61" cy="15.2" cx="178.057" class="n s t"/><path d="M176.445 11.496h3.222v7.408h-3.222v-7.408m0 3.704a1.61 1.61 0 0 0 1.611 1.61c.9 0 1.606-.72 1.606-1.6a1.61 1.61 0 0 0-1.606-1.6 1.61 1.61 0 0 0-1.611 1.61z" class="m"/><circle r="1.61" cy="15.2" cx="170.857" class="n s t"/><path d="M169.246 11.496h3.22v7.408h-3.22v-7.408m0 3.704a1.61 1.61 0 1 0 1.609-1.61 1.61 1.61 0 0 0-1.609 1.61z" class="m"/><circle r="1.61" cy="15.2" cx="163.657" class="n s t"/><use x="19.802" xlink:href="#G" class="m"/><circle r="1.61" cy="15.2" cx="156.457" class="n s t"/><use x="19.802" xlink:href="#H" class="m"/><circle r="1.61" cy="15.2" cx="149.258" class="n s t"/><use x="-42.118" xlink:href="#J" class="m"/><g class="n s t"><circle r="1.61" cy="152" cx="106.057"/><circle r="1.61" cy="152" cx="98.857"/></g><g transform="translate(-6.118)" class="m"><use xlink:href="#K"/><use x="-7.199" xlink:href="#K"/></g><circle r="1.61" cy="152" cx="113.258" class="n s t"/><use x="-78.118" xlink:href="#E" class="m"/><circle r="1.61" cy="152" cx="120.457" class="n s t"/><use x="-78.118" xlink:href="#F" class="m"/><circle r="1.61" cy="152" cx="127.657" class="n s t"/><use x="-42.118" xlink:href="#B" class="m"/><circle r="1.61" cy="152" cx="134.857" class="n s t"/><use x="-42.118" xlink:href="#C" class="m"/><circle r="1.61" cy="152" cx="142.057" class="n s t"/><use x="-42.118" xlink:href="#D" class="m"/><circle r="1.61" cy="152" cx="149.258" class="n s t"/><use x="-42.118" xlink:href="#E" class="m"/><path d="M94.48 37.16h106.9m-39.627 97.046h39.636" stroke="#fff" class="n AQ AR"/><text y="NaN" x="NaN" class="k l AJ">POWER</text><path d="M116.857 134.206h35.913" stroke="#fff" class="n AQ AR"/><text y="201.412" x="-22.68" transform="rotate(270)" class="k l v">0</text><text y="194.213" x="-22.68" transform="rotate(270)" class="k l v">1</text><text y="194.213" x="-35.436" transform="rotate(270)" class="k l v">TX0</text><text y="201.412" x="-35.436" transform="rotate(270)" class="k l v">RX0</text><path d="M193.795 26.007h-1.96c-.125 0-.236-.068-.297-.18a.33.33 0 0 1 .018-.347l.978-1.46c.125-.188.438-.188.563 0l.93 1.394a.35.35 0 0 1 .113.253.35.35 0 0 1-.346.338zm5.3-2.127h1.955c.125 0 .238.068.3.178s.053.244-.02.348l-.973 1.46c-.125.188-.438.188-.563 0l-.93-1.396c-.07-.063-.113-.15-.113-.252.004-.185.156-.337.343-.337zm-17.508 10.24c-.02-.55.273-.83.653-.83.23 0 .405.07.774.247.276.132.48.23.687.23.198 0 .3-.16.297-.46h.33c.027.615-.3.83-.63.83-.22 0-.418-.066-.797-.242-.258-.126-.46-.242-.66-.242s-.318.138-.33.467zm-54.04 10.948l2.28-2.478c2.966-2.656 6.307-3.64 10.13-2.03 3.618 1.524 5.575 5.294 4.788 9.14-.726 3.55-4.138 6.252-7.864 6.38-3.453.117-6.047-1.427-8.2-3.934-.33-.385-.646-.786-1.063-1.297l-.758.9c-2.313 2.913-5.187 4.567-9.047 4.32-3.785-.243-7.248-3.72-7.48-7.5-.3-4.792 3.354-8.726 8.432-8.77 3.362-.03 6 1.707 8.042 4.32l.748.95z" class="k"/><path d="M119.245 42.457c-3.496-.006-6.05 2.237-6.332 5.133-.25 2.57 1.8 5.137 4.597 5.746 2.766.6 4.977-.55 6.643-2.557 2.558-3.073 2.466-2.542.03-5.6-1.354-1.696-3.202-2.646-4.94-2.73zm17.323-.023c-.428.03-.74.02-1.04.08-2.965.6-4.824 2.568-6.22 5.082a.92.92 0 0 0-.004.757c1.262 2.183 2.838 4.053 5.348 4.84 2.433.763 4.563.132 6.24-1.735 1.504-1.675 1.846-3.656.852-5.72-1.055-2.183-2.933-3.146-5.174-3.304z" fill="#0f7391"/><g class="k"><path d="M121.746 48.583c0 .078-.063.142-.143.142h-5.168c-.078 0-.145-.064-.145-.142v-1.56c0-.078.063-.142.145-.142h5.168c.078 0 .143.064.143.142zm17.068-1.56c0-.078-.063-.142-.144-.142h-1.52c-.077 0-.144-.064-.144-.142v-1.52c0-.078-.063-.142-.142-.142H135.3c-.078 0-.143.064-.143.142v1.52c0 .078-.063.142-.143.142h-1.52c-.078 0-.145.064-.145.142v1.56c0 .078.063.142.145.142h1.52c.078 0 .143.064.143.142v1.52c0 .078.063.142.143.142h1.563c.076 0 .142-.064.142-.142v-1.52c0-.078.063-.142.144-.142h1.52c.078 0 .144-.064.144-.142z"/><circle r=".568" cy="40.522" cx="174.073"/><circle r=".568" cy="40.522" cx="172.656"/><circle r=".568" cy="40.522" cx="171.239"/><circle r=".568" cy="40.522" cx="169.822"/><circle r=".568" cy="40.522" cx="168.405"/><circle r=".568" cy="40.522" cx="166.988"/><circle r=".568" cy="40.522" cx="165.571"/><circle r=".568" cy="40.522" cx="164.154"/><circle r=".568" cy="40.522" cx="162.736"/><circle r=".568" cy="40.522" cx="161.32"/><circle r=".568" cy="40.522" cx="159.902"/><circle r=".568" cy="40.522" cx="158.486"/><circle r=".568" cy="40.522" cx="157.068"/><circle r=".568" cy="40.522" cx="155.652"/><circle r=".567" cy="55.404" cx="174.13"/><circle r=".567" cy="55.137" cx="175.478"/><circle r=".568" cy="54.628" cx="176.756"/><circle r=".567" cy="53.894" cx="177.918"/><circle r=".568" cy="52.959" cx="178.926"/><circle r=".567" cy="51.855" cx="179.746"/><circle r=".567" cy="50.62" cx="180.35"/><circle r=".567" cy="49.295" cx="180.717"/><circle r=".567" cy="47.925" cx="180.836"/><circle r=".567" cy="46.557" cx="180.702"/><circle r=".567" cy="45.236" cx="180.318"/><circle r=".567" cy="44.008" cx="179.702"/><circle r=".567" cy="42.914" cx="178.87"/><circle r=".568" cy="41.99" cx="177.852"/><circle r=".568" cy="41.269" cx="176.682"/><circle r=".568" cy="40.774" cx="175.398"/><circle r=".568" cy="40.522" cx="174.046"/><circle r=".568" cy="40.522" cx="172.671"/><circle r=".568" cy="55.309" cx="154.098"/><circle r=".568" cy="55.026" cx="152.768"/><circle r=".568" cy="54.506" cx="151.51"/><circle r=".568" cy="53.765" cx="150.369"/><circle r=".568" cy="52.828" cx="149.382"/><circle r=".568" cy="51.727" cx="148.582"/><circle r=".568" cy="50.499" cx="147.997"/><circle r=".568" cy="49.185" cx="147.645"/><circle r=".568" cy="47.829" cx="147.538"/><path d="M147.74 45.9a.57.57 0 0 1 .505.623.57.57 0 0 1-.624.507.57.57 0 0 1-.505-.627c.033-.3.313-.537.624-.503zm.5-1.284a.57.57 0 0 1 .383.705.57.57 0 0 1-.706.385.57.57 0 0 1-.382-.708.57.57 0 0 1 .705-.382z"/><circle r=".568" cy="43.959" cx="148.684"/><circle r=".568" cy="42.879" cx="149.512"/><circle r=".568" cy="41.969" cx="150.521"/><circle r=".568" cy="41.258" cx="151.684"/><circle r=".568" cy="40.77" cx="152.953"/><circle r=".568" cy="40.522" cx="154.291"/><circle r=".568" cy="40.522" cx="155.652"/><circle r=".568" cy="55.454" cx="174.073"/><circle r=".568" cy="55.454" cx="172.656"/><circle r=".568" cy="55.454" cx="171.239"/><circle r=".568" cy="55.454" cx="169.822"/><circle r=".568" cy="55.454" cx="168.405"/><circle r=".568" cy="55.454" cx="166.988"/><circle r=".568" cy="55.454" cx="165.571"/><circle r=".568" cy="55.454" cx="164.154"/><circle r=".568" cy="55.454" cx="162.736"/><circle r=".568" cy="55.454" cx="161.32"/><circle r=".568" cy="55.454" cx="159.902"/><circle r=".568" cy="55.454" cx="158.486"/><circle r=".568" cy="55.454" cx="157.068"/><circle r=".568" cy="55.454" cx="155.652"/><path d="M155.85 52.56c-.994 0-1.742-.206-2.244-.618-.485-.4-.8-.88-.936-1.434-.07-.28-.12-.58-.15-.9l-.045-1.025V43.35h.94v5.22c0 1.183.2 2.117.572 2.498.377.375.932.563 1.664.563.738 0 1.494-.188 1.87-.563.38-.38.572-1.314.572-2.498v-5.22h.96v5.236c0 1.088-.125 1.896-.377 2.424-.5 1.035-1.32 1.552-2.825 1.552zm12.086-.16h-.944l-4.742-7.433v7.446h-.797V43.35h.88l4.66 7.455V43.35h.944zm5.66-9.27a3.67 3.67 0 0 1 1.594.346c.488.23.906.555 1.256.975s.623.926.818 1.517.295 1.247.295 1.968-.1 1.376-.295 1.966-.468 1.1-.818 1.52a3.64 3.64 0 0 1-1.256.979 3.67 3.67 0 0 1-1.594.345c-.58 0-1.113-.115-1.602-.345s-.904-.557-1.258-.98-.63-.93-.823-1.52a6.3 6.3 0 0 1-.294-1.966c0-.72.1-1.377.294-1.968s.47-1.097.823-1.517a3.7 3.7 0 0 1 1.258-.975c.486-.23 1.022-.346 1.602-.346zm-.006 8.56c.4 0 .8-.085 1.135-.256a2.67 2.67 0 0 0 .896-.74c.25-.322.447-.716.588-1.18s.2-1 .2-1.58a5.48 5.48 0 0 0-.21-1.582 3.62 3.62 0 0 0-.585-1.18c-.25-.324-.545-.568-.888-.736a2.55 2.55 0 0 0-1.125-.252 2.59 2.59 0 0 0-1.141.252 2.54 2.54 0 0 0-.904.732c-.254.32-.45.713-.596 1.178s-.216.995-.216 1.586.07 1.117.214 1.58.336.856.588 1.18.55.57.896.74a2.55 2.55 0 0 0 1.138.257z"/></g><path d="M160.06 148.4h43.2v7.2h-43.2z" class="AE"/><use xlink:href="#L" x="-6.118"/><use xlink:href="#c" class="o"/><use xlink:href="#d" class="p"/><use xlink:href="#e" class="q"/><use xlink:href="#M" x="-6.118" class="r"/><use x="1.083" xlink:href="#L"/><path d="M168.442 149.584l1.026 1.025h2.78l1.025-1.025z" class="o"/><path d="M173.272 149.584l-1.025 1.03v2.78l1.025 1.023z" class="p"/><use xlink:href="#f" class="q"/><path d="M168.44 154.417l1.028-1.025v-2.783l-1.028-1.025z" class="r"/><use x="8.282" xlink:href="#L"/><use xlink:href="#N" x="-6.118" class="o"/><use xlink:href="#O" x="-6.118" class="p"/><path d="M180.475 154.417l-1.026-1.023h-2.783l-1.023 1.023z" class="q"/><use xlink:href="#P" x="-6.118" class="r"/><use x="15.483" xlink:href="#L"/><use x="1.084" xlink:href="#N" class="o"/><use x="1.083" xlink:href="#O" class="p"/><path d="M187.674 154.417l-1.026-1.023h-2.78l-1.023 1.023z" class="q"/><path d="M182.84 154.417l1.027-1.025v-2.783l-1.027-1.025z" class="r"/><use x="22.682" xlink:href="#L"/><path d="M190.042 149.584l1.023 1.025h2.784l1.025-1.025z" class="o"/><path d="M194.875 149.584l-1.025 1.03v2.78l1.025 1.023z" class="p"/><path d="M194.872 154.417l-1.023-1.023h-2.784l-1.023 1.023z" class="q"/><use x="8.282" xlink:href="#P" class="r"/><use x="29.882" xlink:href="#L"/><use xlink:href="#c" x="36" class="o"/><use xlink:href="#d" x="36" class="p"/><use xlink:href="#e" x="36" class="q"/><use x="29.882" xlink:href="#M" class="r"/><g transform="rotate(270 143.202 -53.158)"><path d="M20.748 12.86V1.654L19.236.143h-3.93l-1.5 1.5V12.86l1.5 1.5h3.93zm-7.182 0V1.654l-1.5-1.5h-3.93L6.6 1.654V12.86l1.514 1.5h3.932zm-7.176 0V1.654L4.877.143H.942l-1.507 1.5V12.86l1.507 1.5h3.935z" class="AE"/><path d="M1.9 4.848V2.55h2.3v2.298zm0 7.197V9.748h2.3v2.297zm7.2-7.197v-2.3h2.298v2.3zm0 7.198V9.75h2.298v2.297zm7.198-7.2V2.548h2.298v2.297z" fill="#8d8c8c"/><path d="M16.297 12.045V9.748h2.298v2.297z" fill="#8d8455"/><path d="M16.854 11.492v-1.185h1.183v1.185z" class="y"/><path d="M18.594 9.748l-.56.558v1.18l.56.56z" class="z"/><path d="M16.855 11.486h1.18l.56.56h-2.297z" class="AA"/><path d="M16.855 10.306v1.18l-.558.56V9.748z" class="AB"/><path d="M18.594 9.748l-.56.558h-1.18l-.558-.558z" class="m"/><path d="M16.856 4.3V3.105h1.183V4.3z" class="y"/><path d="M18.594 2.55l-.56.557v1.18l.56.558z" class="z"/><path d="M16.855 4.287h1.18l.56.558h-2.297z" class="AA"/><path d="M16.855 3.107v1.18l-.558.558V2.55z" class="AB"/><path d="M18.594 2.55l-.56.557h-1.18l-.558-.557z" class="m"/><path d="M9.656 11.5v-1.185h1.184V11.5z" class="y"/><path d="M11.396 9.748l-.557.558v1.18l.557.56z" class="z"/><path d="M9.655 11.486h1.184l.557.56H9.1z" class="AA"/><path d="M9.655 10.306v1.18l-.556.56V9.748z" class="AB"/><path d="M11.396 9.748l-.557.558H9.655L9.1 9.748z" class="m"/><path d="M9.655 4.288V3.103h1.184v1.185z" class="y"/><path d="M11.396 2.55l-.557.557v1.18l.557.558z" class="z"/><path d="M9.655 4.287h1.184l.557.558H9.1z" class="AA"/><path d="M9.655 3.107v1.18l-.556.558V2.55z" class="AB"/><path d="M11.396 2.55l-.557.557H9.655L9.1 2.55z" class="m"/><path d="M2.454 11.49v-1.184H3.64v1.184z" class="y"/><path d="M4.196 9.748l-.557.558v1.18l.557.56z" class="z"/><path d="M2.454 11.486H3.64l.557.56H1.9z" class="AA"/><path d="M2.454 10.306v1.18l-.555.56V9.748z" class="AB"/><path d="M4.196 9.748l-.557.558H2.454L1.9 9.748z" class="m"/><path d="M2.453 4.288V3.103H3.64v1.185z" class="y"/><path d="M4.196 2.55l-.557.557v1.18l.557.56z" class="z"/><path d="M2.454 4.287H3.64l.557.56H1.9z" class="AA"/><path d="M2.454 3.107v1.18l-.555.56V2.55z" class="AB"/><path d="M4.196 2.55l-.557.557H2.454L1.9 2.55z" class="m"/></g><g transform="rotate(180 41.383 17.589)"><path d="M21.925 12.62V1.413l-1.5-1.5h-3.93l-1.5 1.5V12.62l1.5 1.512h3.93zm-7.182 0V1.413l-1.5-1.5h-3.93L7.8 1.413V12.62l1.513 1.512h3.932zm-7.177 0V1.413L6.054-.098H2.12l-1.5 1.5V12.62l1.5 1.512h3.933z" class="AE"/><path d="M3.073 2.3h2.3v2.3h-2.3zm0 7.2h2.3v2.298h-2.3zm7.2-7.2h2.298v2.3h-2.298zm0 7.2h2.298v2.298h-2.298zm7.198-7.2h2.298v2.3h-2.3z" fill="#8d8c8c"/><path d="M17.47 9.5h2.298v2.298H17.47z" fill="#8d8455"/><path d="M18.028 10.07h1.183v1.184h-1.183z" class="y"/><path d="M19.77 9.5l-.56.56v1.18l.56.558z" class="z"/><path d="M18.028 11.25h1.18l.56.558h-2.3z" class="AA"/><path d="M18.028 10.07v1.18l-.558.558V9.5z" class="AB"/><path d="M19.77 9.5l-.56.56h-1.18l-.558-.56z" class="m"/><path d="M18.028 2.87h1.183v1.18h-1.183z" class="y"/><path d="M19.77 2.3l-.56.558v1.18l.56.558z" class="z"/><path d="M18.028 4.05h1.18l.56.558h-2.3z" class="AA"/><path d="M18.028 2.87v1.18l-.558.558V2.3z" class="AB"/><path d="M19.77 2.3l-.56.558h-1.18l-.558-.558z" class="m"/><path d="M10.83 10.07h1.184v1.184H10.83z" class="y"/><path d="M12.57 9.5l-.557.56v1.18l.557.558z" class="z"/><path d="M10.83 11.25h1.183l.557.558h-2.297z" class="AA"/><path d="M10.83 10.07v1.18l-.557.558V9.5z" class="AB"/><path d="M12.57 9.5l-.557.56H10.83l-.557-.56z" class="m"/><path d="M10.83 2.87h1.184v1.18H10.83z" class="y"/><path d="M12.57 2.3l-.557.558v1.18l.557.558z" class="z"/><path d="M10.83 4.05h1.183l.557.558h-2.297z" class="AA"/><path d="M10.83 2.87v1.18l-.557.558V2.3z" class="AB"/><path d="M12.57 2.3l-.557.558H10.83l-.557-.558z" class="m"/><path d="M3.628 10.07h1.185v1.184H3.628z" class="y"/><path d="M5.37 9.5l-.558.56v1.18l.558.558z" class="z"/><path d="M3.628 11.25h1.185l.558.558H3.073z" class="AA"/><path d="M3.628 10.07v1.18l-.555.558V9.5z" class="AB"/><path d="M5.37 9.5l-.558.56H3.628l-.555-.56z" class="m"/><path d="M3.628 2.87h1.185v1.18H3.628z" class="y"/><path d="M5.37 2.3l-.558.558v1.18l.558.558z" class="z"/><path d="M3.628 4.05h1.185l.558.558H3.073z" class="AA"/><path d="M3.628 2.87v1.18l-.555.558V2.3z" class="AB"/><path d="M5.37 2.3l-.558.558H3.628L3.073 2.3z" class="m"/></g><g transform="rotate(180 101.988 9.286)"><path d="M.72-.228h57.6v7.2H.72z" class="AE"/><use xlink:href="#g"/><path d="M57.135 5.787l-1.022-1.025H53.33l-1.028 1.025z" class="o"/><path d="M52.303 5.787L53.33 4.76V1.98L52.303.955z" class="p"/><path d="M52.304.955l1.027 1.023h2.782L57.135.955z" class="q"/><path d="M57.137.955L56.113 1.98v2.782l1.024 1.025z" class="r"/><use xlink:href="#g" x="-7.2"/><path d="M49.937 5.787l-1.024-1.025h-2.785l-1.025 1.025z" class="o"/><path d="M45.103 5.787l1.025-1.028V1.98L45.103.955z" class="p"/><path d="M45.105.955l1.025 1.023h2.783L49.937.955z" class="q"/><path d="M49.94.955L48.913 1.98v2.782l1.026 1.025z" class="r"/><use xlink:href="#g" x="-14.402"/><path d="M42.736 5.787l-1.024-1.025h-2.784l-1.024 1.025z" class="o"/><path d="M37.904 5.787l1.024-1.028V1.98L37.904.955z" class="p"/><path d="M37.907.955l1.022 1.023h2.783L42.736.955z" class="q"/><path d="M42.738.955L41.712 1.98v2.782l1.026 1.025z" class="r"/><use xlink:href="#g" x="-21.602"/><path d="M35.538 5.787L34.5 4.762h-2.782l-1.022 1.025z" class="o"/><path d="M30.706 5.787l1.022-1.028V1.98L30.706.955z" class="p"/><path d="M30.706.955l1.024 1.023h2.78L35.538.955z" class="q"/><path d="M35.54.955L34.5 1.98v2.782l1.03 1.025z" class="r"/><use xlink:href="#g" x="-28.8"/><path d="M28.335 5.787l-1.023-1.025H24.53l-1.026 1.025z" class="o"/><path d="M23.503 5.787L24.53 4.76V1.98L23.503.955z" class="p"/><path d="M23.505.955l1.027 1.023h2.78L28.335.955z" class="q"/><path d="M28.337.955L27.312 1.98v2.782l1.025 1.025z" class="r"/><use xlink:href="#g" x="-36"/><path d="M21.135 5.787l-1.022-1.025H17.33l-1.028 1.025z" class="o"/><path d="M16.303 5.787L17.33 4.76V1.98L16.303.955z" class="p"/><path d="M16.304.955l1.027 1.023h2.782L21.135.955z" class="q"/><path d="M21.137.955L20.113 1.98v2.782l1.024 1.025z" class="r"/><use xlink:href="#g" x="-43.2"/><path d="M13.937 5.787l-1.024-1.025h-2.785L9.103 5.787z" class="o"/><path d="M9.103 5.787l1.025-1.028V1.98L9.103.955z" class="p"/><path d="M9.105.955l1.025 1.023h2.783L13.937.955z" class="q"/><path d="M13.94.955L12.913 1.98v2.782l1.026 1.025z" class="r"/><use xlink:href="#g" x="-50.402"/><path d="M6.736 5.787L5.712 4.762H2.928L1.904 5.787z" class="o"/><path d="M1.904 5.787L2.928 4.76V1.98L1.904.955z" class="p"/><path d="M1.907.955L2.93 1.978h2.783L6.736.955z" class="q"/><path d="M6.738.955L5.712 1.98v2.782l1.026 1.025z" class="r"/></g><g transform="rotate(270 76.443 -56.271)"><path d="M-23.9-30.528v-7.348h3.833v7.348z" class="AD"/><use xlink:href="#h" class="AL AM"/><path d="M-22.437-33.847v-.854h.96v.854z" class="k"/><path d="M-22.47-33.846v-.854h.05v.854z" class="AF"/><g class="AC"><path d="M-23.476-32.55l-.106.964h.733l-.105-.964z"/><path d="M-23.28-32.488c.035-.274.104-.455.162-.606.08-.2.782-.56.696-.828-.012-.027.01-.06.043-.066s.068.01.078.04c.095.305-.617.674-.7.893-.06.148-.123.318-.155.572-.004.03-.033.055-.068.05s-.055-.025-.055-.053zm2.68-3.482l.103-.964h-.73l.103.964z"/><use xlink:href="#Q"/><path d="M-22.127-33.845s.002-.356-.3-.383v.383z"/><use xlink:href="#R"/></g><g class="AN"><use xlink:href="#S"/><path d="M-21.17-35.97l-.103-.964h.055l.103.964z"/><use xlink:href="#T"/><path d="M-22.492-34.227v.38h.057v-.38zm.312-.243c-.08.063-.076.13-.03.238h.06c-.05-.107-.052-.18.028-.24z"/></g><path d="M-20.12-32.176V-36.4h.05v4.223z" class="k u"/><path d="M-20.07-36.916h-3.83v5.317l3.83.004z" class="u AD"/><path d="M-20.72-36.866h.27c.15.018.27-.012.27.098v4.854c0 .168-.065.176-.065-.012v-4.346c0-.457-.105-.518-.197-.518l-.272.002c-.182 0-.182-.078-.008-.078z" class="k AO"/><path d="M-23.678-31.74c-.068 0-.138.012-.138-.098v-4.817c0-.168.065-.176.065.008v3.6a15.6 15.6 0 0 0 .071 1.318z" class="AP"/><path d="M-23.902-37.874v.77h.52c.125 0 .213.08.268.188h3.047v-1H-23.9" class="AC"/><path d="M-20.12-36.92v-1.006h.052v1.006z" class="k u"/><use xlink:href="#i" class="AC"/><path d="M-20.118-30.53v-1.072h.052v1.072z" class="k u"/></g><g transform="rotate(270 126.735 -90.723)"><path d="M-21.534-25.962v-7.35h3.833v7.35z" class="AD"/><path d="M-21.533-28.56s.467.646.426.865.148.54 0 .678l-.424-.02z" class="AL AM"/><path d="M-20.07-29.278v-.854h.96v.854z" class="k"/><path d="M-20.094-29.28v-.854h.05v.854z" class="AF"/><g class="AC"><path d="M-21.1-27.98l-.104.963h.73l-.104-.963z"/><path d="M-20.9-27.92c.035-.277.104-.455.162-.6.08-.2.782-.56.696-.826-.012-.026.01-.063.043-.065.035-.008.068.01.078.04.095.306-.617.674-.7.894a2.1 2.1 0 0 0-.155.571c-.004.03-.033.056-.068.05s-.055-.028-.055-.054zm2.68-3.48l.103-.967h-.73l.103.967z"/><path d="M-19.742-29.75c0-.025.02-.05.047-.055.292-.063 1.152-1.088 1.152-1.885 0-.033.026-.062.063-.062s.063.022.063.062v.002c0 .748-.77 1.9-1.245 1.992-.035.008-.068-.016-.078-.04zm-.016.472s.002-.354-.3-.383v.383z"/><path d="M-19.44-29.712s-.306.157-.35.054-.052-.18.028-.24.323.186.323.186z"/></g><g class="AN"><path d="M-20.107-29.354c.084.27-.618.617-.698.826a2.25 2.25 0 0 0-.162.6h.06c.035-.27.104-.447.162-.6.08-.2.782-.56.696-.826zM-18.8-31.4l-.103-.967h.055l.103.967z"/><path d="M-19.752-29.805c.3-.063 1.212-1.07 1.15-1.885h.06c.06.877-.86 1.824-1.152 1.888zm-.373.145v.38h.057v-.38z"/><path d="M-19.814-29.9c-.08.063-.076.13-.03.237l.06.003c-.05-.107-.052-.18.028-.24z"/></g><path d="M-17.75-27.607v-4.225h.05v4.225z" class="k u"/><path d="M-17.7-32.35h-3.83v5.316l3.83.004z" class="u AD"/><path d="M-18.352-32.298h.27c.15.02.27-.013.27.1v4.854c0 .168-.065.176-.065-.014v-4.348c0-.457-.105-.52-.197-.52l-.272.004c-.182 0-.182-.075-.008-.075z" class="k AO"/><path d="M-21.3-27.17c-.068 0-.138.013-.138-.1v-4.817c0-.168.065-.177.065.01l.002 3.6c.001.593.07 1.317.07 1.317z" class="AP"/><use xlink:href="#j" class="AC"/><path d="M-17.75-32.35v-1.007h.052v1.007z" class="k u"/><use xlink:href="#i" x="2.369" y="4.57" class="AC"/><path d="M-17.75-25.964v-1.07h.052v1.07z" class="k u"/></g><g transform="rotate(90 -10.936 112.129)"><path d="M20.426 8.515v1.272h-1.04V8.515zm-19.39-.002v1.272H-.002V8.513z" fill="#ccc"/><path d="M20.426 8.513v.203h-1.04v-.203zM1.035 8.5v.203H-.002V8.5z" class="AG"/><path d="M20.426 9.583v.204h-1.04v-.204zm-19.4-.003v.204H-.001V9.58z" class="w k"/><use xlink:href="#U" fill="#1a1a1a"/><circle r="8.703" cy="9.178" cx="10.211" class="AH"/><use xlink:href="#U" fill="#333"/><path d="M1.036 3.997l3.8-3.8h13.156a1.39 1.39 0 0 1 1.385 1.387V1.4A1.39 1.39 0 0 0 18.003.002H4.845l-3.8 3.8v.184z"/><path d="M19.386 16.785a1.39 1.39 0 0 1-1.385 1.384H4.844l-3.8-3.807v.183l3.8 3.808H18a1.39 1.39 0 0 0 1.385-1.383z" class="k AG"/><use xlink:href="#V" class="AH"/><path d="M18.915 9.178c0-2.926-1.45-5.5-3.664-7.088v14.175c2.214-1.577 3.664-4.16 3.664-7.087z"/><g class="k"><use xlink:href="#W" opacity=".3"/><use xlink:href="#X" class="u"/></g><path d="M15.25 2.32A8.66 8.66 0 0 0 10.21.704c-4.804 0-8.7 3.898-8.7 8.703v-.23C1.5 4.373 5.406.475 10.2.475a8.67 8.67 0 0 1 5.04 1.615z" class="w"/></g><g transform="rotate(90 -21.016 102.049)"><path d="M20.426 8.514v1.272h-1.038V8.514zm-19.39-.001v1.272H0V8.513z" fill="#ccc"/><path d="M20.426 8.512v.203h-1.04v-.203zm-19.4 0v.203H-.001v-.203z" class="AG"/><path d="M20.427 9.583v.204h-1.04v-.204zm-19.4-.003v.204H0V9.58z" class="w k"/><use xlink:href="#Y" fill="#1a1a1a"/><circle r="8.703" cy="9.178" cx="10.212" class="AH"/><use xlink:href="#Y" fill="#333"/><path d="M1.037 3.997l3.8-3.8h13.156a1.39 1.39 0 0 1 1.385 1.387V1.4A1.39 1.39 0 0 0 18.004.002H4.847l-3.8 3.8z"/><path d="M19.387 16.785a1.39 1.39 0 0 1-1.385 1.384H4.845l-3.8-3.807v.183l3.8 3.808h13.157a1.39 1.39 0 0 0 1.385-1.383z" class="k AG"/><use x=".002" xlink:href="#V" class="AH"/><path d="M18.915 9.178c0-2.926-1.45-5.5-3.664-7.088v14.175a8.68 8.68 0 0 0 3.664-7.087z"/><g class="k"><use x="-.01" xlink:href="#W" opacity=".3"/><use xlink:href="#X" class="u"/></g><path d="M15.25 2.32C13.827 1.307 12.093.704 10.212.704 5.407.704 1.5 4.602 1.5 9.407v-.23C1.5 4.373 5.407.475 10.212.475a8.67 8.67 0 0 1 5.039 1.615z" class="w"/></g><path d="M95.257 148.4h57.6v7.2h-57.6z" class="AE"/><use x="-70.919" xlink:href="#L"/><use x="-85.318" xlink:href="#N" class="o"/><use x="-85.319" xlink:href="#O" class="p"/><path d="M101.272 154.417l-1.026-1.023h-2.782l-1.023 1.023z" class="q"/><use x="-85.32" xlink:href="#P" class="r"/><use x="-63.719" xlink:href="#L"/><path d="M103.642 149.584l1.024 1.025h2.784l1.026-1.025z" class="o"/><use x="-78.118" xlink:href="#O" class="p"/><use xlink:href="#e" x="-57.602" class="q"/><use x="-63.719" xlink:href="#M" class="r"/><use x="-56.518" xlink:href="#L"/><use xlink:href="#k" class="o"/><use xlink:href="#l" class="p"/><use xlink:href="#m" class="q"/><use x="-56.519" xlink:href="#M" class="r"/><use x="-49.319" xlink:href="#L"/><path d="M118.04 149.584l1.025 1.025h2.785l1.022-1.025z" class="o"/><path d="M122.882 149.584l-1.022 1.03v2.78l1.022 1.023z" class="p"/><path d="M122.882 154.417l-1.024-1.023h-2.783l-1.025 1.023z" class="q"/><path d="M118.038 154.417l1.027-1.025v-2.783l-1.027-1.025z" class="r"/><use x="-42.118" xlink:href="#L"/><path d="M125.24 149.584l1.026 1.025h2.782l1.024-1.025z" class="o"/><use xlink:href="#l" x="14.41" class="p"/><use xlink:href="#f" x="-43.19" class="q"/><path d="M125.238 154.417l1.028-1.025v-2.783l-1.028-1.025z" class="r"/><use x="-34.919" xlink:href="#L"/><path d="M132.442 149.584l1.023 1.025h2.782l1.027-1.025z" class="o"/><path d="M137.274 149.584l-1.027 1.03v2.78l1.027 1.023z" class="p"/><path d="M137.282 154.417l-1.025-1.023h-2.782l-1.023 1.023z" class="q"/><use x="-49.32" xlink:href="#P" class="r"/><use x="-27.719" xlink:href="#L"/><path d="M139.642 149.584l1.024 1.025h2.782l1.028-1.025z" class="o"/><path d="M144.475 149.584l-1.028 1.03v2.78l1.028 1.023z" class="p"/><path d="M144.472 154.417l-1.026-1.023h-2.782l-1.024 1.023z" class="q"/><use x="-27.719" xlink:href="#M" class="r"/><use x="-20.518" xlink:href="#L"/><use xlink:href="#k" x="36" class="o"/><use xlink:href="#l" x="36" class="p"/><use xlink:href="#m" x="36" class="q"/><use x="-20.519" xlink:href="#M" class="r"/><g transform="rotate(90 -8.256 73.254)"><path d="M-17.707-37.08v7.348h-3.833v-7.348z" class="AD"/><use xlink:href="#h" x="2.362" y="0.797" class="AL AM"/><path d="M-19.113-33.904v.854h-.96v-.854z" class="k"/><path d="M-20.05-33.906v.854h-.05v-.854z" class="AF"/><g class="AC"><path d="M-21.115-31.753l-.104.963h.73l-.104-.963z"/><use xlink:href="#n"/><use y=".796" x="2.36" xlink:href="#Q"/><path d="M-19.766-33.05s.002-.356-.3-.383v.383z"/><use y=".795" x="2.36" xlink:href="#R"/></g><g class="AN"><use y=".796" x="2.361" xlink:href="#S"/><path d="M-18.808-35.173l-.1-.966h.053l.103.966z"/><use y=".793" x="2.36" xlink:href="#T"/><path d="M-20.133-33.433v.38h.057v-.38zm.313-.24c-.08.063-.076.13-.03.238l.06.002c-.05-.107-.052-.18.028-.24z"/></g><path d="M-17.705-35.602v4.223h-.05v-4.223z" class="k u"/><path d="M-17.708-36.122h-3.83v5.317l3.83.004z" class="u AD"/><use xlink:href="#Z" class="k AO"/><path d="M-21.32-30.944c-.068 0-.138.012-.138-.098v-4.817c0-.168.065-.176.065.008l.002 3.6.07 1.318z" class="AP"/><use xlink:href="#j" x="-0.007" y="-3.78" class="AC"/><path d="M-17.703-37.13v1.006h-.052v-1.006z" class="k u"/><use xlink:href="#o" class="AC"/><path d="M-17.704-30.806v1.072h-.052v-1.072z" class="k u"/></g><g transform="rotate(90 -5.016 70.014)"><path d="M-17.708-37.08v7.348h-3.833v-7.348z" class="AD"/><use xlink:href="#h" x="2.362" y="0.797" class="AL AM"/><path d="M-19.113-33.904v.854h-.96v-.854z" class="k"/><path d="M-20.052-33.904v.854h-.05v-.854z" class="AF"/><g class="AC"><path d="M-21.115-31.753l-.104.963h.73l-.104-.963z"/><use xlink:href="#n"/><use y=".796" x="2.36" xlink:href="#Q"/><path d="M-19.764-33.05s.002-.356-.3-.383v.383z"/><use y=".795" x="2.361" xlink:href="#R"/></g><g class="AN"><use y=".796" x="2.361" xlink:href="#S"/><path d="M-18.806-35.173l-.104-.966h.054l.103.966z"/><use y=".793" x="2.362" xlink:href="#T"/><path d="M-20.13-33.433v.38h.057v-.38zm.3-.24c-.08.063-.076.13-.03.238l.06.002c-.05-.107-.052-.18.028-.24z"/></g><path d="M-17.706-35.602v4.223h-.05v-4.223z" class="k u"/><path d="M-17.708-36.122h-3.83v5.317l3.83.004z" class="u AD"/><use xlink:href="#Z" class="k AO"/><path d="M-21.317-30.944c-.068 0-.138.012-.138-.098v-4.817c0-.168.065-.176.065.008l.002 3.6a16.6 16.6 0 0 0 .071 1.318z" class="AP"/><use xlink:href="#j" x="-0.007" y="-3.78" class="AC"/><path d="M-17.705-37.13v1.006h-.052v-1.006z" class="k u"/><use xlink:href="#o" class="AC"/><path d="M-17.707-30.805v1.072h-.052v-1.072z" class="k u"/></g><g transform="rotate(90 -16.602 69.112)"><path d="M32.445 1.192v4.896h-3.457V1.192zm-6.555.002V6.1h-3.46V1.194zm-6.556-.002v4.896h-3.456V1.192z" fill="#999"/><path d="M32.445 1.193v.146h-3.458v-.146zm-6.555 0v.146h-3.46v-.146zm-6.557 0v.146h-3.455v-.146z" class="w k"/><path d="M29.265 16.03v5.285H19.058V16.03z" fill="#999"/><path d="M29.264 21.154v.16H19.057v-.16z" class="k w"/><path d="M33.742 6.088v9.943h-19.16V6.088z" fill="#303030"/><path d="M33.744 16.03H14.582l.72-.72h17.72zm0-9.942H14.582l.72.723h17.72z" fill="#1f1f1f"/><path d="M33.744 16.03V6.088l-.723.723v8.5z"/><path d="M14.582 16.03V6.088l.72.723v8.5z" fill="#3d3d3d"/><circle r=".72" cy="8.251" cx="31.582" fill="#1f1f1f"/></g><g transform="rotate(180 -40.859 87.53)"><path d="M-134.003 26.13h32.972v23.732h-32.972z" fill="#232323"/><path d="M-133.572 47.644h31.937V49.3h-31.937z" fill="#494949"/><path d="M-133.57 42.273h31.936v5.37h-31.936z" fill="#3d3d3d" fill-opacity=".3"/><path d="M-133.572 26.648h32.973v1.62h-32.973z"/><path d="M-133.572 28.22h32.973v5.826h-32.973z" fill="#0f0f0f" fill-opacity=".4"/><path d="M-134.003 26.133h.592v23.73h-.592z" class="w"/><path d="M-131.193 26.13v23.732" stroke="#000" stroke-width=".25" class="n u AS"/><path d="M-104.53 26.1h1.287v23.73h-1.287z" opacity=".25"/><use xlink:href="#a" opacity=".25" stroke="#565656" stroke-width=".25" class="AS"/><g fill="#232323"><use xlink:href="#a"/><path d="M-104.25 25.242h7.688v25.514h-7.688z"/></g><path d="M-135.705 35.142h1.7v5.713h-1.7z" fill="#6d6d6d"/><path d="M-134.977 32.387h.976v11.226h-.976zm31.453 16.903h6.266v1.05h-6.266z" fill="#494949"/><path d="M-103.524 25.603h6.267v1.05h-6.267z"/></g><g transform="rotate(270 40.482 33.507)"><path d="M43.103 14.3v2.956H39.03l-.002-4.884h3.17c.502 0 .908.406.908.907l-.002 1.02z" fill="#999"/><path d="M43.103 13.2h-4.076v-.807h3.318c.403 0 .758.56.758.807z" fill="gray"/><path d="M6.553 39.154V2.472h32.48v36.682z" class="AF"/><path d="M6.553 2.47v-7.565h32.48V2.47z" fill="#999"/><path d="M6.554 39.154V-5.094H8.6v44.247z" fill="#ccc" class="u"/><path d="M36.984 39.153V-5.094h2.047v44.247z" class="w"/><path d="M2.476 14.308v2.956h4.077V12.38H3.38c-.502 0-.905.406-.905.907z" class="AF"/><path d="M2.476 13.187h4.077v-.807h-3.32c-.404 0-.758.56-.758.807z" class="AH"/></g><g transform="rotate(270 21.01 9.766)"><g fill="#ccc"><path d="M3.23 35.772H19.2V15.015H3.23v6.247h.368v8.264H3.23z"/><path d="M21.768 15.015H5.908v20.757h15.86v-6.246h-.37v-8.264h.37z"/></g><circle r="5.117" cy="25.395" cx="12.496" fill="#641d1c"/><path d="M12.746 30.5c2.827 0 5.118-2.3 5.118-5.114a5.12 5.12 0 0 0-5.118-5.12h-.25a5.12 5.12 0 0 1 5.118 5.12c0 2.825-2.3 5.114-5.118 5.114z" class="w"/><g fill="#852725"><circle r="4.93" cy="25.395" cx="12.497"/><circle r="4.929" cy="25.395" cx="12.381"/></g><path d="M7.568 25.512a4.93 4.93 0 1 0 9.86 0v-.233a4.93 4.93 0 1 1-9.86 0z" class="AG"/><g class="k"><path d="M17.427 25.512a4.93 4.93 0 1 0-9.86 0v-.233a4.93 4.93 0 1 1 9.86 0zM3.23 21.26V15h.37v6.25zm0 14.5v-6.244h.37v6.244z" class="w"/><path d="M3.598 29.524v-8.266h.368v8.266z" class="w"/></g><path d="M21.387 21.26v-6.248h.368v6.248zm-.004 14.508v-6.254h.37v6.244z" class="w"/><path d="M21.016 29.526V21.26h.37v8.267z" class="w"/></g><path d="M47.04 23.278h2.75v2.25h-2.75zm0-12.25h2.75v2.252h-2.75zm-23.375 5.46h2.75v3.417h-2.75zm0 6.792h2.75v2.25h-2.75zm0-12.25h2.75v2.252h-2.75z" class="AH"/><path d="M23.665 16.486H24v3.417h-.334zm0 6.792H24v2.25h-.334zm0-12.25H24v2.252h-.334z" class="k w"/><path d="M49.73 23.26h.104v2.25h-.104zm0-12.252h.104v2.252h-.104z" class="w"/><path d="M47.056 23.3h.334v2.25h-.334zm0-12.25h.334v2.252h-.334z" class="AG"/><text y="NaN" x="NaN" class="k l AK">RESET</text><path d="M69.276 11.6h72v7.2h-72z" class="AE"/><use xlink:href="#g" x="18.157" y="11.82"/><use y="-136.8" x="-111.298" xlink:href="#N" class="o"/><path d="M75.294 12.784l-1.026 1.028v2.78l1.026 1.023z" class="p"/><path d="M75.294 17.616l-1.026-1.023h-2.783l-1.023 1.023z" class="q"/><use xlink:href="#p" class="r"/><use xlink:href="#g" x="25.358" y="11.82"/><use y="-136.8" x="-104.098" xlink:href="#N" class="o"/><path d="M82.492 12.784l-1.026 1.028v2.78l1.026 1.023z" class="p"/><path d="M82.492 17.616l-1.028-1.023h-2.78l-1.023 1.023z" class="q"/><use xlink:href="#p" x="7.2" class="r"/><use xlink:href="#g" x="32.557" y="11.82"/><path d="M84.86 12.784l1.022 1.026h2.786l1.025-1.025z" class="o"/><path d="M89.694 12.784l-1.025 1.028v2.78l1.025 1.023z" class="p"/><path d="M89.682 17.616l-1.023-1.023h-2.777l-1.023 1.023z" class="q"/><path d="M84.86 17.616l1.022-1.026V13.8l-1.023-1.025z" class="r"/><use xlink:href="#g" x="39.758" y="11.82"/><path d="M92.062 12.784l1.026 1.025h2.783l1.023-1.025z" class="o"/><path d="M96.892 12.784l-1.023 1.028v2.78l1.023 1.023z" class="p"/><use xlink:href="#f" x="-76.38" y="-136.801" class="q"/><use xlink:href="#q" class="r"/><use xlink:href="#g" x="46.958" y="11.82"/><path d="M99.26 12.784l1.026 1.025h2.783l1.023-1.025z" class="o"/><path d="M104.082 12.784l-1.023 1.028v2.78l1.023 1.023z" class="p"/><path d="M104.1 17.616l-1.023-1.023h-2.78l-1.026 1.023z" class="q"/><use xlink:href="#q" x="7.198" class="r"/><use xlink:href="#g" x="54.16" y="11.82"/><path d="M106.462 12.784l1.023 1.025h2.783l1.027-1.025z" class="o"/><path d="M111.295 12.784l-1.027 1.028v2.78l1.027 1.023z" class="p"/><path d="M111.295 17.616l-1.03-1.023h-2.78l-1.023 1.023z" class="q"/><use xlink:href="#p" x="36" class="r"/><use xlink:href="#g" x="61.356" y="11.82"/><path d="M113.664 12.784l1.02 1.025h2.782l1.03-1.025z" class="o"/><path d="M118.495 12.784l-1.03 1.028v2.78l1.03 1.023z" class="p"/><path d="M118.492 17.616l-1.03-1.023h-2.78l-1.02 1.023z" class="q"/><path d="M113.662 17.616l1.023-1.025V13.8l-1.023-1.025z" class="r"/><use xlink:href="#g" x="68.556" y="11.82"/><path d="M120.86 12.784l1.022 1.026h2.788l1.022-1.025z" class="o"/><path d="M125.682 12.784l-1.022 1.028v2.78l1.022 1.023z" class="p"/><path d="M125.682 17.616l-1.022-1.023h-2.778l-1.022 1.023z" class="q"/><path d="M120.858 17.616l1.024-1.026V13.8l-1.024-1.025z" class="r"/><use xlink:href="#g" x="75.757" y="11.82"/><path d="M128.062 12.784l1.026 1.025h2.784l1.022-1.025z" class="o"/><path d="M132.892 12.784l-1.022 1.028v2.78l1.022 1.023z" class="p"/><path d="M132.9 17.616l-1.022-1.023h-2.78l-1.026 1.023z" class="q"/><use xlink:href="#q" x="36" class="r"/><path d="M136.29 13.8h2.778v2.782h-2.778z"/><path d="M135.26 12.784l1.027 1.025h2.78l1.024-1.025z" class="o"/><path d="M140.092 12.784l-1.024 1.028v2.78l1.024 1.023z" class="p"/><path d="M140.09 17.616l-1.022-1.023h-2.78l-1.027 1.023z" class="q"/><path d="M135.257 17.616l1.03-1.025V13.8l-1.03-1.025z" class="r"/><path d="M95.616 40.26h5.455v3.8h-5.455z" fill="#ff0" class="AT"/><path d="M185.045 53.724h5.456v3.888h-5.456z" fill="#0f0" class="AT"/><defs><path d="M1.565-1.05c-.02-.5.25-.756.596-.756.2 0 .37.064.706.225.255.12.44.2.625.2s.266-.145.27-.42h.3c.025.56-.265.756-.576.756-.2 0-.38-.06-.726-.22-.235-.115-.42-.22-.6-.22s-.3.125-.3.426z" id="A"/><path d="M168.164 148.295h3.222v7.408h-3.222v-7.408m0 3.705c0 .9.722 1.605 1.6 1.605a1.61 1.61 0 0 0 1.609-1.605h0a1.61 1.61 0 0 0-1.609-1.611 1.61 1.61 0 0 0-1.61 1.611z" id="B"/><path d="M175.364 148.295h3.22v7.408h-3.22v-7.408m0 3.705c0 .9.72 1.605 1.6 1.605s1.608-.72 1.608-1.605h0a1.61 1.61 0 0 0-1.608-1.611 1.61 1.61 0 0 0-1.609 1.611z" id="C"/><path d="M182.563 148.295h3.222v7.408h-3.222v-7.408m0 3.705c0 .9.722 1.605 1.6 1.605s1.606-.72 1.606-1.605h0a1.61 1.61 0 0 0-1.606-1.611 1.61 1.61 0 0 0-1.611 1.611z" id="D"/><path d="M189.764 148.295h3.22v7.408h-3.22v-7.408m0 3.705c0 .9.72 1.605 1.605 1.605.895 0 1.6-.72 1.6-1.605h0a1.61 1.61 0 0 0-1.611-1.611 1.61 1.61 0 0 0-1.605 1.611z" id="E"/><path d="M196.964 148.295h3.22v7.408h-3.22v-7.408m0 3.705c0 .9.72 1.605 1.6 1.605a1.61 1.61 0 0 0 1.609-1.605h0a1.61 1.61 0 1 0-3.22 0z" id="F"/><path d="M142.244 11.496h3.222v7.408h-3.222v-7.408m0 3.704a1.61 1.61 0 1 0 1.61-1.61 1.61 1.61 0 0 0-1.61 1.61z" id="G"/><path d="M135.044 11.496h3.22v7.408h-3.22v-7.408m0 3.704a1.61 1.61 0 1 0 3.22 0 1.61 1.61 0 1 0-3.22 0z" id="H"/><path d="M99.044 11.496h3.22v7.408h-3.22v-7.408m0 3.704a1.61 1.61 0 1 0 3.22 0 1.61 1.61 0 0 0-3.22 0z" id="I"/><path d="M189.764 11.496h3.22v7.408h-3.22v-7.408m0 3.704a1.61 1.61 0 0 0 1.605 1.61c.895 0 1.61-.72 1.61-1.6s-.725-1.6-1.61-1.6a1.61 1.61 0 0 0-1.605 1.61z" id="J"/><path d="M110.564 148.295h3.22v7.408h-3.22v-7.408m0 3.705c0 .9.72 1.605 1.6 1.605a1.61 1.61 0 0 0 1.611-1.605h0a1.61 1.61 0 1 0-3.221 0z" id="K"/><path d="M168.386 150.6h2.78v2.783h-2.78z" id="L"/><path d="M167.358 154.417l1.026-1.025v-2.783l-1.026-1.025z" id="M"/><path d="M181.76 149.584l1.023 1.025h2.783l1.026-1.025z" id="N"/><path d="M186.593 149.584l-1.026 1.03v2.78l1.026 1.023z" id="O"/><path d="M181.76 154.417l1.025-1.025v-2.783l-1.025-1.025z" id="P"/><path d="M-22.1-34.316c0-.025.02-.05.047-.055.292-.063 1.152-1.088 1.152-1.885 0-.033.026-.057.063-.057s.063.025.063.057v.002c0 .75-.77 1.9-1.245 1.993-.035.008-.068-.012-.078-.04z" id="Q"/><path d="M-21.806-34.28s-.306.158-.35.053-.052-.178.028-.24.323.187.323.187z" id="R"/><path d="M-22.474-33.922c.084.27-.618.62-.698.828a2.24 2.24 0 0 0-.162.598h.06c.035-.266.104-.447.162-.598.08-.2.782-.56.696-.828z" id="S"/><path d="M-22.12-34.37c.3-.062 1.212-1.07 1.15-1.885h.06c.06.877-.86 1.826-1.152 1.887z" id="T"/><path d="M4.845 18.353h13.157a1.39 1.39 0 0 0 1.385-1.383V1.4A1.39 1.39 0 0 0 18.002.003H4.845l-3.8 3.8v10.73z" id="U"/><path d="M10.2.354c1.88 0 3.615.604 5.04 1.614a8.69 8.69 0 0 1 3.664 7.088c0 2.927-1.45 5.5-3.664 7.087-1.424 1.013-3.158 1.615-5.04 1.615-4.805 0-8.702-3.896-8.702-8.703S5.406.355 10.2.355z" id="V"/><path d="M1.5 8.934c0 4.807 3.897 8.703 8.702 8.703 1.88 0 3.615-.604 5.04-1.616 2.215-1.578 3.664-4.16 3.664-7.087v.244c0 2.927-1.45 5.5-3.664 7.087a8.65 8.65 0 0 1-5.039 1.615c-4.805 0-8.702-3.896-8.702-8.702z" id="W"/><path d="M18.915 9.407c0-2.925-1.45-5.508-3.664-7.088V2.1c2.215 1.58 3.664 4.162 3.664 7.088z" id="X"/><path d="M4.846 18.353h13.157a1.39 1.39 0 0 0 1.385-1.383V1.4A1.39 1.39 0 0 0 18.003.003H4.846l-3.8 3.8v10.73z" id="Y"/><path d="M-18.36-36.07h.27c.15.018.27-.012.27.098v4.854c0 .168-.065.176-.065-.012v-4.346c0-.457-.105-.518-.197-.518l-.272.002c-.18-.001-.18-.078-.008-.078z" id="Z"/><path d="M-103.525 45.54V30.46h-13.296a7.54 7.54 0 1 0-.001 15.081z" id="a"/><path id="b" d="M100.126 11.496h3.22v7.408h-3.22v-7.408m0 3.704a1.61 1.61 0 0 0 3.22 0 1.61 1.61 0 0 0-3.22 0z"/><path id="c" d="M161.242 149.584l1.024 1.025h2.785l1.023-1.025z"/><path id="d" d="M166.074 149.584l-1.023 1.03v2.78l1.023 1.023z"/><path id="e" d="M166.074 154.417l-1.025-1.023h-2.783l-1.024 1.023z"/><path id="f" d="M173.272 154.417l-1.025-1.023h-2.78l-1.026 1.023z"/><path id="g" d="M53.33 1.98h2.78v2.782h-2.78z"/><path id="h" d="M-23.902-33.13s.467.645.426.867.148.54 0 .676l-.424-.018z"/><path id="i" d="M-23.902-30.53h3.833v-1.07h-3.464c-.056.104-.146.2-.27.2h-.1v.83"/><path id="j" d="M-21.533-33.3v.77h.52c.125 0 .213.08.268.188h3.047v-1h-3.834"/><path id="k" d="M110.842 149.584l1.024 1.025h2.784l1.024-1.025z"/><path id="l" d="M115.672 149.584l-1.024 1.03v2.78l1.024 1.023z"/><path id="m" d="M115.682 154.417l-1.025-1.023h-2.782l-1.024 1.023z"/><path id="n" d="M-20.918-31.692c.035-.274.104-.455.162-.606.08-.2.782-.56.696-.828-.012-.027.01-.06.043-.066s.068.01.078.04c.095.305-.617.674-.7.893-.06.148-.123.318-.155.572-.004.03-.033.055-.068.05s-.055-.026-.055-.053zm2.688-3.48l.103-.966h-.73l.103.966z"/><path id="o" d="M-21.54-29.733h3.833v-1.072h-3.464c-.056.105-.146.2-.27.2h-.1v.83"/><path id="p" d="M70.46 17.616l1.025-1.025V13.8l-1.025-1.025z"/><path id="q" d="M92.06 17.616l1.028-1.025V13.8l-1.028-1.025z"/></defs></svg>