<svg xmlns="http://www.w3.org/2000/svg" xmlns:xlink="http://www.w3.org/1999/xlink" width="285.218" height="208.996" viewBox="0 0 228.174 167.197" xmlns:v="https://vecta.io/nano"><style><![CDATA[.B{fill:#fff}.C{font-family:OCRA}.D{fill:#9a916c}.E{fill:none}.F{fill:#2a2a29}.G{fill:#474747}.H{fill:#595959}.I{fill:#373737}.J{stroke:#9a916c}.K{stroke-width:.811}.L{opacity:.2}.M{opacity:.5}.N{font-size:3.75px}.O{font-size:3.341px}.P{fill:#8c8663}.Q{fill:#b8af82}.R{fill:#80795b}.S{fill:#5e5b43}.T{fill:#d1c690}.U{fill:#f2f2f2}.V{opacity:.1}.W{fill:#404040}.X{fill:#b3b3b3}.Y{fill:#e6e6e6}.Z{font-size:4.677px}.a{font-size:3.675px}.b{font-size:4.176px}.c{fill:#22b573}.d{fill-opacity:.7}.e{fill:#9d956c}.f{opacity:.55}.g{opacity:.03}.h{stroke-width:.864}.i{stroke-linecap:round}.j{stroke-miterlimit:10}.k{fill-opacity:.383}]]></style><path d="M208.655 8l4.32 4.32v32.4l7.2 7.2v92.88l-7.2 7.2v4.36a2.84 2.84 0 0 1-2.834 2.837H28.61c-1.565 0-2.834-1.27-2.834-2.834V10.834C25.775 9.27 27.044 8 28.61 8h180.046m-.217 50.4c-.004 2.505 2.023 4.54 4.527 4.543a4.54 4.54 0 0 0 .017-9.087c-2.505-.004-4.54 2.022-4.544 4.527zm0 79.2c-.004 2.505 2.023 4.54 4.527 4.543s4.54-2.02 4.545-4.527a4.54 4.54 0 0 0-4.528-4.559c-2.505-.006-4.54 2.02-4.544 4.527zm-144-122.4c-.004 2.504 2.023 4.54 4.528 4.543s4.54-2.022 4.543-4.527a4.54 4.54 0 0 0-4.529-4.558c-2.505-.003-4.54 2.024-4.542 4.53zM60.84 152c-.003 2.504 2.024 4.537 4.53 4.54s4.54-2.023 4.542-4.528a4.54 4.54 0 0 0-4.529-4.556c-2.505-.004-4.538 2.02-4.542 4.525zm107.73 0c-.001.664.536 1.205 1.202 1.207s1.205-.537 1.207-1.203-.537-1.21-1.2-1.213-1.207.537-1.208 1.203zm7.2 0c-.002.664.537 1.205 1.2 1.207s1.207-.537 1.207-1.203-.535-1.21-1.2-1.213-1.207.537-1.207 1.203zm7.2 0c0 .664.537 1.205 1.203 1.207s1.205-.537 1.207-1.203-.537-1.21-1.2-1.213-1.207.537-1.21 1.203zm7.2 0c-.002.664.536 1.205 1.2 1.207s1.206-.537 1.207-1.203-.535-1.21-1.2-1.213-1.205.537-1.207 1.203zm7.2 0c-.002.664.537 1.205 1.202 1.207s1.206-.537 1.208-1.203-.537-1.21-1.203-1.213-1.205.537-1.207 1.203zm7.2 0c-.001.664.536 1.205 1.202 1.207s1.205-.537 1.207-1.203-.537-1.21-1.2-1.213-1.207.537-1.208 1.203zm.22-79.2c-.001.744.6 1.348 1.345 1.35a1.35 1.35 0 0 0 1.352-1.344 1.35 1.35 0 0 0-1.348-1.352c-.744-.001-1.348.6-1.35 1.344zm7.2 0a1.35 1.35 0 0 0 1.344 1.349 1.35 1.35 0 0 0 1.35-1.344 1.35 1.35 0 0 0-1.344-1.352 1.35 1.35 0 0 0-1.35 1.344zm-7.2 7.2a1.35 1.35 0 0 0 1.345 1.349 1.35 1.35 0 0 0 1.352-1.345 1.35 1.35 0 0 0-1.348-1.353c-.744-.001-1.348.6-1.35 1.345zm7.2 0a1.35 1.35 0 0 0 1.344 1.349 1.35 1.35 0 0 0 1.35-1.345 1.35 1.35 0 0 0-1.344-1.353 1.35 1.35 0 0 0-1.35 1.345zm-7.2 7.2a1.35 1.35 0 0 0 1.345 1.35 1.35 1.35 0 0 0 1.352-1.346 1.35 1.35 0 0 0-1.348-1.352c-.744-.002-1.348.6-1.35 1.344zm7.2 0a1.35 1.35 0 0 0 1.344 1.35 1.35 1.35 0 0 0 1.35-1.346 1.35 1.35 0 0 0-1.344-1.352c-.744-.002-1.35.6-1.35 1.344zM83.47 24.56a1.35 1.35 0 0 0 1.344 1.349c.744.001 1.348-.6 1.35-1.345s-.6-1.352-1.344-1.353a1.35 1.35 0 0 0-1.349 1.345zm0 7.2c-.001.743.6 1.347 1.344 1.348s1.348-.6 1.35-1.344-.6-1.352-1.344-1.353-1.348.6-1.35 1.344zm-7.2-7.2a1.35 1.35 0 0 0 1.344 1.349c.744.001 1.348-.6 1.35-1.345a1.35 1.35 0 0 0-1.345-1.353c-.743-.001-1.347.6-1.348 1.345zm0 7.2c-.001.743.6 1.347 1.344 1.348s1.348-.6 1.35-1.344a1.35 1.35 0 0 0-1.345-1.353c-.743-.001-1.347.6-1.348 1.344zm-7.2-7.2c0 .744.603 1.346 1.347 1.346s1.346-.604 1.346-1.346a1.35 1.35 0 0 0-1.346-1.347 1.35 1.35 0 0 0-1.347 1.347zm0 7.2c0 .743.603 1.346 1.347 1.346s1.346-.603 1.346-1.346-.603-1.347-1.346-1.347a1.35 1.35 0 0 0-1.347 1.347zM142.65 15.2c-.001.665.536 1.206 1.202 1.207s1.205-.537 1.207-1.202c.002-.67-.537-1.21-1.202-1.213s-1.206.537-1.207 1.202zm-7.2 0c-.002.665.537 1.206 1.202 1.207s1.206-.537 1.208-1.202c.002-.67-.536-1.212-1.2-1.214s-1.207.536-1.21 1.2zm-7.2 0c-.003.665.535 1.207 1.2 1.208s1.207-.535 1.21-1.2c.002-.674-.535-1.215-1.2-1.217s-1.207.536-1.21 1.2zm-7.2 0c-.002.665.535 1.207 1.2 1.208s1.207-.535 1.21-1.2c.002-.674-.535-1.215-1.2-1.217s-1.207.536-1.21 1.2zm-7.2 0c-.002.665.536 1.207 1.202 1.208s1.205-.535 1.21-1.2c.002-.674-.537-1.215-1.2-1.217s-1.207.536-1.208 1.2zm-7.2 0c-.002.665.535 1.207 1.2 1.208s1.207-.535 1.208-1.2c.002-.674-.535-1.215-1.2-1.217s-1.207.536-1.208 1.2zm-7.2 0c-.002.665.536 1.207 1.2 1.208s1.207-.535 1.21-1.2c.002-.674-.536-1.215-1.2-1.217s-1.207.536-1.21 1.2zm-7.2 0c-.002.665.535 1.207 1.2 1.208s1.207-.535 1.208-1.2c.002-.674-.535-1.215-1.2-1.217s-1.207.536-1.208 1.2zm-7.2 0c-.002.665.536 1.207 1.2 1.208s1.207-.535 1.21-1.2c.002-.674-.536-1.215-1.2-1.217s-1.206.536-1.208 1.2zm-7.2 0c-.002.665.535 1.207 1.2 1.208s1.207-.535 1.21-1.2c.002-.674-.536-1.215-1.2-1.217s-1.207.536-1.21 1.2zm126.72 0c-.001.665.536 1.206 1.202 1.207s1.205-.537 1.207-1.202c.002-.67-.537-1.21-1.2-1.213s-1.207.537-1.208 1.202zm-7.2 0c-.002.665.537 1.206 1.202 1.207s1.206-.537 1.208-1.202c.001-.67-.537-1.21-1.203-1.213s-1.205.537-1.207 1.202zm-7.2 0c-.002.665.536 1.206 1.2 1.207s1.206-.537 1.207-1.202c.002-.67-.535-1.21-1.2-1.213s-1.205.537-1.207 1.202zm-7.2 0c0 .665.537 1.206 1.203 1.207s1.205-.537 1.207-1.202c.002-.67-.537-1.21-1.2-1.213s-1.207.537-1.21 1.202zm-7.2 0c-.002.665.537 1.206 1.2 1.207s1.207-.537 1.207-1.202c.002-.67-.535-1.21-1.2-1.213s-1.207.537-1.207 1.202zm-7.2 0c-.001.665.536 1.206 1.202 1.207s1.205-.537 1.207-1.202c.002-.67-.537-1.21-1.2-1.213s-1.207.537-1.208 1.202zm-7.2 0c-.002.665.537 1.206 1.202 1.207s1.206-.537 1.208-1.202c.001-.67-.537-1.21-1.203-1.213s-1.205.537-1.207 1.202zm-7.2 0c-.002.665.536 1.206 1.2 1.207s1.206-.537 1.207-1.202c.002-.67-.535-1.21-1.2-1.213s-1.205.537-1.207 1.202zM110.97 152c-.002.664.535 1.205 1.2 1.207a1.2 1.2 0 0 0 1.208-1.199c.002-.674-.535-1.215-1.2-1.217s-1.207.535-1.21 1.2zm-7.2 0c-.002.664.535 1.205 1.2 1.207a1.2 1.2 0 0 0 1.208-1.199c.002-.674-.535-1.215-1.2-1.217s-1.207.535-1.21 1.2zm14.4 0c-.002.664.535 1.205 1.2 1.207s1.206-.535 1.208-1.2c.003-.674-.535-1.215-1.2-1.217s-1.207.535-1.21 1.2zm7.2 0c-.002.664.535 1.205 1.2 1.207s1.206-.535 1.21-1.2c.002-.674-.536-1.215-1.2-1.217s-1.207.535-1.21 1.2zm7.2 0c-.003.664.534 1.205 1.2 1.207s1.207-.535 1.21-1.2c.002-.674-.535-1.215-1.2-1.217s-1.206.535-1.208 1.2zm7.2 0c-.002.664.537 1.205 1.2 1.207s1.207-.537 1.207-1.203-.535-1.21-1.2-1.213-1.207.537-1.207 1.203zm7.2 0c0 .664.537 1.205 1.203 1.207s1.205-.537 1.207-1.203-.537-1.21-1.2-1.213-1.207.537-1.21 1.203zm7.2 0c-.002.664.536 1.205 1.2 1.207s1.206-.537 1.207-1.203-.535-1.21-1.2-1.213-1.205.537-1.207 1.203z" fill="#0f7391"/><circle cx="88.415" cy="20.96" r=".72" stroke="#fff" stroke-width=".72" class="E"/><text transform="matrix(0 -1 1 0 109.433 25.387)" class="B C N">13</text><text transform="matrix(0 -1 1 0 116.634 25.387)" class="B C N">12</text><text transform="matrix(0 -1 1 0 123.833 25.387)" class="B C N">11</text><text transform="matrix(0 -1 1 0 131.032 25.387)" class="B C N">10</text><text transform="matrix(0 -1 1 0 138.233 22.68)" class="B C N">9</text><text transform="matrix(0 -1 1 0 145.432 22.68)" class="B C N">8</text><text transform="matrix(0 -1 1 0 156.952 22.68)" class="B C N">7</text><text transform="matrix(0 -1 1 0 164.153 22.68)" class="B C N">6</text><text transform="matrix(0 -1 1 0 171.352 22.68)" class="B C N">5</text><text transform="matrix(0 -1 1 0 178.552 22.68)" class="B C N">4</text><text transform="matrix(0 -1 1 0 185.753 22.68)" class="B C N">3</text><text transform="matrix(0 -1 1 0 192.952 22.68)" class="B C N">2</text><text class="B C Z" x="NaN" y="NaN">L</text><text transform="matrix(0 -1 1 0 135.167 146.998)" class="B C O">5V</text><text transform="matrix(0 -1 1 0 171.022 146.997)" class="B C O">A0</text><text class="B C a" x="NaN" y="NaN">ANALOG IN</text><text transform="matrix(0 -1 1 0 94.757 30.849)" class="B C N">AREF</text><text class="B C b" x="NaN" y="NaN">1</text><text transform="matrix(0 -1 1 0 102.285 28.161)" class="B C N">GND</text><text class="B C Z" x="NaN" y="NaN">TX</text><text class="B C Z" x="NaN" y="NaN">RX</text><text transform="matrix(0 -1 1 0 120.095 146.6)" class="B C O">RESET</text><text transform="matrix(0 -1 1 0 128.014 146.959)" class="B C O">3V3</text><text transform="matrix(0 -1 1 0 178.221 146.998)" class="B C O">A1</text><text transform="matrix(0 -1 1 0 185.425 146.998)" class="B C O">A2</text><text transform="matrix(0 -1 1 0 192.622 146.997)" class="B C O">A3</text><text transform="matrix(0 -1 1 0 199.823 146.998)" class="B C O">A4</text><text transform="matrix(0 -1 1 0 207.022 146.997)" class="B C O">A5</text><text transform="matrix(0 -1 1 0 156.768 146.997)" class="B C O">VIN</text><text transform="matrix(0 -1 1 0 142.364 146.997)" class="B C O">GND</text><text transform="matrix(0 -1 1 0 149.36 146.961)" class="B C O">GND</text><text class="B C a" x="NaN" y="NaN">DIGITAL (PWM=</text><text class="B C a" x="NaN" y="NaN">)</text><g class="B"><g transform="matrix(0 -1 1 0 131.255 30.68)"><use xlink:href="#B"/><use xlink:href="#B" y="-7.423"/></g><path d="M.994-1.05c-.02-.502.25-.756.596-.756.2 0 .37.064.706.225.254.12.44.21.624.21s.266-.146.27-.422h.3c.025.562-.265.756-.576.756-.2 0-.38-.06-.726-.22-.234-.115-.42-.22-.6-.22s-.3.125-.3.426z" transform="matrix(0 -1 1 0 171.215 27.08)"/><path d="M.994-1.05c-.02-.5.25-.757.596-.757.2 0 .37.063.706.226.254.12.44.21.624.21s.266-.146.27-.42h.3c.025.56-.265.756-.576.756-.2 0-.38-.06-.726-.22-.235-.115-.42-.222-.6-.222s-.3.125-.3.427z" transform="matrix(0 -1 1 0 185.615 27.08)"/><path d="M.994-1.05c-.02-.502.25-.756.596-.756.2 0 .37.064.706.225.254.12.44.21.624.21s.266-.146.27-.422h.3c.025.56-.265.756-.576.756-.2 0-.38-.06-.726-.22-.234-.115-.42-.22-.6-.22s-.3.125-.3.426z" transform="matrix(0 -1 1 0 164.375 27.08)"/><path d="M.994-1.05c-.02-.5.25-.756.596-.756.2 0 .37.064.706.225.254.12.44.2.624.2s.266-.146.27-.42h.3c.025.56-.265.756-.576.756-.2 0-.38-.063-.726-.22-.235-.115-.42-.223-.6-.223s-.3.125-.3.43z" transform="matrix(0 -1 1 0 138.095 27.08)"/><text font-size="6.121" class="C" x="NaN" y="NaN">Arduino</text><text font-size="2.226" class="C" x="NaN" y="NaN">TM</text><text transform="matrix(0 -1 1 0 113.975 146.6)" class="C O">IOREF</text><text transform="matrix(0 -1 1 0 201.573 91.116)" class="C b">ICSP</text><text class="C b" x="NaN" y="NaN">ICSP2</text><text class="C Z" x="NaN" y="NaN">ON</text></g><path d="M75.208 53.833H89.38v14.173H75.208zm29.407 51.007h105.12v15.84h-105.12z" fill="#333"/><circle cx="169.775" cy="152" r="1.61" class="E J K"/><use xlink:href="#C" class="D"/><circle cx="176.975" cy="152" r="1.61" class="E J K"/><use xlink:href="#D" class="D"/><circle cx="184.175" cy="152" r="1.61" class="E J K"/><use xlink:href="#E" class="D"/><circle cx="191.376" cy="152" r="1.61" class="E J K"/><use xlink:href="#F" class="D"/><circle cx="198.575" cy="152" r="1.61" class="E J K"/><use xlink:href="#G" class="D"/><circle cx="205.775" cy="152" r="1.61" class="E J K"/><use xlink:href="#C" x="36" class="D"/><g class="E J"><g stroke-width=".85"><circle cx="206.136" cy="72.8" r="1.772"/><circle cx="213.335" cy="72.8" r="1.772"/><circle cx="206.136" cy="80" r="1.771"/><circle cx="213.335" cy="80" r="1.771"/><circle cx="206.136" cy="87.2" r="1.771"/><circle cx="213.335" cy="87.2" r="1.771"/><circle cx="84.815" cy="24.56" r="1.771"/><circle cx="84.815" cy="31.76" r="1.772"/><circle cx="77.615" cy="24.56" r="1.771"/><circle cx="77.615" cy="31.76" r="1.772"/><circle cx="70.414" cy="24.56" r="1.771"/><circle cx="70.414" cy="31.76" r="1.772"/></g><circle cx="143.854" cy="15.2" r="1.61" class="K"/></g><use xlink:href="#H" class="D"/><circle cx="136.655" cy="15.2" r="1.61" class="E J K"/><use xlink:href="#I" class="D"/><circle cx="129.455" cy="15.2" r="1.61" class="E J K"/><path d="M127.845 11.496h3.225v7.408h-3.225v-7.408m0 3.704c0 .89.725 1.6 1.61 1.6a1.61 1.61 0 1 0 0-3.22 1.61 1.61 0 0 0-1.609 1.61z" class="D"/><circle cx="122.255" cy="15.2" r="1.61" class="E J K"/><path d="M120.643 11.496h3.22v7.408h-3.22v-7.408m0 3.704a1.61 1.61 0 0 0 1.611 1.61c.89 0 1.605-.72 1.605-1.6a1.61 1.61 0 0 0-1.605-1.61 1.61 1.61 0 0 0-1.611 1.61z" class="D"/><circle cx="115.055" cy="15.2" r="1.61" class="E J K"/><path d="M113.444 11.496h3.22v7.408h-3.22v-7.408m0 3.704a1.61 1.61 0 0 0 1.609 1.61c.9 0 1.607-.72 1.607-1.6a1.61 1.61 0 0 0-1.607-1.61 1.61 1.61 0 0 0-1.609 1.61z" class="D"/><circle cx="107.855" cy="15.2" r="1.61" class="E J K"/><path d="M106.244 11.496h3.22v7.408h-3.22v-7.408m0 3.704a1.61 1.61 0 0 0 3.22 0 1.61 1.61 0 0 0-3.22 0z" class="D"/><circle cx="100.655" cy="15.2" r="1.61" class="E J K"/><use xlink:href="#J" class="D"/><circle cx="93.455" cy="15.2" r="1.61" class="E J K"/><path d="M91.845 11.496h3.22v7.408h-3.22v-7.408m0 3.704a1.61 1.61 0 0 0 3.22 0 1.61 1.61 0 0 0-3.22 0z" class="D"/><circle cx="86.255" cy="15.2" r="1.61" class="E J K"/><use xlink:href="#J" x="-14.4" class="D"/><circle cx="79.054" cy="15.2" r="1.61" class="E J K"/><path d="M77.444 11.496h3.22v7.408h-3.22v-7.408m0 3.704a1.61 1.61 0 1 0 3.221 0 1.61 1.61 0 1 0-3.221 0z" class="D"/><circle cx="205.775" cy="15.2" r="1.61" class="E J K"/><use xlink:href="#H" x="61.92" class="D"/><circle cx="198.575" cy="15.2" r="1.61" class="E J K"/><use xlink:href="#I" x="61.92" class="D"/><circle cx="191.376" cy="15.2" r="1.61" class="E J K"/><use xlink:href="#K" class="D"/><circle cx="184.175" cy="15.2" r="1.61" class="E J K"/><path d="M182.563 11.496h3.222v7.408h-3.222v-7.408m0 3.704a1.61 1.61 0 0 0 1.611 1.61c.89 0 1.606-.72 1.606-1.6s-.726-1.6-1.606-1.6a1.61 1.61 0 0 0-1.611 1.61z" class="D"/><circle cx="176.975" cy="15.2" r="1.61" class="E J K"/><path d="M175.364 11.496h3.22v7.408h-3.22v-7.408m0 3.704a1.61 1.61 0 0 0 1.609 1.61 1.61 1.61 0 1 0 0-3.22 1.61 1.61 0 0 0-1.609 1.61z" class="D"/><circle cx="169.775" cy="15.2" r="1.61" class="E J K"/><use xlink:href="#H" x="25.92" class="D"/><circle cx="162.575" cy="15.2" r="1.61" class="E J K"/><use xlink:href="#I" x="25.92" class="D"/><circle cx="155.376" cy="15.2" r="1.61" class="E J K"/><use xlink:href="#K" x="-36" class="D"/><g class="E J K"><circle cx="112.175" cy="152" r="1.61"/><circle cx="104.975" cy="152" r="1.61"/></g><g class="D"><use xlink:href="#L"/><use xlink:href="#L" x="-7.199"/></g><circle cx="119.376" cy="152" r="1.61" class="E J K"/><use xlink:href="#F" x="-72" class="D"/><circle cx="126.575" cy="152" r="1.61" class="E J K"/><use xlink:href="#G" x="-72" class="D"/><circle cx="133.775" cy="152" r="1.61" class="E J K"/><use xlink:href="#C" x="-36" class="D"/><circle cx="140.975" cy="152" r="1.61" class="E J K"/><use xlink:href="#D" x="-36" class="D"/><circle cx="148.175" cy="152" r="1.61" class="E J K"/><use xlink:href="#E" x="-36" class="D"/><circle cx="155.376" cy="152" r="1.61" class="E J K"/><use xlink:href="#F" x="-36" class="D"/><path d="M100.597 37.16h106.9m-39.627 97.046h39.636" stroke="#fff" class="E h i"/><text class="B C a" x="NaN" y="NaN">POWER</text><path d="M122.975 134.206h35.913" stroke="#fff" class="E h i"/><text transform="matrix(0 -1 1 0 207.53 22.68)" class="B C N">0</text><text transform="matrix(0 -1 1 0 200.331 22.68)" class="B C N">1</text><text transform="matrix(0 -1 1 0 200.331 35.436)" class="B C N">TX0</text><text transform="matrix(0 -1 1 0 207.53 35.436)" class="B C N">RX0</text><path d="M199.913 26.007h-1.96c-.125 0-.236-.068-.297-.18a.33.33 0 0 1 .018-.347l.978-1.46c.125-.188.438-.188.563 0l.93 1.394a.35.35 0 0 1 .113.253.35.35 0 0 1-.346.338zm5.3-2.127h1.955c.125 0 .238.068.3.178s.053.244-.02.348l-.973 1.46c-.125.188-.438.188-.563 0l-.93-1.396c-.07-.063-.113-.15-.113-.252.004-.185.156-.337.343-.337zm-17.508 10.24c-.02-.55.273-.83.653-.83.23 0 .405.07.774.247.276.132.48.23.687.23.198 0 .3-.16.297-.46h.33c.027.615-.3.83-.63.83-.22 0-.418-.066-.797-.242-.258-.126-.46-.242-.66-.242s-.318.138-.33.467zm-54.04 10.948l2.28-2.478c2.966-2.656 6.307-3.64 10.13-2.03 3.618 1.524 5.575 5.294 4.788 9.14-.726 3.55-4.138 6.252-7.864 6.38-3.453.117-6.047-1.427-8.2-3.934-.33-.385-.646-.786-1.063-1.297l-.758.9c-2.313 2.913-5.187 4.567-9.047 4.32-3.785-.243-7.248-3.72-7.48-7.5-.3-4.792 3.354-8.726 8.432-8.77 3.362-.03 6 1.707 8.042 4.32l.748.95z" class="B"/><path d="M125.363 42.457c-3.496-.006-6.05 2.237-6.332 5.133-.25 2.57 1.8 5.137 4.597 5.746 2.766.6 4.977-.55 6.643-2.557 2.558-3.073 2.466-2.542.03-5.6-1.354-1.696-3.202-2.646-4.94-2.73zm17.323-.023c-.428.03-.74.02-1.04.08-2.965.6-4.824 2.568-6.22 5.082a.92.92 0 0 0-.004.757c1.262 2.183 2.838 4.053 5.348 4.84 2.433.763 4.563.132 6.24-1.735 1.504-1.675 1.846-3.656.852-5.72-1.055-2.183-2.933-3.146-5.174-3.304z" fill="#0f7391"/><g class="B"><path d="M127.864 48.583c0 .078-.063.142-.143.142h-5.168c-.078 0-.145-.064-.145-.142v-1.56c0-.078.063-.142.145-.142h5.168c.078 0 .143.064.143.142zm17.068-1.56c0-.078-.063-.142-.144-.142h-1.52c-.077 0-.144-.064-.144-.142v-1.52c0-.078-.063-.142-.142-.142h-1.563c-.078 0-.143.064-.143.142v1.52c0 .078-.063.142-.143.142h-1.52c-.078 0-.145.064-.145.142v1.56c0 .078.063.142.145.142h1.52c.078 0 .143.064.143.142v1.52c0 .078.063.142.143.142h1.563c.076 0 .142-.064.142-.142v-1.52c0-.078.063-.142.144-.142h1.52c.078 0 .144-.064.144-.142z"/><circle cx="180.191" cy="40.522" r=".568"/><circle cx="178.774" cy="40.522" r=".568"/><circle cx="177.357" cy="40.522" r=".568"/><circle cx="175.94" cy="40.522" r=".568"/><circle cx="174.523" cy="40.522" r=".568"/><circle cx="173.106" cy="40.522" r=".568"/><circle cx="171.689" cy="40.522" r=".568"/><circle cx="170.272" cy="40.522" r=".568"/><circle cx="168.854" cy="40.522" r=".568"/><circle cx="167.438" cy="40.522" r=".568"/><circle cx="166.02" cy="40.522" r=".568"/><circle cx="164.604" cy="40.522" r=".568"/><circle cx="163.186" cy="40.522" r=".568"/><circle cx="161.77" cy="40.522" r=".568"/><circle cx="180.248" cy="55.404" r=".567"/><circle cx="181.596" cy="55.137" r=".567"/><circle cx="182.874" cy="54.628" r=".568"/><circle cx="184.036" cy="53.894" r=".567"/><circle cx="185.044" cy="52.959" r=".568"/><circle cx="185.864" cy="51.855" r=".567"/><circle cx="186.468" cy="50.62" r=".567"/><circle cx="186.835" cy="49.295" r=".567"/><circle cx="186.954" cy="47.925" r=".567"/><circle cx="186.82" cy="46.557" r=".567"/><circle cx="186.436" cy="45.236" r=".567"/><circle cx="185.82" cy="44.008" r=".567"/><circle cx="184.988" cy="42.914" r=".567"/><circle cx="183.97" cy="41.99" r=".568"/><circle cx="182.8" cy="41.269" r=".568"/><circle cx="181.516" cy="40.774" r=".568"/><circle cx="180.164" cy="40.522" r=".568"/><circle cx="178.789" cy="40.522" r=".568"/><circle cx="160.216" cy="55.309" r=".568"/><circle cx="158.886" cy="55.026" r=".568"/><circle cx="157.628" cy="54.506" r=".568"/><circle cx="156.487" cy="53.765" r=".568"/><circle cx="155.5" cy="52.828" r=".568"/><circle cx="154.7" cy="51.727" r=".568"/><circle cx="154.115" cy="50.499" r=".568"/><circle cx="153.763" cy="49.185" r=".568"/><circle cx="153.656" cy="47.829" r=".568"/><path d="M153.857 45.9a.57.57 0 0 1 .505.623.57.57 0 0 1-.624.507.57.57 0 0 1-.505-.627c.033-.3.313-.537.624-.503zm.49-1.284a.57.57 0 0 1 .383.705.57.57 0 0 1-.706.385.57.57 0 0 1-.382-.708.57.57 0 0 1 .705-.382z"/><circle cx="154.802" cy="43.959" r=".568"/><circle cx="155.63" cy="42.879" r=".568"/><circle cx="156.639" cy="41.969" r=".568"/><circle cx="157.802" cy="41.258" r=".568"/><circle cx="159.071" cy="40.77" r=".568"/><circle cx="160.409" cy="40.522" r=".568"/><circle cx="161.77" cy="40.522" r=".568"/><circle cx="180.191" cy="55.454" r=".568"/><circle cx="178.774" cy="55.454" r=".568"/><circle cx="177.357" cy="55.454" r=".568"/><circle cx="175.94" cy="55.454" r=".568"/><circle cx="174.523" cy="55.454" r=".568"/><circle cx="173.106" cy="55.454" r=".568"/><circle cx="171.689" cy="55.454" r=".568"/><circle cx="170.272" cy="55.454" r=".568"/><circle cx="168.854" cy="55.454" r=".568"/><circle cx="167.438" cy="55.454" r=".568"/><circle cx="166.02" cy="55.454" r=".568"/><circle cx="164.604" cy="55.454" r=".568"/><circle cx="163.186" cy="55.454" r=".568"/><circle cx="161.77" cy="55.454" r=".568"/><path d="M161.968 52.56c-.994 0-1.742-.206-2.244-.618-.485-.4-.8-.88-.936-1.434-.07-.28-.12-.58-.15-.9l-.045-1.025V43.35h.94v5.22c0 1.183.2 2.117.572 2.498.377.375.932.563 1.664.563.738 0 1.494-.188 1.87-.563.38-.38.572-1.314.572-2.498v-5.22h.96v5.236c0 1.088-.125 1.896-.377 2.424-.5 1.035-1.32 1.552-2.825 1.552zm12.086-.16h-.944l-4.742-7.433v7.446h-.797V43.35h.88l4.66 7.455V43.35h.944zm5.66-9.27a3.67 3.67 0 0 1 1.594.346c.488.23.906.555 1.256.975s.623.926.818 1.517.295 1.247.295 1.968-.1 1.376-.295 1.966-.468 1.1-.818 1.52a3.64 3.64 0 0 1-1.256.979 3.67 3.67 0 0 1-1.594.345c-.58 0-1.113-.115-1.602-.345s-.904-.557-1.258-.98-.63-.93-.823-1.52a6.3 6.3 0 0 1-.294-1.966c0-.72.1-1.377.294-1.968s.47-1.097.823-1.517a3.7 3.7 0 0 1 1.258-.975c.486-.23 1.022-.346 1.602-.346zm-.006 8.56c.4 0 .8-.085 1.135-.256s.646-.418.896-.74.447-.716.588-1.18.2-1 .2-1.58a5.48 5.48 0 0 0-.21-1.582 3.62 3.62 0 0 0-.585-1.18c-.25-.324-.545-.568-.888-.736a2.55 2.55 0 0 0-1.125-.252 2.59 2.59 0 0 0-1.141.252 2.54 2.54 0 0 0-.904.732c-.254.32-.45.713-.596 1.178s-.216.995-.216 1.586.07 1.117.214 1.58.336.856.588 1.18.55.57.896.74a2.55 2.55 0 0 0 1.138.257z"/></g><path d="M166.177 148.4h43.2v7.2h-43.2z" class="W"/><use xlink:href="#M"/><path d="M167.36 149.584l1.024 1.025h2.785l1.023-1.025z" class="F"/><path d="M172.192 149.584l-1.023 1.03v2.78l1.023 1.023z" class="G"/><path d="M172.192 154.417l-1.025-1.023h-2.783l-1.024 1.023z" class="H"/><use xlink:href="#N" class="I"/><use xlink:href="#M" x="7.201"/><path d="M174.56 149.584l1.026 1.025h2.78l1.025-1.025z" class="F"/><path d="M179.39 149.584l-1.025 1.03v2.78l1.025 1.023z" class="G"/><path d="M179.39 154.417l-1.025-1.023h-2.78l-1.026 1.023z" class="H"/><path d="M174.557 154.417l1.028-1.025v-2.783l-1.028-1.025z" class="I"/><use xlink:href="#M" x="14.4"/><use xlink:href="#O" class="F"/><use xlink:href="#P" class="G"/><path d="M186.593 154.417l-1.026-1.023h-2.783l-1.023 1.023z" class="H"/><use xlink:href="#Q" class="I"/><use xlink:href="#M" x="21.601"/><use xlink:href="#O" x="7.202" class="F"/><use xlink:href="#P" x="7.201" class="G"/><path d="M193.792 154.417l-1.026-1.023h-2.78l-1.023 1.023z" class="H"/><path d="M188.958 154.417l1.027-1.025v-2.783l-1.027-1.025z" class="I"/><use xlink:href="#M" x="28.8"/><path d="M196.16 149.584l1.023 1.025h2.784l1.025-1.025z" class="F"/><path d="M200.993 149.584l-1.025 1.03v2.78l1.025 1.023z" class="G"/><path d="M200.99 154.417l-1.023-1.023h-2.784l-1.023 1.023z" class="H"/><use xlink:href="#Q" x="14.4" class="I"/><use xlink:href="#M" x="36"/><path d="M203.36 149.584l1.024 1.025h2.785l1.023-1.025z" class="F"/><path d="M208.192 149.584l-1.023 1.03v2.78l1.023 1.023z" class="G"/><path d="M208.192 154.417l-1.025-1.023h-2.783l-1.024 1.023z" class="H"/><use xlink:href="#N" x="36" class="I"/><g transform="matrix(0 -1 1 0 202.479 90.044)"><path d="M20.748 12.86V1.654L19.236.143h-3.93l-1.5 1.5V12.86l1.5 1.5h3.93zm-7.182 0V1.654l-1.5-1.5h-3.93L6.6 1.654V12.86l1.514 1.5h3.932zm-7.176 0V1.654L4.877.143H.942l-1.507 1.5V12.86l1.507 1.5h3.935z" class="W"/><g fill="#8d8c8c"><path d="M1.898 2.555h2.298v2.3H1.898z" transform="rotate(270 3.045 3.701)"/><path d="M1.9 9.754h2.297v2.3H1.9z" transform="rotate(270 3.045 10.9)"/><path d="M9.097 2.556h2.3v2.298h-2.3z" transform="rotate(270 10.244 3.701)"/><path d="M9.098 9.755h2.297v2.298H9.098z" transform="rotate(270 10.244 10.9)"/><path d="M16.297 2.556h2.297v2.298h-2.297z" transform="rotate(270 17.442 3.7)"/></g><path d="M16.297 9.755h2.297v2.298h-2.297z" fill="#8d8455" transform="rotate(270 17.442 10.9)"/><path d="M16.852 10.314h1.185v1.183h-1.185z" transform="rotate(270 17.442 10.902)" class="P"/><path d="M18.594 9.748l-.56.558v1.18l.56.56z" class="Q"/><path d="M16.855 11.486h1.18l.56.56h-2.297z" class="R"/><path d="M16.855 10.306v1.18l-.558.56V9.748z" class="S"/><path d="M18.594 9.748l-.56.558h-1.18l-.558-.558z" class="D"/><path d="M16.853 3.113h1.185v1.183h-1.185z" transform="rotate(270 17.443 3.7)" class="P"/><path d="M18.594 2.55l-.56.557v1.18l.56.558z" class="Q"/><path d="M16.855 4.287h1.18l.56.558h-2.297z" class="R"/><path d="M16.855 3.107v1.18l-.558.558V2.55z" class="S"/><path d="M18.594 2.55l-.56.557h-1.18l-.558-.557z" class="D"/><path d="M9.656 10.314h1.185v1.184H9.656z" transform="rotate(270 10.244 10.902)" class="P"/><path d="M11.396 9.748l-.557.558v1.18l.557.56z" class="Q"/><path d="M9.655 11.486h1.184l.557.56H9.1z" class="R"/><path d="M9.655 10.306v1.18l-.556.56V9.748z" class="S"/><path d="M11.396 9.748l-.557.558H9.655L9.1 9.748z" class="D"/><path d="M9.655 3.112h1.185v1.184H9.655z" transform="rotate(270 10.243 3.7)" class="P"/><path d="M11.396 2.55l-.557.557v1.18l.557.558z" class="Q"/><path d="M9.655 4.287h1.184l.557.558H9.1z" class="R"/><path d="M9.655 3.107v1.18l-.556.558V2.55z" class="S"/><path d="M11.396 2.55l-.557.557H9.655L9.1 2.55z" class="D"/><path d="M2.454 10.313h1.184v1.185H2.454z" transform="rotate(270 3.043 10.902)" class="P"/><path d="M4.196 9.748l-.557.558v1.18l.557.56z" class="Q"/><path d="M2.454 11.486H3.64l.557.56H1.9z" class="R"/><path d="M2.454 10.306v1.18l-.555.56V9.748z" class="S"/><path d="M4.196 9.748l-.557.558H2.454L1.9 9.748z" class="D"/><path d="M2.455 3.11H3.64v1.187H2.455z" transform="rotate(270 3.043 3.7)" class="P"/><path d="M4.196 2.55l-.557.557v1.18l.557.56z" class="Q"/><path d="M2.454 4.287H3.64l.557.56H1.9z" class="R"/><path d="M2.454 3.107v1.18l-.555.56V2.55z" class="S"/><path d="M4.196 2.55l-.557.557H2.454L1.9 2.55z" class="D"/></g><g transform="matrix(-1 0 0 -1 88.884 35.178)"><path d="M21.925 12.62V1.413l-1.5-1.5h-3.93l-1.5 1.5V12.62l1.5 1.512h3.93zm-7.182 0V1.413l-1.5-1.5h-3.93L7.8 1.413V12.62l1.513 1.512h3.932zm-7.177 0V1.413L6.054-.098H2.12l-1.5 1.5V12.62l1.5 1.512h3.933z" class="W"/><path d="M3.073 2.3h2.3v2.3h-2.3zm0 7.2h2.3v2.298h-2.3zm7.2-7.2h2.298v2.3h-2.298zm0 7.2h2.298v2.298h-2.298zm7.198-7.2h2.298v2.3H17.47z" fill="#8d8c8c"/><path d="M17.47 9.5h2.298v2.298H17.47z" fill="#8d8455"/><path d="M18.028 10.07h1.183v1.184h-1.183z" class="P"/><path d="M19.77 9.5l-.56.56v1.18l.56.558z" class="Q"/><path d="M18.028 11.25h1.18l.56.558h-2.3z" class="R"/><path d="M18.028 10.07v1.18l-.558.558V9.5z" class="S"/><path d="M19.77 9.5l-.56.56h-1.18l-.558-.56z" class="D"/><path d="M18.028 2.87h1.183V4.05h-1.183z" class="P"/><path d="M19.77 2.31l-.56.558v1.18l.56.558z" class="Q"/><path d="M18.028 4.05h1.18l.56.558h-2.3z" class="R"/><path d="M18.028 2.87v1.18l-.558.558V2.31z" class="S"/><path d="M19.77 2.31l-.56.558h-1.18l-.558-.558z" class="D"/><path d="M10.83 10.07h1.184v1.184H10.83z" class="P"/><path d="M12.57 9.5l-.557.56v1.18l.557.558z" class="Q"/><path d="M10.83 11.25h1.183l.557.558h-2.297z" class="R"/><path d="M10.83 10.07v1.18l-.557.558V9.5z" class="S"/><path d="M12.57 9.5l-.557.56H10.83l-.557-.56z" class="D"/><path d="M10.83 2.87h1.184V4.05H10.83z" class="P"/><path d="M12.57 2.31l-.557.558v1.18l.557.558z" class="Q"/><path d="M10.83 4.05h1.183l.557.558h-2.297z" class="R"/><path d="M10.83 2.87v1.18l-.557.558V2.31z" class="S"/><path d="M12.57 2.31l-.557.558H10.83l-.557-.558z" class="D"/><path d="M3.628 10.07h1.185v1.184H3.628z" class="P"/><path d="M5.37 9.5l-.558.56v1.18l.558.558z" class="Q"/><path d="M3.628 11.25h1.185l.558.558H3.073z" class="R"/><path d="M3.628 10.07v1.18l-.555.558V9.5z" class="S"/><path d="M5.37 9.5l-.558.56H3.628l-.555-.56z" class="D"/><path d="M3.628 2.87h1.185V4.05H3.628z" class="P"/><path d="M5.37 2.31l-.558.558v1.18l.558.558z" class="Q"/><path d="M3.628 4.05h1.185l.558.558H3.073z" class="R"/><path d="M3.628 2.87v1.18l-.555.558V2.31z" class="S"/><path d="M5.37 2.31l-.558.558H3.628l-.555-.558z" class="D"/></g><g transform="matrix(-1 0 0 -1 210.095 18.572)"><path d="M.72-.228h57.6v7.2H.72z" class="W"/><path d="M53.33 1.98h2.78v2.782h-2.78z"/><path d="M57.135 5.787l-1.022-1.025H53.33l-1.028 1.025z" class="F"/><path d="M52.303 5.787L53.33 4.76v-2.78L52.303.955z" class="G"/><path d="M52.304.955l1.027 1.023h2.782L57.135.955z" class="H"/><path d="M57.137.955L56.113 1.98v2.782l1.024 1.025z" class="I"/><path d="M46.13 1.98h2.78v2.782h-2.78z"/><path d="M49.937 5.787l-1.024-1.025h-2.785l-1.025 1.025z" class="F"/><path d="M45.103 5.787l1.025-1.028v-2.78L45.103.955z" class="G"/><path d="M45.105.955l1.025 1.023h2.783L49.937.955z" class="H"/><path d="M49.94.955L48.913 1.98v2.782l1.026 1.025z" class="I"/><path d="M38.928 1.98h2.78v2.782h-2.78z"/><path d="M42.736 5.787l-1.024-1.025h-2.784l-1.024 1.025z" class="F"/><path d="M37.904 5.787l1.024-1.028v-2.78L37.904.955z" class="G"/><path d="M37.907.955l1.022 1.023h2.783L42.736.955z" class="H"/><path d="M42.738.955L41.712 1.98v2.782l1.026 1.025z" class="I"/><path d="M31.728 1.98h2.78v2.782h-2.78z"/><path d="M35.538 5.787L34.5 4.762h-2.782l-1.022 1.025z" class="F"/><path d="M30.706 5.787l1.022-1.028v-2.78L30.706.955z" class="G"/><path d="M30.706.955l1.024 1.023h2.78L35.538.955z" class="H"/><path d="M35.54.955L34.5 1.98v2.782l1.03 1.025z" class="I"/><path d="M24.53 1.98h2.78v2.782h-2.78z"/><path d="M28.335 5.787l-1.023-1.025H24.53l-1.026 1.025z" class="F"/><path d="M23.503 5.787L24.53 4.76v-2.78L23.503.955z" class="G"/><path d="M23.505.955l1.027 1.023h2.78L28.335.955z" class="H"/><path d="M28.337.955L27.312 1.98v2.782l1.025 1.025z" class="I"/><path d="M17.33 1.98h2.78v2.782h-2.78z"/><path d="M21.135 5.787l-1.022-1.025H17.33l-1.028 1.025z" class="F"/><path d="M16.303 5.787L17.33 4.76v-2.78L16.303.955z" class="G"/><path d="M16.304.955l1.027 1.023h2.782L21.135.955z" class="H"/><path d="M21.137.955L20.113 1.98v2.782l1.024 1.025z" class="I"/><path d="M10.13 1.98h2.78v2.782h-2.78z"/><path d="M13.937 5.787l-1.024-1.025h-2.785L9.103 5.787z" class="F"/><path d="M9.103 5.787l1.025-1.028v-2.78L9.103.955z" class="G"/><path d="M9.105.955l1.025 1.023h2.783L13.937.955z" class="H"/><path d="M13.94.955L12.913 1.98v2.782l1.026 1.025z" class="I"/><path d="M2.928 1.98h2.78v2.782h-2.78z"/><path d="M6.736 5.787L5.712 4.762H2.928L1.904 5.787z" class="F"/><path d="M1.904 5.787L2.928 4.76v-2.78L1.904.955z" class="G"/><path d="M1.907.955L2.93 1.978h2.783L6.736.955z" class="H"/><path d="M6.738.955L5.712 1.98v2.782l1.026 1.025z" class="I"/></g><g transform="matrix(0 -1 1 0 138.833 20.172)"><path d="M-25.658-36.11h7.348v3.833h-7.348z" transform="rotate(270 -21.988 -34.198)" class="U"/><path d="M-23.902-33.13s.467.645.426.867.148.54 0 .676l-.424-.018z" class="c d"/><path d="M-22.382-34.748h.854v.96h-.854z" transform="rotate(270 -21.959 -34.27)" class="B"/><path d="M-22.863-34.3h.854v.05h-.854z" transform="rotate(270 -22.44 -34.269)" class="X"/><g class="T"><path d="M-23.476-32.55l-.106.964h.733l-.105-.964z"/><path d="M-23.28-32.488c.035-.274.104-.455.162-.606.08-.2.782-.56.696-.828-.012-.027.01-.06.043-.066s.068.01.078.04c.095.305-.617.674-.7.893-.06.148-.123.318-.155.572-.004.03-.033.055-.068.05s-.055-.025-.055-.053zm2.68-3.482l.103-.964h-.73l.103.964z"/><use xlink:href="#R"/><path d="M-22.127-33.845s.002-.356-.31-.383v.383z"/><use xlink:href="#S"/></g><g class="e"><use xlink:href="#T"/><path d="M-21.17-35.97l-.103-.964h.055l.103.964z"/><use xlink:href="#U"/><path d="M-22.492-34.227v.38h.057v-.38zm.312-.243c-.08.063-.076.13-.03.238h.06c-.05-.107-.052-.18.028-.24z"/></g><path d="M-22.205-34.308h4.223v.05h-4.223z" transform="rotate(270 -20.097 -34.284)" class="B M"/><path d="M-20.07-36.916h-3.83v5.317l3.83.004z" class="M U"/><path d="M-20.72-36.866h.27c.15.018.27-.012.27.098v4.854c0 .168-.065.176-.065-.012v-4.346c0-.457-.105-.518-.197-.518l-.272.002c-.182 0-.182-.078-.008-.078z" class="B f"/><path d="M-23.678-31.74c-.068 0-.138.012-.138-.098v-4.817c0-.168.065-.176.065.008v3.59a15.6 15.6 0 0 0 .071 1.318z" class="g"/><path d="M-23.902-37.874v.77h.52c.125 0 .213.08.268.188h3.047v-1H-23.9" class="T"/><path d="M-20.596-37.443h1.006v.052h-1.006z" transform="rotate(270 -20.097 -37.419)" class="B M"/><path d="M-23.902-30.53h3.833v-1.07h-3.464c-.056.104-.146.19-.27.19h-.1v.83" class="T"/><path d="M-20.628-31.084h1.072v.052h-1.072z" transform="rotate(270 -20.096 -31.062)" class="B M"/></g><g transform="matrix(0 -1 1 0 223.576 36.012)"><path d="M-23.29-31.546h7.35v3.833h-7.35z" transform="rotate(270 -19.62 -29.632)" class="U"/><path d="M-21.533-28.56s.467.646.426.865.148.54 0 .678l-.424-.02z" class="c d"/><path d="M-20.017-30.18h.854v.96h-.854z" transform="rotate(270 -19.592 -29.703)" class="B"/><path d="M-20.497-29.724h.854v.05h-.854z" transform="rotate(270 -20.073 -29.703)" class="X"/><g class="T"><path d="M-21.11-27.98l-.104.963h.73l-.104-.963z"/><path d="M-20.9-27.92c.035-.277.104-.455.162-.6.08-.2.782-.56.696-.826-.012-.026.01-.063.043-.065.035-.008.068.01.078.04.095.306-.617.674-.7.894a2.1 2.1 0 0 0-.155.571c-.004.03-.033.056-.068.05s-.055-.028-.055-.054zm2.68-3.48l.103-.967h-.73l.103.967z"/><path d="M-19.742-29.75c0-.025.02-.05.047-.055.292-.063 1.152-1.088 1.152-1.885 0-.033.026-.062.063-.062s.063.022.063.062v.002c0 .748-.77 1.9-1.245 1.992-.035.008-.068-.016-.078-.04zm-.016.472s.002-.354-.3-.383v.383z"/><path d="M-19.44-29.712s-.306.157-.35.054-.052-.18.028-.24.323.186.323.186z"/></g><g class="e"><path d="M-20.107-29.354c.084.27-.618.617-.698.826a2.25 2.25 0 0 0-.162.6h.06c.035-.27.104-.447.162-.6.08-.2.782-.56.696-.826zM-18.8-31.4l-.103-.967h.055l.103.967z"/><path d="M-19.752-29.805c.3-.063 1.212-1.07 1.15-1.885h.06c.06.877-.86 1.824-1.152 1.888zm-.373.145v.38h.057v-.38z"/><path d="M-19.814-29.9c-.08.063-.076.13-.03.237l.06.003c-.05-.107-.052-.18.028-.24z"/></g><path d="M-19.84-29.738h4.225v.05h-4.225z" transform="rotate(270 -17.73 -29.717)" class="B M"/><path d="M-17.7-32.35h-3.83v5.316l3.83.004z" class="M U"/><path d="M-18.352-32.298h.27c.15.02.27-.013.27.1v4.854c0 .168-.065.176-.065-.014v-4.348c0-.457-.105-.52-.197-.52l-.272.004c-.182 0-.182-.075-.008-.075z" class="B f"/><path d="M-21.31-27.17c-.068 0-.138.013-.138-.1v-4.817c0-.168.065-.177.065.01l.002 3.6c.001.593.07 1.317.07 1.317z" class="g"/><path d="M-21.533-33.31v.77h.52c.125 0 .213.08.268.188h3.047v-1h-3.834" class="T"/><path d="M-18.23-32.873h1.007v.052h-1.007z" transform="rotate(270 -17.728 -32.852)" class="B M"/><path d="M-21.533-25.96h3.833v-1.07h-3.464c-.056.104-.146.2-.27.2h-.1v.83" class="T"/><path d="M-18.26-26.517h1.07v.052h-1.07z" transform="rotate(270 -17.729 -26.495)" class="B M"/></g><g transform="matrix(0 1 -1 0 107.311 123.065)"><g fill="#ccc"><path d="M-.167-10.702h1.272v1.04H-.167z" transform="rotate(90 .521 9.203)"/><path d="M19.22 28.08h1.272v1.037H19.22z" transform="rotate(90 19.911 9.204)"/></g><path d="M-.706-10.165h.203v1.04h-.203z" transform="rotate(90 .521 9.74)" class="V"/><path d="M18.682 28.616h.203v1.037h-.203z" transform="rotate(90 19.911 9.74)" class="V"/><g class="B"><path d="M1.435-11.236h.204v1.04h-.204z" transform="rotate(90 .521 8.669)" class="L"/><path d="M20.822 27.545h.204v1.037h-.204z" transform="rotate(90 19.911 8.67)" class="L"/></g><use xlink:href="#V" fill="#1a1a1a"/><circle cx="10.211" cy="9.178" r="8.703" class="Y"/><use xlink:href="#V" fill="#333"/><path d="M1.036 3.997l3.81-3.81h13.156a1.39 1.39 0 0 1 1.385 1.387V1.39A1.39 1.39 0 0 0 18.003.002H4.845l-3.8 3.81v.184z"/><path d="M19.386 16.785a1.39 1.39 0 0 1-1.385 1.384H4.844l-3.81-3.807v.183l3.81 3.808H18a1.39 1.39 0 0 0 1.385-1.383z" class="B V"/><use xlink:href="#W" class="Y"/><path d="M18.915 9.178c0-2.926-1.45-5.51-3.664-7.088v14.175c2.214-1.577 3.664-4.16 3.664-7.087z"/><g class="B"><use xlink:href="#X" opacity=".3"/><use xlink:href="#Y" class="M"/></g><path d="M15.25 2.32C13.826 1.307 12.092.704 10.21.704 5.406.704 1.51 4.602 1.51 9.407v-.23C1.51 4.373 5.406.475 10.21.475A8.67 8.67 0 0 1 15.25 2.09z" class="L"/></g><g transform="matrix(0 1 -1 0 87.151 123.065)"><g fill="#ccc"><path d="M-.168-10.702h1.272v1.038H-.168z" transform="rotate(90 .521 9.203)"/><path d="M19.22 28.078h1.272v1.037H19.22z" transform="rotate(90 19.911 9.204)"/></g><path d="M-.707-10.165h.203v1.04h-.203z" transform="rotate(90 .521 9.74)" class="V"/><path d="M18.683 28.615h.203v1.037h-.203z" transform="rotate(90 19.911 9.74)" class="V"/><g class="B"><path d="M1.435-11.237h.204v1.04h-.204z" transform="rotate(90 .521 8.669)" class="L"/><path d="M20.822 27.544h.204v1.037h-.204z" transform="rotate(90 19.911 8.67)" class="L"/></g><use xlink:href="#Z" fill="#1a1a1a"/><circle cx="10.212" cy="9.178" r="8.703" class="Y"/><use xlink:href="#Z" fill="#333"/><path d="M1.037 3.997l3.81-3.81h13.156a1.39 1.39 0 0 1 1.385 1.387V1.39A1.39 1.39 0 0 0 18.004.002H4.847l-3.8 3.81z"/><path d="M19.387 16.785a1.39 1.39 0 0 1-1.385 1.384H4.845l-3.81-3.807v.183l3.81 3.808h13.157a1.39 1.39 0 0 0 1.385-1.383z" class="B V"/><use xlink:href="#W" x="0.002" class="Y"/><path d="M18.915 9.178c0-2.926-1.45-5.51-3.664-7.088v14.175a8.68 8.68 0 0 0 3.664-7.087z"/><g class="B"><use xlink:href="#X" x="-0.01" opacity=".3"/><use xlink:href="#Y" class="M"/></g><path d="M15.25 2.32C13.827 1.307 12.093.704 10.212.704 5.407.704 1.5 4.602 1.5 9.407v-.23C1.5 4.373 5.407.475 10.212.475a8.67 8.67 0 0 1 5.039 1.615z" class="L"/></g><path d="M101.375 148.4h57.6v7.2h-57.6z" class="W"/><use xlink:href="#M" x="-64.801"/><use xlink:href="#O" x="-79.2" class="F"/><use xlink:href="#P" x="-79.201" class="G"/><path d="M107.39 154.417l-1.026-1.023h-2.782l-1.023 1.023z" class="H"/><use xlink:href="#Q" x="-79.202" class="I"/><use xlink:href="#M" x="-57.601"/><path d="M109.76 149.584l1.024 1.025h2.784l1.026-1.025z" class="F"/><use xlink:href="#P" x="-72" class="G"/><path d="M114.59 154.417l-1.025-1.023h-2.783l-1.024 1.023z" class="H"/><use xlink:href="#N" x="-57.601" class="I"/><use xlink:href="#M" x="-50.4"/><path d="M116.96 149.584l1.024 1.025h2.784l1.024-1.025z" class="F"/><path d="M121.79 149.584l-1.024 1.03v2.78l1.024 1.023z" class="G"/><path d="M121.8 154.417l-1.025-1.023h-2.782l-1.024 1.023z" class="H"/><use xlink:href="#N" x="-50.401" class="I"/><use xlink:href="#M" x="-43.201"/><path d="M124.158 149.584l1.025 1.025h2.785l1.022-1.025z" class="F"/><path d="M129 149.584l-1.022 1.03v2.78l1.022 1.023z" class="G"/><path d="M129 154.417l-1.024-1.023h-2.783l-1.025 1.023z" class="H"/><path d="M124.156 154.417l1.027-1.025v-2.783l-1.027-1.025z" class="I"/><use xlink:href="#M" x="-36"/><path d="M131.358 149.584l1.026 1.025h2.782l1.024-1.025z" class="F"/><path d="M136.2 149.584l-1.024 1.03v2.78l1.024 1.023z" class="G"/><path d="M136.2 154.417l-1.025-1.023h-2.78l-1.026 1.023z" class="H"/><path d="M131.356 154.417l1.028-1.025v-2.783l-1.028-1.025z" class="I"/><use xlink:href="#M" x="-28.801"/><path d="M138.56 149.584l1.023 1.025h2.782l1.027-1.025z" class="F"/><path d="M143.392 149.584l-1.027 1.03v2.78l1.027 1.023z" class="G"/><path d="M143.4 154.417l-1.025-1.023h-2.782l-1.023 1.023z" class="H"/><use xlink:href="#Q" x="-43.202" class="I"/><use xlink:href="#M" x="-21.601"/><path d="M145.76 149.584l1.024 1.025h2.782l1.028-1.025z" class="F"/><path d="M150.593 149.584l-1.028 1.03v2.78l1.028 1.023z" class="G"/><path d="M150.59 154.417l-1.026-1.023h-2.782l-1.024 1.023z" class="H"/><use xlink:href="#N" x="-21.601" class="I"/><use xlink:href="#M" x="-14.4"/><path d="M152.96 149.584l1.024 1.025h2.784l1.024-1.025z" class="F"/><path d="M157.79 149.584l-1.024 1.03v2.78l1.024 1.023z" class="G"/><path d="M157.8 154.417l-1.025-1.023h-2.782l-1.024 1.023z" class="H"/><use xlink:href="#N" x="-14.401" class="I"/><g transform="matrix(0 1 -1 0 71.116 81.51)"><path d="M-23.292-35.322h7.348v3.833h-7.348z" transform="rotate(90 -19.62 -33.409)" class="U"/><path d="M-21.54-32.333s.467.645.426.867.148.54 0 .676l-.424-.018z" class="c d"/><path d="M-20.016-33.957h.854v.96h-.854z" transform="rotate(90 -19.591 -33.479)" class="B"/><path d="M-20.497-33.503h.854v.05h-.854z" transform="rotate(90 -20.072 -33.481)" class="X"/><g class="T"><path d="M-21.115-31.753l-.104.963h.73l-.104-.963z"/><path d="M-20.918-31.692c.035-.274.104-.455.162-.606.08-.2.782-.56.696-.828-.012-.027.01-.06.043-.066s.068.01.078.04c.095.305-.617.674-.7.893-.06.148-.123.318-.155.572-.004.03-.033.055-.068.05s-.055-.026-.055-.053zm2.688-3.48l.103-.966h-.73l.103.966z"/><use xlink:href="#R" x="2.36" y="0.796"/><path d="M-19.766-33.05s.002-.356-.31-.383v.383z"/><use xlink:href="#S" x="2.36" y="0.795"/></g><g class="e"><use xlink:href="#T" x="2.361" y="0.796"/><path d="M-18.808-35.173l-.1-.966h.053l.103.966z"/><use xlink:href="#U" x="2.36" y="0.793"/><path d="M-20.133-33.433v.38h.057v-.38zm.313-.24c-.08.063-.076.13-.03.238l.06.002c-.05-.107-.052-.18.028-.24z"/></g><path d="M-19.838-33.517h4.223v.05h-4.223z" transform="rotate(90 -17.729 -33.493)" class="B M"/><path d="M-17.708-36.122h-3.83v5.317l3.83.004z" class="M U"/><use xlink:href="#a" class="B f"/><path d="M-21.32-30.944c-.068 0-.138.012-.138-.098v-4.817c0-.168.065-.176.065.008l.002 3.59.07 1.318z" class="g"/><path d="M-21.54-37.08v.77h.52c.125 0 .213.08.268.188h3.047v-1h-3.834" class="T"/><path d="M-18.23-36.653h1.006v.052h-1.006z" transform="rotate(90 -17.728 -36.628)" class="B M"/><path d="M-21.54-29.733h3.833v-1.072h-3.464c-.056.105-.146.19-.27.19h-.1v.83" class="T"/><path d="M-18.262-30.296h1.072v.052h-1.072z" transform="rotate(90 -17.728 -30.272)" class="B M"/></g><g transform="matrix(0 1 -1 0 71.116 75.03)"><path d="M-23.292-35.322h7.348v3.833h-7.348z" transform="rotate(90 -19.621 -33.409)" class="U"/><path d="M-21.54-32.333s.467.645.426.867.148.54 0 .676l-.424-.018z" class="c d"/><path d="M-20.016-33.957h.854v.96h-.854z" transform="rotate(90 -19.591 -33.479)" class="B"/><path d="M-20.498-33.5h.854v.05h-.854z" transform="rotate(90 -20.073 -33.479)" class="X"/><g class="T"><path d="M-21.115-31.753l-.104.963h.73l-.104-.963z"/><path d="M-20.918-31.692c.035-.274.104-.455.162-.606.08-.2.782-.56.696-.828-.012-.027.01-.06.043-.066s.068.01.078.04c.095.305-.617.674-.7.893-.06.148-.123.318-.155.572-.004.03-.033.055-.068.05s-.055-.026-.055-.053zm2.688-3.48l.103-.966h-.73l.103.966z"/><use xlink:href="#R" x="2.36" y="0.796"/><path d="M-19.764-33.05s.002-.356-.31-.383v.383z"/><use xlink:href="#S" x="2.361" y="0.795"/></g><g class="e"><use xlink:href="#T" x="2.361" y="0.796"/><path d="M-18.806-35.173l-.104-.966h.054l.103.966z"/><use xlink:href="#U" x="2.362" y="0.793"/><path d="M-20.13-33.433v.38h.057v-.38zm.3-.24c-.08.063-.076.13-.03.238l.06.002c-.05-.107-.052-.18.028-.24z"/></g><path d="M-19.84-33.516h4.223v.05h-4.223z" transform="rotate(90 -17.73 -33.492)" class="B M"/><path d="M-17.708-36.122h-3.83v5.317l3.83.004z" class="M U"/><use xlink:href="#a" class="B f"/><path d="M-21.317-30.944c-.068 0-.138.012-.138-.098v-4.817c0-.168.065-.176.065.008l.002 3.59a16.6 16.6 0 0 0 .071 1.318z" class="g"/><path d="M-21.54-37.08v.77h.52c.125 0 .213.08.268.188h3.047v-1h-3.834" class="T"/><path d="M-18.23-36.653h1.006v.052h-1.006z" transform="rotate(90 -17.729 -36.629)" class="B M"/><path d="M-21.54-29.733h3.833v-1.072h-3.464c-.056.105-.146.19-.27.19h-.1v.83" class="T"/><path d="M-18.262-30.294h1.072v.052h-1.072z" transform="rotate(90 -17.729 -30.272)" class="B M"/></g><g transform="matrix(0 1 -1 0 58.628 85.714)"><g fill="#999"><path d="M28.274 1.913h4.896V5.37h-4.896z" transform="rotate(90 30.72 3.638)"/><path d="M21.72 1.913h4.896v3.46H21.72z" transform="rotate(90 24.165 3.639)"/><path d="M15.164 1.914h4.896V5.37h-4.896z" transform="rotate(90 17.61 3.638)"/></g><g class="B"><path d="M30.65-.462h.146v3.458h-.146z" transform="rotate(90 30.72 1.263)" class="L"/><path d="M24.094-.462h.146v3.46h-.146z" transform="rotate(90 24.165 1.264)" class="L"/><path d="M17.54-.46h.146v3.455h-.146z" transform="rotate(90 17.61 1.263)" class="L"/></g><path d="M21.523 13.57h5.285v10.207h-5.285z" fill="#999" transform="rotate(90 24.164 18.671)"/><path d="M24.085 16.133h.16V26.34h-.16z" transform="rotate(90 24.164 21.233)" class="B L"/><path d="M19.196 1.482h9.943v19.16h-9.943z" fill="#303030" transform="rotate(90 24.166 11.058)"/><path d="M33.744 16.03H14.582l.72-.72h17.72zm0-9.942H14.582l.72.723h17.72z" fill="#1f1f1f"/><path d="M33.744 16.03V6.088l-.723.723v8.5z"/><path d="M14.582 16.03V6.088l.72.723v8.5z" fill="#3d3d3d"/><circle cx="31.582" cy="8.251" r=".72" fill="#1f1f1f"/></g><g transform="matrix(-1 0 0 -1 -75.599 175.059)"><path d="M-134.003 26.13h32.972v23.732h-32.972z" fill="#232323"/><path d="M-133.572 47.644h31.937V49.3h-31.937z" fill="#494949"/><path d="M-133.57 42.273h31.936v5.37h-31.936z" fill="#3d3d3d" fill-opacity=".3"/><path d="M-133.572 26.648h32.973v1.62h-32.973z"/><path d="M-133.572 28.22h32.973v5.826h-32.973z" fill="#0f0f0f" fill-opacity=".4"/><path d="M-134.003 26.133h.592v23.73h-.592z" class="L"/><path d="M-131.193 26.13v23.732" stroke="#000" stroke-width=".25" class="E M j"/><path d="M-104.53 26.11h1.287v23.73h-1.287z" opacity=".25"/><use xlink:href="#b" opacity=".25" stroke="#565656" stroke-width=".25" class="j"/><g fill="#232323"><use xlink:href="#b"/><path d="M-104.25 25.242h7.688v25.514h-7.688z"/></g><path d="M-135.705 35.142h1.7v5.713h-1.7z" fill="#6d6d6d"/><path d="M-134.977 32.387h.976v11.226h-.976zm31.453 16.903h6.266v1.05h-6.266z" fill="#494949"/><path d="M-103.524 25.603h6.267v1.05h-6.267z"/></g><g transform="matrix(0 -1 1 0 13.094 73.989)"><path d="M43.103 14.3v2.956H39.03l-.002-4.884h3.17c.502 0 .908.406.908.907l-.002 1.02z" fill="#999"/><path d="M43.103 13.19h-4.076v-.807h3.318c.403 0 .758.56.758.807z" fill="gray"/><path d="M4.45 4.577h36.682v32.48H4.45z" transform="rotate(270 22.79 20.814)" class="X"/><path d="M19.01-17.546h7.565v32.48H19.01z" fill="#999" transform="rotate(270 22.79 -1.309)"/><path d="M-14.548 16.012H29.7v2.046h-44.247z" fill="#ccc" transform="rotate(270 7.574 17.032)" class="M"/><path d="M15.885 16.01h44.247v2.047H15.885z" transform="rotate(270 38.006 17.032)" class="L"/><path d="M2.476 14.308v2.956h4.077V12.38H3.38c-.502 0-.905.406-.905.907z" class="X"/><path d="M2.476 13.187h4.077v-.807h-3.32c-.404 0-.758.56-.758.807z" class="Y"/></g><g transform="matrix(0 -1 1 0 17.363 30.776)"><g fill="#ccc"><path d="M3.23 35.772h15.98V15.015H3.23v6.247h.368v8.264H3.23z"/><path d="M21.768 15.015H5.908v20.757h15.86v-6.246h-.37v-8.264h.37z"/></g><circle cx="12.496" cy="25.395" r="5.117" fill="#641d1c"/><path d="M12.746 30.5c2.827 0 5.118-2.29 5.118-5.114a5.12 5.12 0 0 0-5.118-5.12h-.25a5.12 5.12 0 0 1 5.118 5.12c0 2.825-2.29 5.114-5.118 5.114z" class="L"/><g fill="#852725"><circle cx="12.497" cy="25.395" r="4.93"/><circle cx="12.381" cy="25.395" r="4.929"/></g><path d="M7.568 25.512a4.93 4.93 0 1 0 9.86 0v-.233a4.93 4.93 0 1 1-9.86 0z" class="V"/><g class="B"><path d="M17.427 25.512a4.93 4.93 0 1 0-9.86 0v-.233a4.93 4.93 0 1 1 9.86 0z" class="L"/><path d="M.29 17.954H6.54v.37H.29z" transform="rotate(270 3.413 18.138)" class="L"/><path d="M.293 32.465h6.244v.37H.293z" transform="rotate(270 3.413 32.649)" class="L"/><path d="M-.352 25.212h8.266v.368H-.352z" transform="rotate(270 3.779 25.393)" class="L"/></g><path d="M18.446 17.957h6.248v.368h-6.248z" transform="rotate(270 21.568 18.138)" class="L"/><path d="M18.446 32.465H24.7v.37h-6.244z" transform="rotate(270 21.566 32.648)" class="L"/><path d="M17.066 25.212h8.267v.37h-8.267z" transform="rotate(270 21.198 25.394)" class="L"/></g><path d="M53.158 23.278h2.75v2.25h-2.75zm0-12.25h2.75v2.252h-2.75zm-23.375 5.46h2.75v3.417h-2.75zm0 6.792h2.75v2.25h-2.75zm0-12.25h2.75v2.252h-2.75z" class="Y"/><path d="M29.783 16.486h.334v3.417h-.334zm0 6.792h.334v2.25h-.334zm0-12.25h.334v2.252h-.334z" class="L B"/><path d="M55.848 23.26h.104v2.25h-.104zm0-12.252h.104v2.252h-.104z" class="L"/><path d="M53.174 23.3h.334v2.25h-.334zm0-12.25h.334v2.252h-.334z" class="V"/><text class="B C b" x="NaN" y="NaN">RESET</text><path d="M75.394 11.6h72v7.2h-72z" class="W"/><path d="M77.605 13.81h2.78v2.782h-2.78z"/><use xlink:href="#O" x="-105.18" y="-136.8" class="F"/><path d="M81.412 12.784l-1.026 1.028v2.78l1.026 1.023z" class="G"/><path d="M81.412 17.616l-1.026-1.023h-2.783l-1.023 1.023z" class="H"/><path d="M76.578 17.616l1.025-1.025V13.81l-1.025-1.025z" class="I"/><path d="M84.806 13.81h2.78v2.782h-2.78z"/><use xlink:href="#O" x="-97.98" y="-136.8" class="F"/><path d="M88.61 12.784l-1.026 1.028v2.78l1.026 1.023z" class="G"/><path d="M88.61 17.616l-1.028-1.023h-2.78l-1.023 1.023z" class="H"/><path d="M83.777 17.616l1.025-1.025V13.81l-1.025-1.025z" class="I"/><path d="M92.005 13.81h2.78v2.782h-2.78z"/><path d="M90.978 12.784L92 13.81h2.786l1.025-1.025z" class="F"/><path d="M95.812 12.784l-1.025 1.028v2.78l1.025 1.023z" class="G"/><path d="M95.8 17.616l-1.023-1.023H92l-1.023 1.023z" class="H"/><path d="M90.978 17.616L92 16.59V13.81l-1.023-1.025z" class="I"/><path d="M99.206 13.81h2.78v2.782h-2.78z"/><path d="M98.18 12.784l1.026 1.025h2.783l1.023-1.025z" class="F"/><path d="M103.01 12.784l-1.023 1.028v2.78l1.023 1.023z" class="G"/><path d="M103.01 17.616l-1.025-1.023h-2.78l-1.026 1.023z" class="H"/><path d="M98.177 17.616l1.028-1.025V13.81l-1.028-1.025z" class="I"/><path d="M106.406 13.81h2.78v2.782h-2.78z"/><path d="M105.378 12.784l1.026 1.025h2.783l1.023-1.025z" class="F"/><path d="M110.2 12.784l-1.023 1.028v2.78l1.023 1.023z" class="G"/><path d="M110.208 17.616l-1.023-1.023h-2.78l-1.026 1.023z" class="H"/><path d="M105.376 17.616l1.028-1.025V13.81l-1.028-1.025z" class="I"/><path d="M113.607 13.81h2.78v2.782h-2.78z"/><path d="M112.58 12.784l1.023 1.025h2.783l1.027-1.025z" class="F"/><path d="M117.413 12.784l-1.027 1.028v2.78l1.027 1.023z" class="G"/><path d="M117.413 17.616l-1.03-1.023h-2.78l-1.023 1.023z" class="H"/><path d="M112.578 17.616l1.025-1.025V13.81l-1.025-1.025z" class="I"/><path d="M120.804 13.81h2.78v2.782h-2.78z"/><path d="M119.782 12.784l1.02 1.025h2.782l1.03-1.025z" class="F"/><path d="M124.613 12.784l-1.03 1.028v2.78l1.03 1.023z" class="G"/><path d="M124.61 17.616l-1.03-1.023h-2.78l-1.02 1.023z" class="H"/><path d="M119.78 17.616l1.023-1.025V13.81l-1.023-1.025z" class="I"/><path d="M128.004 13.81h2.78v2.782h-2.78z"/><path d="M126.978 12.784L128 13.81h2.788l1.022-1.025z" class="F"/><path d="M131.8 12.784l-1.022 1.028v2.78l1.022 1.023z" class="G"/><path d="M131.8 17.616l-1.022-1.023H128l-1.022 1.023z" class="H"/><path d="M126.976 17.616L128 16.59V13.81l-1.024-1.025z" class="I"/><path d="M135.205 13.81h2.78v2.782h-2.78z"/><path d="M134.18 12.784l1.026 1.025h2.784l1.022-1.025z" class="F"/><path d="M139.01 12.784l-1.022 1.028v2.78l1.022 1.023z" class="G"/><path d="M139.008 17.616l-1.022-1.023h-2.78l-1.026 1.023z" class="H"/><path d="M134.177 17.616l1.028-1.025V13.81l-1.028-1.025z" class="I"/><path d="M142.407 13.81h2.778v2.782h-2.778z"/><path d="M141.377 12.784l1.027 1.025h2.78l1.024-1.025z" class="F"/><path d="M146.21 12.784l-1.024 1.028v2.78l1.024 1.023z" class="G"/><path d="M146.207 17.616l-1.022-1.023h-2.78l-1.027 1.023z" class="H"/><path d="M141.375 17.616l1.03-1.025V13.81l-1.03-1.025z" class="I"/><path d="M101.734 40.26h5.455v3.79h-5.455z" fill="#ff0" class="k"/><path d="M191.163 53.724h5.456v3.888h-5.456z" fill="#0f0" class="k"/><defs ><path id="B" d="M1.565-1.05c-.02-.5.25-.756.596-.756.2 0 .37.064.706.225.255.12.44.21.625.21s.266-.145.27-.42h.3c.025.56-.265.756-.576.756-.2 0-.38-.06-.726-.22-.235-.115-.42-.22-.6-.22s-.3.125-.3.426z"/><path id="C" d="M168.164 148.295h3.222v7.408h-3.222v-7.408m0 3.705c0 .89.722 1.605 1.6 1.605a1.61 1.61 0 0 0 1.609-1.605h0a1.61 1.61 0 0 0-1.609-1.611 1.61 1.61 0 0 0-1.61 1.611z"/><path id="D" d="M175.364 148.295h3.22v7.408h-3.22v-7.408m0 3.705c0 .89.72 1.605 1.61 1.605s1.608-.72 1.608-1.605h0a1.61 1.61 0 0 0-1.608-1.611 1.61 1.61 0 0 0-1.609 1.611z"/><path id="E" d="M182.563 148.295h3.222v7.408h-3.222v-7.408m0 3.705c0 .89.722 1.605 1.61 1.605s1.606-.72 1.606-1.605h0a1.61 1.61 0 0 0-1.606-1.611 1.61 1.61 0 0 0-1.611 1.611z"/><path id="F" d="M189.764 148.295h3.22v7.408h-3.22v-7.408m0 3.705c0 .89.72 1.605 1.605 1.605.895 0 1.61-.72 1.61-1.605h0a1.61 1.61 0 0 0-1.611-1.611 1.61 1.61 0 0 0-1.605 1.611z"/><path id="G" d="M196.964 148.295h3.22v7.408h-3.22v-7.408m0 3.705c0 .89.72 1.605 1.61 1.605a1.61 1.61 0 0 0 1.609-1.605h0a1.61 1.61 0 1 0-3.22 0z"/><path id="H" d="M142.244 11.496h3.222v7.408h-3.222v-7.408m0 3.704a1.61 1.61 0 0 0 1.61 1.61 1.61 1.61 0 1 0 0-3.22 1.61 1.61 0 0 0-1.61 1.61z"/><path id="I" d="M135.044 11.496h3.22v7.408h-3.22v-7.408m0 3.704a1.61 1.61 0 1 0 3.22 0 1.61 1.61 0 1 0-3.22 0z"/><path id="J" d="M99.044 11.496h3.22v7.408h-3.22v-7.408m0 3.704a1.61 1.61 0 1 0 3.22 0 1.61 1.61 0 0 0-3.22 0z"/><path id="K" d="M189.764 11.496h3.22v7.408h-3.22v-7.408m0 3.704a1.61 1.61 0 0 0 1.605 1.61c.895 0 1.61-.72 1.61-1.6s-.725-1.6-1.61-1.6a1.61 1.61 0 0 0-1.605 1.61z"/><path id="L" d="M110.564 148.295h3.22v7.408h-3.22v-7.408m0 3.705c0 .89.72 1.605 1.6 1.605a1.61 1.61 0 0 0 1.611-1.605h0a1.61 1.61 0 1 0-3.221 0z"/><path id="M" d="M168.386 150.61h2.78v2.783h-2.78z"/><path id="N" d="M167.358 154.417l1.026-1.025v-2.783l-1.026-1.025z"/><path id="O" d="M181.76 149.584l1.023 1.025h2.783l1.026-1.025z"/><path id="P" d="M186.593 149.584l-1.026 1.03v2.78l1.026 1.023z"/><path id="Q" d="M181.76 154.417l1.025-1.025v-2.783l-1.025-1.025z"/><path id="R" d="M-22.11-34.316c0-.025.02-.05.047-.055.292-.063 1.152-1.088 1.152-1.885 0-.033.026-.057.063-.057s.063.025.063.057v.002c0 .75-.77 1.89-1.245 1.993-.035.008-.068-.012-.078-.04z"/><path id="S" d="M-21.806-34.28s-.306.158-.35.053-.052-.178.028-.24.323.187.323.187z"/><path id="T" d="M-22.474-33.922c.084.27-.618.62-.698.828a2.24 2.24 0 0 0-.162.598h.06c.035-.266.104-.447.162-.598.08-.21.782-.56.696-.828z"/><path id="U" d="M-22.12-34.37c.29-.062 1.212-1.07 1.15-1.885h.06c.06.877-.86 1.826-1.152 1.887z"/><path id="V" d="M4.845 18.353h13.157a1.39 1.39 0 0 0 1.385-1.383V1.4A1.39 1.39 0 0 0 18.002.003H4.845l-3.8 3.81v10.73z"/><path id="W" d="M10.21.354c1.88 0 3.615.604 5.04 1.614a8.69 8.69 0 0 1 3.664 7.088c0 2.927-1.45 5.51-3.664 7.087-1.424 1.013-3.158 1.615-5.04 1.615-4.805 0-8.702-3.896-8.702-8.703s3.898-8.7 8.702-8.7z"/><path id="X" d="M1.51 8.934c0 4.807 3.897 8.703 8.702 8.703 1.88 0 3.615-.604 5.04-1.616 2.215-1.578 3.664-4.16 3.664-7.087v.244c0 2.927-1.45 5.5-3.664 7.087a8.65 8.65 0 0 1-5.039 1.615c-4.805 0-8.702-3.896-8.702-8.702z"/><path id="Y" d="M18.915 9.407c0-2.925-1.45-5.508-3.664-7.088V2.1c2.215 1.58 3.664 4.162 3.664 7.088z"/><path id="Z" d="M4.846 18.353h13.157a1.39 1.39 0 0 0 1.385-1.383V1.4A1.39 1.39 0 0 0 18.003.003H4.846l-3.8 3.81v10.73z"/><path id="a" d="M-18.36-36.07h.27c.15.018.27-.012.27.098v4.854c0 .168-.065.176-.065-.012v-4.346c0-.457-.105-.518-.197-.518l-.272.002c-.18-.001-.18-.078-.008-.078z"/><path id="b" d="M-103.525 45.54V30.46h-13.296a7.54 7.54 0 0 0-7.541 7.541c0 4.164 3.375 7.54 7.54 7.54z"/></defs></svg>