<svg xmlns="http://www.w3.org/2000/svg" width="482.388" height="512.484" fill="rgba(0,0,0,.6)"><path d="M46.557 511.486c-.367-.367-.667-19.676-.667-42.91v-42.244l3.916-4.84c8.489-10.493 21.438-22.051 30.085-26.854 11.704-6.501 16.498-8.63 22.618-10.05 3.64-.844 6.865-1.288 7.167-.986s-.015.549-.704.549c-1.714 0-13.95 11.861-15.681 15.2-2.651 5.115-1.838 13.515 1.646 16.999 3.282 3.283 2.767 3.246 17.103 1.22 7.001-.989 7.296-.275 10.45 25.33.629 5.104 1.379 5.303 3.704.987 13.274-24.649 25.295-10.286 14.25 17.027-2.388 5.905-4.883 12.761-5.545 15.236s-1.557 4.95-1.991 5.5c-1.219 1.548-9.017 26.158-9.017 28.457 0 2.058-75.311 3.398-77.333 1.376zm87.972-2.083c1.751-7.113 12.972-27.046 20.793-36.937 14.903-18.847 52.993-42.391 88.792-54.884 3.698-1.291 9.098-3.431 12-4.756s7.751-3.42 10.776-4.654c7.953-3.245 29.154-14.002 31.5-15.982 1.1-.928 4.925-3.743 8.5-6.254s7.591-5.74 8.924-7.175c2.964-3.189 9.076-3.751 9.076-.834 0 2.009-8.068 16.574-10.905 19.684-1.024 1.123-2.543 3.393-3.376 5.044-3.045 6.035-4.096 6.411-18.764 6.717l-13.455.28-.5 45.5-.5 45.5-58.5.5-58.5.5-.302 5.25-.302 5.25h-25.934zm151.79-70.568c-.278-.725-.376-6.012-.219-11.75l.287-10.432 3.905-.32c7.755-.635 12.265 3.245 5.6 4.819-1.924.454-2.619 1.411-3.079 4.241-.327 2.01-1.183 4.364-1.902 5.231s-1.132 1.693-.916 1.836c6.322 4.171 9.169 3.098 9.892-3.73.577-5.445 5.07-9.655 7.019-6.578 3.355 5.298-.453 16.237-6.041 17.354-5.702 1.14-13.998.757-14.547-.672zm42.034.42c-6.506-2.81-7.901-15.683-2.253-20.794 2.914-2.637 14.736-2.57 17.687.101 10.598 9.591-2.007 26.492-15.434 20.694zm10.978-6.325c3.161-4.514.77-11.777-3.878-11.777-3.171 0-4.803 2.279-4.924 6.878-.175 6.664 5.394 9.764 8.801 4.9zm25.017 5.979c-.294-.765-.405-6.086-.247-11.824l.287-10.432h8.982l1.412 5.282c1.639 6.13 3.122 6.271 4.576.434 1.356-5.448 2.502-6.415 7.148-6.034l3.882.318v23h-2.5c-2.342 0-2.519-.363-2.8-5.75-.354-6.796-1.703-7.432-3.184-1.5-1.482 5.94-2.393 7.25-5.042 7.25-2.397 0-2.751-.66-4.959-9.25-1.594-6.201-2.882-5.205-3.22 2.49-.291 6.633-2.776 10.081-4.336 6.017zm43.997-.007c-.292-.762-.402-6.079-.244-11.817l.287-10.432h6v23l-2.756.317c-1.666.192-2.966-.23-3.287-1.068zm-90.731-30.357c-.627-.627 1.961-4.137 9.774-13.259 2.2-2.568 6.223-7.933 8.94-11.922l4.94-7.252 20.06.27 20.06.27v32l-31.57.264c-17.363.145-31.855-.022-32.205-.371zm-271.51-19.549l.282-12.344 10.25-.285c8.471-.236 10.25-.03 10.25 1.182 0 1.43-18.333 22.763-20.149 23.447-.53.199-.795-4.839-.632-12zM.307 373.809c-.291-.76-.393-4.031-.226-7.269l.304-5.888h45v14l-22.274.269c-18.208.22-22.371.017-22.804-1.112zm160-.006c-.29-.756-.391-4.025-.224-7.263l.304-5.888h69v14l-34.276.263c-28.341.218-34.368.025-34.804-1.112zm222-.004c-.289-.754-.389-4.021-.222-7.259l.304-5.888h100v14l-49.778.259c-41.424.216-49.866.029-50.304-1.112zm-323.75-15.314c-1.163-1.163-.788-65.333.382-65.333 1.234 0 4.897 7.679 4.929 10.333.035 2.891 2.344 1.364 3.255-2.151 1.11-4.283 1.685-4.072 6.298 2.313 4.295 5.944 6.47 6.955 6.47 3.005 0-3.801 17.094.293 21.031 5.037 4.24 5.109 3.635.573-1.142-8.561-5.837-11.162-5.73-13.591.414-9.416 5.259 3.573 17.572 7.371 26.292 8.108 9.252.782 9.571-.572.732-3.104-6.467-1.852-14.326-7.685-14.326-10.634 0-.588-1.274-2.951-2.832-5.25-5.923-8.743-4.846-11.448 11.492-28.876 6.344-6.767 12.256-13.429 13.139-14.804 5.672-8.832 10.509-12.505 11.196-8.5.499 2.907.717 3.016 7.01 3.5l6.495.5.261 41.619c.204 32.572-.013 41.821-1 42.548-.693.511-7.336 3.812-14.761 7.334-16.608 7.878-39.455 21.313-50.59 29.75l-4.29 3.25H74.118c-8.191 0-15.193-.3-15.56-.667zm293.33-.182c0-.866 2.61-7.027 7.478-17.651 12.536-27.358 17.749-68.304 10.47-82.241-8.666-16.594-9.908-14.575-12.448 20.241l-2.531 34.264c-1.313 17.398-6.664 37.236-10.045 37.236-1.26 0-1.288.341 1.433-17.5 5.084-33.339 4.754-65.619-.861-84.272-1.718-5.708-1.405-7.228 1.49-7.228 10.17 0 4.394-24.512-9.639-40.907-4.159-4.859-4.198-5.871-.205-5.285 4.673.686-2.152-14.541-12.83-28.623-1.383-1.824-2.272-3.558-1.977-3.853.636-.636 9.665 6.731 9.665 7.887 0 .437 2.587 3.474 5.75 6.748s8.08 8.559 10.928 11.743l10.909 12.047c4.98 5.437 7.048 9.511 3.228 6.359-12.813-10.573-14.278-10.245-6.956 1.56 7.809 12.59 10.141 17.805 10.141 22.675 0 5.059 3.768 8.916 6.497 6.651.75-.622 3.082-.99 5.183-.817l3.82.315v121l-14.75.277c-8.306.156-14.75-.117-14.75-.626zm-225-1.558c0-1.225 6.106-3.494 16-5.948 14.159-3.511 16.5-3.679 16.5-1.183 0 2.304-1.198 2.648-17.5 5.033-6.325.925-12.288 1.898-13.25 2.161s-1.75.234-1.75-.064zm39.362-6.093c-.971-2.531.453-4.665 2.884-4.32 3.565.506 3.829 5.82.29 5.82-1.429 0-2.857-.675-3.173-1.5zm12.638-1.327c0-3.378 2.008-4.619 4.512-2.789 2.542 1.859 1.501 5.054-1.77 5.432-2.442.282-2.741-.006-2.741-2.643zm-.483-10.155c-1.736-1.918-1.717-2.01.595-2.885 2.804-1.061 4.888.213 4.888 2.988 0 2.502-3.179 2.442-5.483-.104zm-10.823.342c-1.043-1.043.278-2.361 2.365-2.361 1.067 0 1.941.675 1.941 1.5 0 1.483-3.07 2.097-4.306.861zm-101.1-73.897c-7.81-3.873-8.397-4.725-8.816-12.799-.205-3.94-.718-7.901-1.141-8.803-2.193-4.679 26.592-22.861 36.194-22.861 7.721 0 28.378-13.268 31.177-20.025 1.484-3.583 2.99-3.876 2.99-.58 0 5.647-4.026 15.204-8.973 21.299-2.765 3.407-5.027 6.468-5.027 6.802 0 1.933-38.887 39.582-40.748 39.452-.413-.029-2.958-1.147-5.656-2.484zm-20.145-22.729c-1.352-3.523.074-54.032 1.548-54.873 4.141-2.361 17.626-8.034 23.669-9.957 3.757-1.196 7.281-2.504 7.831-2.906 2.41-1.763 18.142-6.246 23.682-6.749l6.077-.551 6.454 6.901c7.225 7.725 7.499 9.201 3.307 17.86-4.565 9.43-13 15.381-27.285 19.249-20.189 5.467-33.97 16.499-38.151 30.542-.617 2.072-6.373 2.463-7.132.484zm316.04-43.984c-7.155-16.801-12.469-27.927-15.322-32.082-5.543-8.071-2.635-6.623 7.781 3.876l9.876 9.955.695 11.25c.754 12.208-.035 14.032-3.03 7zm-6.57-48.232c-7.33-7.428-16.935-14.462-25.978-19.025-14.784-7.46-13.558-10.197 4.054-9.043 23.453 1.536 22.309.867 24.875 14.55 3.837 20.461 3.849 20.409-2.952 13.518zm-292.41-4.493c-1.911-3.093 8.109-15.909 16.856-21.559 6.657-4.3 7.393 5.455 1 13.257-4.749 5.795-16.134 11.089-17.856 8.302zm-16.857-5.699c-.362-.362-.658-32.083-.658-70.491V.153h55.163l-1.958 3.25c-5.089 8.444-7.042 19.731-8.183 47.276-1.366 32.975-5.487 34.935-11.478 5.458-2.306-11.344-5.695-19.417-8.313-19.799-3.918-.571-3.941 4.413-.137 29.815 3.612 24.122-5.132 60.335-16.81 69.612-6.729 5.346-6.892 5.446-7.625 4.713zm298.84-28.425c-7.388-1.055-21.21-5.189-28.277-8.458-2.902-1.343-5.827-2.452-6.5-2.465-2.401-.046-24.152-13.199-34.434-20.823-19.673-14.587-11.432-21.404 20.124-16.648 11.734 1.769 10.587 1.707 10.587.565 0-.511-3.488-3.054-7.75-5.652l-11.384-7.127c-7.453-4.93-27.84-11.773-41.18-13.821-4.802-.737-4.35-2.273 1.281-4.354 7.253-2.679 4.575-3.625-9.967-3.521-13.684.098-29.875 3.951-37.698 8.971-6.013 3.858-2.958-3.338 3.681-8.674 8.548-6.87 2.755-5.599-14.346 3.147-14.09 7.206-13.832 7.292-8.7-2.915 6.03-11.993 5.291-12.786-3.687-3.962-15.758 15.487-27.96 21.944-31.614 16.727-3.818-5.451-1.131-12.783 8.102-22.113 7.261-7.337 7.505-8.459 1.489-6.839-6.458 1.739-16.587 10.405-25.276 21.624-15.512 20.032-20.449 22.313-21.48 9.929-1.711-20.539-.005-29.52 7.85-41.318L119.079 0l53.65.462c66.498.572 73.259 1.316 98.65 10.845 39.522 14.833 63.928 42.768 79.653 91.173 2.623 8.073 2.899 10.878 1.038 10.55-.38-.067-3.391-.507-6.691-.978zm-62-6.352c-5.185-4.077-20.511-11.543-27.892-13.589-3.898-1.08-8.928-3.285-11.176-4.9-21.318-15.31-64.552-25.086-88.359-19.98-8.033 1.723-9.34.796-3.573-2.531 2.75-1.587 5.675-3.442 6.5-4.123 4.393-3.627 28.872-12.367 34.75-12.408 3.492-.024 2.655 1.544-1.5 2.811-9.336 2.845-12.939 7.025-4.062 4.713 13.541-3.527 28.822-3.767 37.192-.585 4.091 1.555 3.089 3.036-2.129 3.146-14.496.304-13.691 5.833 1.733 11.899 3.016 1.186 7.74 3.188 10.5 4.45s7.717 3.126 11.017 4.142c7.67 2.363 23.373 11.876 32.166 19.488 3.759 3.253 7.156 5.917 7.549 5.919s1.197.903 1.785 2.003c1.494 2.791-.648 2.576-4.5-.453z"/></svg>
