<svg xmlns="http://www.w3.org/2000/svg" width="800" height="800" stroke="#000" fill="none" stroke-width="3.5" xmlns:v="https://vecta.io/nano"><path d="M0 0l66.667 66.667"/><path d="M66.667 0L0 66.667M66.667 0l66.667 66.667"/><path d="M133.333 0L66.667 66.667M133.333 0L200 66.667"/><path d="M200 0l-66.667 66.667M200 0l66.667 66.667"/><path d="M266.667 0L200 66.667M266.667 0l66.667 66.667"/><path d="M333.333 0l-66.667 66.667M333.333 0L400 66.667"/><path d="M400 0l-66.667 66.667M400 0l66.667 66.667"/><path d="M466.667 0L400 66.667M466.667 0l66.667 66.667"/><path d="M533.333 0l-66.667 66.667M533.333 0L600 66.667"/><path d="M600 0l-66.667 66.667M600 0l66.667 66.667"/><path d="M666.667 0L600 66.667M666.667 0l66.667 66.667"/><path d="M733.333 0l-66.667 66.667M733.333 0L800 66.667"/><path d="M800 0l-66.667 66.667M800 0l66.667 66.667"/><path d="M866.667 0L800 66.667m-800 0l66.667 66.667"/><path d="M66.667 66.667L0 133.333m66.667-66.666l66.667 66.667"/><path d="M133.333 66.667l-66.667 66.667m66.667-66.667L200 133.333"/><path d="M200 66.667l-66.667 66.667M200 66.667l66.667 66.667"/><path d="M266.667 66.667L200 133.333m66.667-66.666l66.667 66.667"/><path d="M333.333 66.667l-66.667 66.667m66.667-66.667L400 133.333"/><path d="M400 66.667l-66.667 66.667M400 66.667l66.667 66.667"/><path d="M466.667 66.667L400 133.333m66.667-66.666l66.667 66.667"/><path d="M533.333 66.667l-66.667 66.667m66.667-66.667L600 133.333"/><path d="M600 66.667l-66.667 66.667M600 66.667l66.667 66.667"/><path d="M666.667 66.667L600 133.333m66.667-66.666l66.667 66.667"/><path d="M733.333 66.667l-66.667 66.667m66.667-66.667L800 133.333"/><path d="M800 66.667l-66.667 66.667M800 66.667l66.667 66.667"/><path d="M866.667 66.667L800 133.333m-800 0L66.667 200"/><path d="M66.667 133.333L0 200m66.667-66.667L133.333 200"/><path d="M133.333 133.333L66.667 200m66.666-66.667L200 200"/><path d="M200 133.333L133.333 200M200 133.333L266.667 200"/><path d="M266.667 133.333L200 200m66.667-66.667L333.333 200"/><path d="M333.333 133.333L266.667 200m66.666-66.667L400 200"/><path d="M400 133.333L333.333 200M400 133.333L466.667 200"/><path d="M466.667 133.333L400 200m66.667-66.667L533.333 200"/><path d="M533.333 133.333L466.667 200m66.666-66.667L600 200"/><path d="M600 133.333L533.333 200M600 133.333L666.667 200"/><path d="M666.667 133.333L600 200m66.667-66.667L733.333 200"/><path d="M733.333 133.333L666.667 200m66.666-66.667L800 200"/><path d="M800 133.333L733.333 200M800 133.333L866.667 200"/><path d="M866.667 133.333L800 200M0 200l66.667 66.667"/><path d="M66.667 200L0 266.667M66.667 200l66.667 66.667"/><path d="M133.333 200l-66.667 66.667M133.333 200L200 266.667"/><path d="M200 200l-66.667 66.667M200 200l66.667 66.667"/><path d="M266.667 200L200 266.667M266.667 200l66.667 66.667"/><path d="M333.333 200l-66.667 66.667M333.333 200L400 266.667"/><path d="M400 200l-66.667 66.667M400 200l66.667 66.667"/><path d="M466.667 200L400 266.667M466.667 200l66.667 66.667"/><path d="M533.333 200l-66.667 66.667M533.333 200L600 266.667"/><path d="M600 200l-66.667 66.667M600 200l66.667 66.667"/><path d="M666.667 200L600 266.667M666.667 200l66.667 66.667"/><path d="M733.333 200l-66.667 66.667M733.333 200L800 266.667"/><path d="M800 200l-66.667 66.667M800 200l66.667 66.667"/><path d="M866.667 200L800 266.667m-800 0l66.667 66.667"/><path d="M66.667 266.667L0 333.333m66.667-66.666l66.667 66.667"/><path d="M133.333 266.667l-66.667 66.667m66.667-66.667L200 333.333"/><path d="M200 266.667l-66.667 66.667M200 266.667l66.667 66.667"/><path d="M266.667 266.667L200 333.333m66.667-66.666l66.667 66.667"/><path d="M333.333 266.667l-66.667 66.667m66.667-66.667L400 333.333"/><path d="M400 266.667l-66.667 66.667M400 266.667l66.667 66.667"/><path d="M466.667 266.667L400 333.333m66.667-66.666l66.667 66.667"/><path d="M533.333 266.667l-66.667 66.667m66.667-66.667L600 333.333"/><path d="M600 266.667l-66.667 66.667M600 266.667l66.667 66.667"/><path d="M666.667 266.667L600 333.333m66.667-66.666l66.667 66.667"/><path d="M733.333 266.667l-66.667 66.667m66.667-66.667L800 333.333"/><path d="M800 266.667l-66.667 66.667M800 266.667l66.667 66.667"/><path d="M866.667 266.667L800 333.333m-800 0L66.667 400"/><path d="M66.667 333.333L0 400m66.667-66.667L133.333 400"/><path d="M133.333 333.333L66.667 400m66.666-66.667L200 400"/><path d="M200 333.333L133.333 400M200 333.333L266.667 400"/><path d="M266.667 333.333L200 400m66.667-66.667L333.333 400"/><path d="M333.333 333.333L266.667 400m66.666-66.667L400 400"/><path d="M400 333.333L333.333 400M400 333.333L466.667 400"/><path d="M466.667 333.333L400 400m66.667-66.667L533.333 400"/><path d="M533.333 333.333L466.667 400m66.666-66.667L600 400"/><path d="M600 333.333L533.333 400M600 333.333L666.667 400"/><path d="M666.667 333.333L600 400m66.667-66.667L733.333 400"/><path d="M733.333 333.333L666.667 400m66.666-66.667L800 400"/><path d="M800 333.333L733.333 400M800 333.333L866.667 400"/><path d="M866.667 333.333L800 400M0 400l66.667 66.667"/><path d="M66.667 400L0 466.667M66.667 400l66.667 66.667"/><path d="M133.333 400l-66.667 66.667M133.333 400L200 466.667"/><path d="M200 400l-66.667 66.667M200 400l66.667 66.667"/><path d="M266.667 400L200 466.667M266.667 400l66.667 66.667"/><path d="M333.333 400l-66.667 66.667M333.333 400L400 466.667"/><path d="M400 400l-66.667 66.667M400 400l66.667 66.667"/><path d="M466.667 400L400 466.667M466.667 400l66.667 66.667"/><path d="M533.333 400l-66.667 66.667M533.333 400L600 466.667"/><path d="M600 400l-66.667 66.667M600 400l66.667 66.667"/><path d="M666.667 400L600 466.667M666.667 400l66.667 66.667"/><path d="M733.333 400l-66.667 66.667M733.333 400L800 466.667"/><path d="M800 400l-66.667 66.667M800 400l66.667 66.667"/><path d="M866.667 400L800 466.667m-800 0l66.667 66.667"/><path d="M66.667 466.667L0 533.333m66.667-66.666l66.667 66.667"/><path d="M133.333 466.667l-66.667 66.667m66.667-66.667L200 533.333"/><path d="M200 466.667l-66.667 66.667M200 466.667l66.667 66.667"/><path d="M266.667 466.667L200 533.333m66.667-66.666l66.667 66.667"/><path d="M333.333 466.667l-66.667 66.667m66.667-66.667L400 533.333"/><path d="M400 466.667l-66.667 66.667M400 466.667l66.667 66.667"/><path d="M466.667 466.667L400 533.333m66.667-66.666l66.667 66.667"/><path d="M533.333 466.667l-66.667 66.667m66.667-66.667L600 533.333"/><path d="M600 466.667l-66.667 66.667M600 466.667l66.667 66.667"/><path d="M666.667 466.667L600 533.333m66.667-66.666l66.667 66.667"/><path d="M733.333 466.667l-66.667 66.667m66.667-66.667L800 533.333"/><path d="M800 466.667l-66.667 66.667M800 466.667l66.667 66.667"/><path d="M866.667 466.667L800 533.333m-800 0L66.667 600"/><path d="M66.667 533.333L0 600m66.667-66.667L133.333 600"/><path d="M133.333 533.333L66.667 600m66.666-66.667L200 600"/><path d="M200 533.333L133.333 600M200 533.333L266.667 600"/><path d="M266.667 533.333L200 600m66.667-66.667L333.333 600"/><path d="M333.333 533.333L266.667 600m66.666-66.667L400 600"/><path d="M400 533.333L333.333 600M400 533.333L466.667 600"/><path d="M466.667 533.333L400 600m66.667-66.667L533.333 600"/><path d="M533.333 533.333L466.667 600m66.666-66.667L600 600"/><path d="M600 533.333L533.333 600M600 533.333L666.667 600"/><path d="M666.667 533.333L600 600m66.667-66.667L733.333 600"/><path d="M733.333 533.333L666.667 600m66.666-66.667L800 600"/><path d="M800 533.333L733.333 600M800 533.333L866.667 600"/><path d="M866.667 533.333L800 600M0 600l66.667 66.667"/><path d="M66.667 600L0 666.667M66.667 600l66.667 66.667"/><path d="M133.333 600l-66.667 66.667M133.333 600L200 666.667"/><path d="M200 600l-66.667 66.667M200 600l66.667 66.667"/><path d="M266.667 600L200 666.667M266.667 600l66.667 66.667"/><path d="M333.333 600l-66.667 66.667M333.333 600L400 666.667"/><path d="M400 600l-66.667 66.667M400 600l66.667 66.667"/><path d="M466.667 600L400 666.667M466.667 600l66.667 66.667"/><path d="M533.333 600l-66.667 66.667M533.333 600L600 666.667"/><path d="M600 600l-66.667 66.667M600 600l66.667 66.667"/><path d="M666.667 600L600 666.667M666.667 600l66.667 66.667"/><path d="M733.333 600l-66.667 66.667M733.333 600L800 666.667"/><path d="M800 600l-66.667 66.667M800 600l66.667 66.667"/><path d="M866.667 600L800 666.667m-800 0l66.667 66.667"/><path d="M66.667 666.667L0 733.333m66.667-66.666l66.667 66.667"/><path d="M133.333 666.667l-66.667 66.667m66.667-66.667L200 733.333"/><path d="M200 666.667l-66.667 66.667M200 666.667l66.667 66.667"/><path d="M266.667 666.667L200 733.333m66.667-66.666l66.667 66.667"/><path d="M333.333 666.667l-66.667 66.667m66.667-66.667L400 733.333"/><path d="M400 666.667l-66.667 66.667M400 666.667l66.667 66.667"/><path d="M466.667 666.667L400 733.333m66.667-66.666l66.667 66.667"/><path d="M533.333 666.667l-66.667 66.667m66.667-66.667L600 733.333"/><path d="M600 666.667l-66.667 66.667M600 666.667l66.667 66.667"/><path d="M666.667 666.667L600 733.333m66.667-66.666l66.667 66.667"/><path d="M733.333 666.667l-66.667 66.667m66.667-66.667L800 733.333"/><path d="M800 666.667l-66.667 66.667M800 666.667l66.667 66.667"/><path d="M866.667 666.667L800 733.333m-800 0L66.667 800"/><path d="M66.667 733.333L0 800m66.667-66.667L133.333 800"/><path d="M133.333 733.333L66.667 800m66.666-66.667L200 800"/><path d="M200 733.333L133.333 800M200 733.333L266.667 800"/><path d="M266.667 733.333L200 800m66.667-66.667L333.333 800"/><path d="M333.333 733.333L266.667 800m66.666-66.667L400 800"/><path d="M400 733.333L333.333 800M400 733.333L466.667 800"/><path d="M466.667 733.333L400 800m66.667-66.667L533.333 800"/><path d="M533.333 733.333L466.667 800m66.666-66.667L600 800"/><path d="M600 733.333L533.333 800M600 733.333L666.667 800"/><path d="M666.667 733.333L600 800m66.667-66.667L733.333 800"/><path d="M733.333 733.333L666.667 800m66.666-66.667L800 800"/><path d="M800 733.333L733.333 800M800 733.333L866.667 800"/><path d="M866.667 733.333L800 800M0 800l66.667 66.667"/><path d="M66.667 800L0 866.667M66.667 800l66.667 66.667"/><path d="M133.333 800l-66.667 66.667M133.333 800L200 866.667"/><path d="M200 800l-66.667 66.667M200 800l66.667 66.667"/><path d="M266.667 800L200 866.667M266.667 800l66.667 66.667"/><path d="M333.333 800l-66.667 66.667M333.333 800L400 866.667"/><path d="M400 800l-66.667 66.667M400 800l66.667 66.667"/><path d="M466.667 800L400 866.667M466.667 800l66.667 66.667"/><path d="M533.333 800l-66.667 66.667M533.333 800L600 866.667"/><path d="M600 800l-66.667 66.667M600 800l66.667 66.667"/><path d="M666.667 800L600 866.667M666.667 800l66.667 66.667"/><path d="M733.333 800l-66.667 66.667M733.333 800L800 866.667"/><path d="M800 800l-66.667 66.667M800 800l66.667 66.667"/><path d="M866.667 800L800 866.667"/></svg>
