<svg viewBox="0 0 928 512" xmlns="http://www.w3.org/2000/svg">
<path style="fill:rgba(0,0,0,.87)" d="m296.67 511.33c-0.36667-0.36666-0.66667-19.676-0.66667-42.91v-42.244l3.9155-4.8398c8.4888-10.493 21.438-22.051 30.085-26.854 11.704-6.5007 16.498-8.6304 22.618-10.05 3.6397-0.8441 6.8647-1.2876 7.1667-0.98562 0.30201 0.30201-0.0148 0.54911-0.70412 0.54911-1.7143 0-13.95 11.861-15.681 15.2-2.6512 5.1153-1.8376 13.515 1.6464 16.999 3.2825 3.2825 2.7673 3.2458 17.103 1.2199 7.0014-0.98941 7.2964-0.27456 10.45 25.33 0.62857 5.1036 1.3787 5.3035 3.7035 0.98665 13.274-24.649 25.295-10.286 14.25 17.027-2.3879 5.905-4.8831 12.761-5.5448 15.236s-1.5574 4.95-1.9906 5.5c-1.2194 1.5484-9.017 26.158-9.017 28.457 0 2.0581-75.311 3.398-77.333 1.3759zm87.972-2.0833c1.7506-7.1128 12.972-27.046 20.793-36.937 14.903-18.847 52.993-42.391 88.792-54.884 3.6982-1.2906 9.0982-3.4307 12-4.756 2.9018-1.3252 7.751-3.4196 10.776-4.6541 7.9526-3.2455 29.154-14.002 31.5-15.982 1.1-0.92824 4.925-3.7426 8.5-6.2541 3.575-2.5115 7.5909-5.7401 8.9243-7.1747 2.9642-3.1892 9.0757-3.7508 9.0757-0.83406 0 2.0093-8.0682 16.574-10.905 19.684-1.0238 1.1228-2.5431 3.3926-3.3761 5.0439-3.0445 6.0351-4.0958 6.4114-18.764 6.7172l-13.455 0.28045-0.5 45.5-0.5 45.5-58.5 0.5-58.5 0.5-0.30226 5.25-0.30226 5.25h-25.934zm151.79-70.568c-0.27809-0.72469-0.37647-6.0122-0.21862-11.75l0.287-10.432 3.9047-0.31959c7.7555-0.63476 12.265 3.2451 5.6001 4.8185-1.9244 0.4543-2.6187 1.4107-3.0788 4.2414-0.32675 2.0102-1.1829 4.3643-1.9025 5.2314-0.71964 0.86712-1.1318 1.6931-0.91594 1.8355 6.3222 4.1711 9.1692 3.0977 9.8925-3.7297 0.57682-5.4445 5.0705-9.6553 7.0195-6.5776 3.3548 5.2978-0.4531 16.237-6.0412 17.354-5.7023 1.1405-13.998 0.75726-14.547-0.67194zm42.034 0.42009c-6.5064-2.81-7.9014-15.683-2.2534-20.794 2.9143-2.6374 14.736-2.5702 17.687 0.1005 10.598 9.5911-2.0075 26.492-15.434 20.694zm10.978-6.325c3.1614-4.5135 0.76983-11.777-3.8776-11.777-3.1714 0-4.8032 2.2794-4.9238 6.8779-0.17474 6.664 5.3941 9.7641 8.8014 4.8996zm25.017 5.9788c-0.29369-0.76533-0.40483-6.0861-0.24698-11.824l0.287-10.432h8.9822l1.4122 5.2822c1.6389 6.1303 3.1224 6.271 4.5756 0.43399 1.3564-5.4482 2.502-6.4153 7.1482-6.0344l3.8818 0.31822v23h-2.5c-2.342 0-2.519-0.36331-2.7999-5.75-0.35449-6.7965-1.7033-7.432-3.1836-1.5-1.4824 5.9404-2.3932 7.25-5.0421 7.25-2.3973 0-2.751-0.6597-4.959-9.25-1.5938-6.2008-2.882-5.2047-3.2196 2.4897-0.29102 6.6332-2.7759 10.081-4.3357 6.0166zm43.997-7e-3c-0.29222-0.76152-0.40217-6.0792-0.24432-11.817l0.287-10.432h6v23l-2.7557 0.31697c-1.6662 0.19165-2.9658-0.23045-3.287-1.0676zm-90.731-30.357c-0.62698-0.62699 1.9609-4.1374 9.7742-13.259 2.2-2.5683 6.2231-7.9331 8.9402-11.922l4.9402-7.2523 20.06 0.2701 20.06 0.2701v32l-31.57 0.2638c-17.363 0.14509-31.855-0.022-32.205-0.37129zm-271.51-19.549 0.28153-12.344l10.25-0.28498c8.4713-0.23553 10.25-0.0304 10.25 1.182 0 1.4302-18.333 22.763-20.149 23.447-0.53001 0.19948-0.79541-4.839-0.63208-12zm-45.797-15.187c-0.2915-0.75964-0.39319-4.0308-0.22598-7.2692l0.30402-5.888h45v14l-22.274 0.2692c-18.208 0.22005-22.371 0.0171-22.804-1.112zm160-6e-3c-0.29023-0.75632-0.39087-4.0248-0.22366-7.2632l0.30402-5.8881h69v14l-34.276 0.26316c-28.341 0.21759-34.368 0.025-34.804-1.112zm222-4e-3c-0.28942-0.75423-0.38941-4.0209-0.2222-7.2594l0.30402-5.8879h100v14l-49.778 0.25935c-41.424 0.21583-49.866 0.0292-50.304-1.112zm-323.75-15.314c-1.1634-1.1633-0.78793-65.333 0.38222-65.333 1.2342 0 4.8974 7.6792 4.9292 10.333 0.0346 2.8906 2.3436 1.3644 3.2546-2.1514 1.1099-4.2834 1.6845-4.0724 6.2976 2.3127 4.2946 5.9442 6.4698 6.9546 6.4698 3.0054 0-3.801 17.094 0.2934 21.031 5.0374 4.24 5.1089 3.6352 0.57331-1.1417-8.5612-5.8369-11.162-5.7302-13.591 0.41356-9.4164 5.2588 3.5734 17.572 7.3706 26.292 8.1076 9.252 0.78208 9.5713-0.57221 0.73181-3.1037-6.4674-1.8522-14.326-7.6854-14.326-10.634 0-0.58841-1.2742-2.9509-2.8316-5.25-5.9226-8.7432-4.8464-11.448 11.492-28.876 6.3435-6.767 12.256-13.429 13.139-14.804 5.6718-8.8324 10.509-12.505 11.196-8.5 0.49896 2.9068 0.7168 3.0155 7.0098 3.5l6.4949 0.5 0.26087 41.619c0.20416 32.572-0.0132 41.821-1 42.548-0.69348 0.51143-7.3359 3.8115-14.761 7.3336-16.608 7.8778-39.455 21.313-50.59 29.75l-4.2897 3.25h-14.893c-8.1913 0-15.193-0.3-15.56-0.66667zm293.33-0.18217c0-0.86649 2.61-7.027 7.4781-17.651 12.536-27.358 17.749-68.304 10.47-82.241-8.6662-16.594-9.9076-14.575-12.448 20.241-0.88289 12.1-2.0217 27.519-2.5306 34.264-1.3128 17.398-6.6644 37.236-10.045 37.236-1.2598 0-1.2877 0.34093 1.433-17.5 5.0841-33.339 4.7543-65.619-0.86106-84.272-1.7184-5.7083-1.4052-7.2278 1.49-7.2278 10.17 0 4.3944-24.512-9.6392-40.907-4.1588-4.8586-4.198-5.871-0.20506-5.285 4.6733 0.68589-2.152-14.541-12.83-28.623-1.3828-1.8236-2.2724-3.5575-1.9768-3.853 0.63641-0.63641 9.6647 6.7312 9.6647 7.887 0 0.43712 2.5875 3.4739 5.75 6.7484s8.0802 8.5591 10.928 11.743c2.848 3.1844 7.7572 8.6056 10.909 12.047 4.9798 5.4371 7.0479 9.5105 3.2283 6.3586-12.813-10.573-14.278-10.245-6.9564 1.5605 7.8087 12.59 10.141 17.805 10.141 22.675 0 5.0587 3.7679 8.9157 6.4971 6.6506 0.7498-0.62229 3.0822-0.98989 5.1831-0.81691l3.8198 0.31453v121l-14.75 0.27673c-8.3064 0.15584-14.75-0.11744-14.75-0.62557zm-225-1.5581c0-1.2246 6.1056-3.4942 16-5.9478 14.159-3.5111 16.5-3.6789 16.5-1.1827 0 2.3036-1.1984 2.6482-17.5 5.0334-6.325 0.92543-12.288 1.8978-13.25 2.1607s-1.75 0.23433-1.75-0.0636zm39.362-6.0931c-0.97137-2.5313 0.45317-4.6653 2.8839-4.3201 3.565 0.50624 3.8294 5.8201 0.28951 5.8201-1.4288 0-2.8568-0.675-3.1734-1.5zm12.638-1.3266c0-3.3778 2.0082-4.6191 4.5115-2.7886 2.5419 1.8587 1.5006 5.0541-1.7701 5.4316-2.4423 0.2819-2.7414-6e-3 -2.7414-2.643zm-0.48298-10.155c-1.7357-1.9179-1.7167-2.01 0.59502-2.8848 2.8043-1.0612 4.888 0.2127 4.888 2.9885 0 2.5025-3.1788 2.4424-5.483-0.10363zm-10.823 0.34171c-1.0426-1.0426 0.27794-2.3605 2.3652-2.3605 1.0675 0 1.941 0.675 1.941 1.5 0 1.4832-3.0699 2.0967-4.3062 0.86052zm-101.1-73.897c-7.8099-3.8726-8.3968-4.7246-8.8162-12.799-0.20466-3.9401-0.71787-7.9014-1.1405-8.803-2.1934-4.6795 26.592-22.861 36.194-22.861 7.721 0 28.378-13.268 31.177-20.025 1.4843-3.5834 2.9896-3.8756 2.9896-0.58022 0 5.6471-4.0262 15.204-8.973 21.299-2.7648 3.4066-5.027 6.4675-5.027 6.8019 0 1.9326-38.887 39.582-40.748 39.452-0.4134-0.029-2.9584-1.1469-5.6556-2.4843zm-20.145-22.729c-1.3518-3.5227 0.0735-54.032 1.5484-54.873 4.1408-2.3607 17.626-8.0337 23.669-9.9571 3.7571-1.1959 7.2811-2.5035 7.8311-2.9059 2.41-1.7632 18.142-6.2465 23.682-6.7488l6.0769-0.55104 6.454 6.9006c7.2254 7.7253 7.4986 9.2011 3.307 17.86-4.5652 9.4303-13 15.381-27.285 19.249-20.189 5.4668-33.97 16.499-38.151 30.542-0.61702 2.0723-6.3729 2.4632-7.1323 0.48435zm316.04-43.984c-7.1551-16.801-12.469-27.927-15.322-32.082-5.5425-8.0715-2.6345-6.6227 7.7807 3.8764l9.8757 9.9553 0.69496 11.25c0.75413 12.208-0.0353 14.032-3.0298 7zm-6.5704-48.232c-7.3301-7.4279-16.935-14.462-25.978-19.025-14.784-7.4599-13.558-10.197 4.0543-9.0429 23.453 1.5362 22.309 0.86718 24.875 14.55 3.8375 20.461 3.8489 20.409-2.952 13.518zm-292.41-4.4934c-1.9115-3.0929 8.1091-15.909 16.856-21.559 6.6569-4.2996 7.3928 5.4553 1.0001 13.257-4.7487 5.7952-16.134 11.089-17.856 8.3019zm-16.857-5.6995c-0.36189-0.3619-0.65799-32.083-0.65799-70.491v-69.833h55.163l-1.9584 3.25c-5.0886 8.4444-7.0423 19.731-8.1833 47.276-1.366 32.975-5.487 34.935-11.478 5.4577-2.3057-11.344-5.6954-19.417-8.3133-19.799-3.9183-0.57144-3.9413 4.4127-0.13732 29.815 3.6123 24.122-5.1322 60.335-16.81 69.612-6.7289 5.3457-6.8917 5.4463-7.6251 4.7129zm298.84-28.425c-7.3876-1.0545-21.21-5.189-28.277-8.4585-2.9025-1.3427-5.8275-2.4518-6.5-2.4646-2.4008-0.0459-24.152-13.199-34.434-20.823-19.673-14.587-11.432-21.404 20.124-16.648 11.734 1.7686 10.587 1.7074 10.587 0.56514 0-0.51093-3.4875-3.0543-7.75-5.6518s-9.3854-5.8046-11.384-7.1267c-7.4534-4.9302-27.84-11.773-41.18-13.821-4.8017-0.73746-4.3496-2.2735 1.2813-4.3536 7.2526-2.6791 4.5749-3.625-9.9671-3.5208-13.684 0.09798-29.875 3.9508-37.698 8.9708-6.0128 3.8584-2.9585-3.3384 3.6813-8.6744 8.5485-6.8698 2.7552-5.5988-14.346 3.1473-14.09 7.2061-13.832 7.2925-8.7002-2.9147 6.0297-11.993 5.2914-12.786-3.6868-3.9617-15.758 15.487-27.96 21.944-31.614 16.727-3.8178-5.4506-1.1312-12.783 8.1017-22.113 7.2609-7.3367 7.5053-8.4595 1.4889-6.8394-6.4585 1.7391-16.587 10.405-25.276 21.624-15.512 20.032-20.449 22.313-21.48 9.929-1.7108-20.539-5e-3 -29.52 7.8496-41.318l2.8797-4.3256 53.65 0.46183c66.498 0.57242 73.259 1.3157 98.65 10.845 39.522 14.833 63.928 42.768 79.653 91.173 2.6226 8.0725 2.8986 10.878 1.0381 10.55-0.38004-0.0671-3.391-0.50733-6.691-0.97836zm-62-6.3524c-5.1852-4.0769-20.511-11.543-27.892-13.589-3.8981-1.0802-8.9275-3.2854-11.176-4.9005-21.318-15.31-64.552-25.086-88.359-19.98-8.0329 1.7227-9.3404 0.79623-3.5727-2.5315 2.75-1.5866 5.675-3.442 6.5-4.123 4.3931-3.6266 28.872-12.367 34.75-12.408 3.492-0.02424 2.6549 1.5444-1.5 2.8107-9.3358 2.8452-12.939 7.025-4.0623 4.7131 13.541-3.527 28.822-3.7675 37.192-0.58526 4.0909 1.5554 3.0887 3.0361-2.1292 3.1456-14.496 0.3042-13.691 5.8332 1.7327 11.899 3.0155 1.1858 7.7405 3.1883 10.5 4.45 2.7595 1.2617 7.7173 3.1257 11.017 4.1422 7.6696 2.3627 23.373 11.876 32.166 19.488 3.7586 3.2533 7.1556 5.9167 7.5487 5.9186 0.39315 2e-3 1.1965 0.90345 1.7852 2.0034 1.4938 2.7912-0.64839 2.5757-4.5-0.45267z" fill="#fff"/>
</svg>