<svg xmlns="http://www.w3.org/2000/svg" xmlns:xlink="http://www.w3.org/1999/xlink" viewBox="0 0 160 64"><svg width="32" height="32" viewBox="0 0 30 30"><use xlink:href="#B" fill="#374146"/></svg><svg y="32" width="32" height="32" viewBox="0 0 30 30"><use xlink:href="#B" fill="#08a0e9"/></svg><svg x="32" width="32" height="32" viewBox="0 0 48 48"><g fill="#374146"><use xlink:href="#C"/><use xlink:href="#D"/></g></svg><svg x="32" y="32" width="32" height="32" viewBox="0 0 48 48"><use xlink:href="#C" fill="#fff"/><use xlink:href="#D" fill="#607d8b"/></svg><svg x="64" width="32" height="32" viewBox="0 0 30 30"><use xlink:href="#E" fill="#374146"/></svg><svg x="64" y="32" width="32" height="32" viewBox="0 0 30 30"><defs><linearGradient id="A" x1="0%" y1="100%" x2="100%" y2="0%"><stop offset="0%" stop-color="#f8ed34"/><stop offset="50%" stop-color="#ea118d"/><stop offset="100%" stop-color="#2e368f"/></linearGradient><path id="B" d="M28 6.937a10.65 10.65 0 0 1-3.064.84c1.102-.66 1.947-1.705 2.345-2.95-1.03.61-2.172 1.055-3.388 1.295-.973-1.037-2.36-1.685-3.893-1.685-2.946 0-5.334 2.39-5.334 5.334 0 .418.048.826.138 1.215C10.37 10.763 6.44 8.64 3.81 5.41a5.32 5.32 0 0 0-.721 2.683 5.33 5.33 0 0 0 2.372 4.439c-.874-.028-1.697-.268-2.416-.667v.067c0 2.585 1.838 4.74 4.28 5.23-.447.122-.92.187-1.406.187a5.43 5.43 0 0 1-1.003-.095 5.34 5.34 0 0 0 4.983 3.705 10.7 10.7 0 0 1-6.625 2.284 10.72 10.72 0 0 1-1.273-.075 15.1 15.1 0 0 0 8.177 2.396c9.812 0 15.176-8.128 15.176-15.177 0-.23-.005-.46-.015-.7 1.043-.753 1.948-1.692 2.663-2.76z"/><path id="C" d="M24.2 41.8h-.5c-2.3 0-3.7-1-5.1-2-1-.7-1.9-1.3-2.9-1.5-.5-.1-1-.1-1.6-.1a10.61 10.61 0 0 0-2.1.2c-.3.1-.6.1-.8.1s-.5 0-.6-.4c-.1-.3-.2-.6-.2-.9-.2-.7-.3-1.2-.6-1.2-3.6-.6-4.6-1.3-4.8-1.8V34c0-.2.1-.4.3-.4 5.5-.9 7.9-6.5 8.1-6.8.3-.7.4-1.3.2-1.8-.4-.9-1.6-1.3-2.4-1.5-.2-.1-.4-.1-.5-.2-1.7-.6-1.8-1.3-1.8-1.6.1-.6.9-1 1.5-1 .2 0 .3 0 .4.1.7.3 1.4.5 2 .5.8 0 1.1-.3 1.2-.4 0-.4 0-.8-.1-1.2-.2-2.6-.4-5.8.5-7.7 2.5-5.5 7.7-5.9 9.2-5.9h.8c1.5 0 6.8.4 9.2 5.9.8 1.8.6 5.1.5 7.7v.1c0 .4 0 .7-.1 1 0 0 .4.3 1.1.4.5 0 1.2-.2 1.8-.5.2-.1.4-.1.6-.1s.5 0 .7.1c.6.2.9.6.9 1s-.3 1-1.7 1.5c-.1.1-.3.1-.5.2-.8.3-2 .6-2.4 1.5-.2.5-.1 1.1.2 1.8.1.2 2.6 5.8 8.1 6.8.2 0 .4.2.3.4 0 .1 0 .2-.1.2-.2.5-1.2 1.3-4.8 1.8-.3 0-.4.4-.6 1.2-.1.3-.1.6-.2.9s-.2.4-.5.4c-.2 0-.5 0-.8-.1-.6-.1-1.3-.2-2.1-.2-.5 0-1 0-1.5.1-1.1.2-2 .8-2.9 1.5-1.7 1.1-3.1 2.1-5.4 2.1z"/><path id="D" d="M24.2 42.8h-.5c-2.6 0-4.2-1.2-5.7-2.2-.9-.6-1.7-1.2-2.5-1.3-1.4-.2-2.5-.1-3.3.1-.4.1-.7.1-1 .1-1.1 0-1.4-.8-1.5-1.1s-.2-.6-.2-1c0-.1-.1-.3-.1-.5-3.1-.5-4.7-1.3-5.2-2.4-.1-.1-.2-.3-.2-.5 0-.7.5-1.3 1.2-1.5 4.8-.8 7-5.5 7.3-6.2v-.1c.1-.2.3-.6.2-.9-.2-.5-1.2-.8-1.8-1-.3-.1-.5-.1-.6-.2-2.3-.8-2.5-2-2.3-2.6.3-1.5 2.2-2.1 3.3-1.6.7.3 1.3.4 1.7.4v-.5c-.2-2.7-.4-6.1.5-8.1 2.7-6.1 8.4-6.5 10.1-6.5h.8c1.7 0 7.4.5 10.1 6.5.9 2.1.7 5.4.5 8.1v.5h.1c.3 0 .8-.2 1.4-.4.4-.2.7-.2 1-.2.4 0 .7.1 1 .2.9.3 1.5 1.1 1.5 1.9 0 1-.8 1.8-2.3 2.5-.2.1-.4.1-.6.2-.6.2-1.6.5-1.8 1-.1.2 0 .5.2.9v.1c.3.7 2.6 5.4 7.3 6.1.7.1 1.2.8 1.2 1.5 0 .3-.1.4-.2.6-.5 1.1-2.1 1.8-5.2 2.3 0 .2-.1.4-.1.5-.1.3-.1.6-.2.9-.2.7-.7 1.1-1.5 1.1-.3 0-.6 0-1-.1-.8-.2-1.9-.3-3.3-.1-.8.1-1.6.7-2.5 1.3-1.5 1.1-3.2 2.2-5.8 2.2zm-.3-2h.3c1.9 0 3.2-.9 4.5-1.8 1-.7 2.1-1.5 3.4-1.7.6-.1 1.2-.1 1.7-.1.9 0 1.7.1 2.3.2.1 0 .2 0 .3.1 0-.1.1-.3.1-.4.2-.9.4-1.9 1.4-2 1.7-.3 2.7-.6 3.3-.8-5.2-1.5-7.5-6.8-7.6-7.1-.6-1.2-.4-2-.2-2.6.6-1.3 2.1-1.8 3-2.1.2-.1.3-.1.5-.2.6-.2.9-.4 1-.5 0 0-.1-.1-.2-.1-.2-.1-.5-.1-.5-.1-.8.4-1.5.6-2.2.6-1.1 0-1.6-.5-1.8-.7s-.3-.5-.3-.8l.1-1.1c.1-2.4.4-5.6-.4-7.2-2.2-5-6.9-5.4-8.3-5.4h-.8c-1.4 0-6.1.4-8.3 5.4-.7 1.6-.5 4.7-.4 7.2 0 .4.1.8.1 1.2 0 .3-.1.5-.3.7-.1.2-.7.7-1.9.7-.7 0-1.5-.2-2.4-.6-.2 0-.3.1-.4.1.1.1.4.3 1 .5.1.1.3.1.5.2 1 .3 2.5.8 3.1 2.1.3.8.3 1.6-.2 2.6-.3.6-2.6 5.6-7.6 7 .6.2 1.6.5 3.3.8 1 .2 1.2 1.2 1.4 2 0 .2.1.3.1.5.1 0 .2 0 .3-.1.6-.1 1.4-.3 2.4-.3.5 0 1.1 0 1.7.1 1.3.2 2.4 1 3.4 1.7 1.3.9 2.6 1.8 4.5 1.8 0 .2.1.2.1.2zm-12.3-2.9zm24.8 0zM9.7 37zm28.6 0zM5.5 34.5z"/><path id="E" d="M9.998 3A7.01 7.01 0 0 0 3 10.002v10A7.01 7.01 0 0 0 10.002 27h10A7.01 7.01 0 0 0 27 19.998v-10A7.01 7.01 0 0 0 19.998 3h-10zM22 7a1 1 0 1 1 0 2 1 1 0 1 1 0-2zm-7 2a6.01 6.01 0 0 1 6 6 6.01 6.01 0 0 1-6 6 6.01 6.01 0 0 1-6-6 6.01 6.01 0 0 1 6-6zm0 2a4 4 0 1 0 0 8 4 4 0 1 0 0-8z"/><path id="F" d="M15 3C8.373 3 3 8.373 3 15c0 5.623 3.872 10.328 9.092 11.63a1.75 1.75 0 0 1-.092-.583v-2.05h-1.508c-.82 0-1.55-.353-1.905-1.01-.393-.73-.46-1.844-1.435-2.526-.29-.227-.07-.486.264-.45.615.174 1.125.596 1.605 1.222s.703.77 1.596.77c.433 0 1.08-.025 1.69-.12.328-.833.895-1.6 1.588-1.962-3.996-.41-5.903-2.4-5.903-5.098 0-1.162.495-2.286 1.336-3.233-.276-.94-.623-2.857.106-3.587 1.798 0 2.885 1.166 3.146 1.48.896-.307 1.88-.48 2.914-.48a8.99 8.99 0 0 1 2.922.483C18.675 9.17 19.763 8 21.565 8c.732.73.38 2.656.102 3.594.836.945 1.328 2.066 1.328 3.226 0 2.697-1.904 4.684-5.894 5.097C18.2 20.5 19 22.1 19 23.313v2.734c0 .104-.023.18-.035.268C23.64 24.676 27 20.236 27 15c0-6.627-5.373-12-12-12z"/><path id="G" d="M44.898 14.5c-.398-2.2-2.297-3.8-4.5-4.3C37.102 9.5 31 9 24.398 9S11.602 9.5 8.3 10.2c-2.2.5-4.102 2-4.5 4.3C3.398 17 3 20.5 3 25s.398 8 .898 10.5c.402 2.2 2.3 3.8 4.5 4.3 3.5.7 9.5 1.2 16.102 1.2s12.602-.5 16.102-1.2c2.2-.5 4.098-2 4.5-4.3.398-2.5.898-6.102 1-10.5-.203-4.5-.703-8-1.203-10.5zM19 32V18l12.2 7z"/></defs><use xlink:href="#E" fill="url(#A)"/></svg><svg x="96" width="32" height="32" viewBox="0 0 30 30"><use xlink:href="#F" fill="#374146"/></svg><svg x="96" y="32" width="32" height="32" viewBox="0 0 30 30"><use xlink:href="#F" fill="#742d8d"/></svg><svg x="128" width="32" height="32" viewBox="0 0 50 50"><use xlink:href="#G" fill="#374146"/></svg><svg x="128" y="32" width="32" height="32" viewBox="0 0 50 50"><use xlink:href="#G" fill="#e62117"/></svg></svg>