<?xml version="1.0" encoding="UTF-8" standalone="no"?>
<svg
   width="66.026344"
   height="58"
   fill="none"
   version="1.1"
   id="svg8"
   xmlns="http://www.w3.org/2000/svg"
   xmlns:svg="http://www.w3.org/2000/svg">
  <defs
     id="defs12" />
  <path
     d="m 46.060484,21.11 -12.54,-7.24 a 1.014,1.014 0 0 0 -1.015,0 l -12.54,7.24 a 1.015,1.015 0 0 0 -0.508,0.878 v 14.48 c 0,0.362 0.194,0.697 0.508,0.879 l 12.54,7.24 c 0.314,0.181 0.7,0.181 1.015,0 l 12.54,-7.24 c 0.314,-0.181 0.507,-0.516 0.507,-0.879 v -14.48 c 0,-0.363 -0.193,-0.697 -0.507,-0.879 z"
     fill="#8080f2"
     id="path2" />
  <path
     d="M 0.40748366,27.705 15.391484,1.638 c 0.544,-0.943 1.55,-1.638 2.638,-1.638 h 29.967 c 1.089,0 2.094,0.695 2.639,1.638 l 14.983,26.01 a 3.1,3.1 0 0 1 0,3.074 l -14.983,25.854 c -0.545,0.942 -1.55,1.424 -2.639,1.424 h -29.967 c -1.088,0 -2.094,-0.467 -2.638,-1.41 L 0.40848366,30.694 a 2.94,2.94 0 0 1 0,-2.99 z M 12.814484,40.239 c 0,0.384 0.231,0.738 0.563,0.93 l 19.086,11.011 c 0.332,0.192 0.748,0.192 1.08,0 l 19.1,-11.011 c 0.332,-0.192 0.564,-0.546 0.564,-0.93 V 18.216 c 0,-0.383 -0.229,-0.738 -0.56,-0.93 l -19.087,-11.009 a 1.084,1.084 0 0 0 -1.079,0 l -19.102,11.01 c -0.332,0.192 -0.566,0.547 -0.566,0.93 V 40.24 Z"
     fill="#4b32c3"
     id="path4" />
</svg>
