<svg xmlns="http://www.w3.org/2000/svg" width="483" height="483" viewBox="0 0 483 483">
<g fill="#fff">
<path d="M142.6 113.5v-15h6.6c3.2 0 5 2 5 4.6 0 2.6-1.8 4.7-5 4.7h-4v5.7h-2.6zm8.8-10.4c0-1.4-1-2.3-2.5-2.3h-3.7v4.7h3.7c1.5 0 2.5-1 2.5-2.4zM163.6 106c0-4.5 3.2-7.8 7.7-7.8s7.7 3.3 7.7 7.8-3.2 7.8-7.7 7.8a7.5 7.5 0 0 1-7.7-7.8zm12.7 0c0-3.1-2-5.5-5-5.5s-5 2.4-5 5.5c0 3 2 5.4 5 5.4s5-2.3 5-5.4zM200.5 113.5l-2.9-11.1-3 11h-2.8l-4.2-15h2.9l3 11.6 3-11.6h2.1l3.2 11.6 2.9-11.6h3l-4.4 15h-2.8zM217.3 113.5v-15h10.3v2.3H220v3.8h7.6v2.4h-7.6v4.2h7.7v2.3h-10.3zM246.8 113.5l-3.3-5.6H241v5.6h-2.7v-15h6.7c3 0 5 1.8 5 4.6 0 2.7-1.9 4.2-3.7 4.5l3.7 5.9h-3zm.3-10.4c0-1.4-1-2.3-2.6-2.3H241v4.7h3.6c1.5 0 2.6-1 2.6-2.4zM260.4 113.5v-15h10.3v2.3H263v3.8h7.5v2.4H263v4.2h7.7v2.3h-10.3zM281.3 113.5v-15h5.6c4.7 0 7.9 3 7.9 7.4 0 4.5-3.2 7.6-7.9 7.6h-5.6zm10.8-7.6c0-2.8-1.8-5.1-5.2-5.1h-3v10.4h3c3.3 0 5.2-2.4 5.2-5.3zM319 113.5v-15h7.4c2.8 0 4.3 1.6 4.3 3.8 0 1.8-1.2 3.1-2.6 3.4 1.6.3 2.9 1.9 2.9 3.7 0 2.4-1.6 4-4.4 4H319zm9-10.8c0-1.1-.8-2-2.1-2h-4.3v4h4.3c1.3 0 2-.9 2-2zm.3 6.4c0-1.2-.8-2.1-2.3-2.1h-4.4v4.2h4.4c1.4 0 2.3-.8 2.3-2.1zM345.2 113.5v-6.3l-5.9-8.8h3l4.2 6.5 4.1-6.5h3l-5.8 8.8v6.3h-2.6z"/>
</g>
<g fill="#fff">
<path d="M127.2 163l3.4-6a8.3 8.3 0 0 0 5.9 2.6c3.5 0 5.8-2.3 5.8-5.9v-24.6h7.9v24.7c0 8.7-5.5 12.8-13 12.8-3.8 0-7.3-1-10-3.6zM165.7 151.2V129h8V151c0 5.1 3 8.6 8.7 8.6s8.6-3.5 8.6-8.6v-22h8v22.2c0 9.1-5.4 15.4-16.6 15.4s-16.7-6.3-16.7-15.4zM214.6 166v-37h7.8v37h-7.8zM236.3 147.5c0-11.4 8.5-19 19.7-19 8 0 12.7 4.3 15.3 9l-6.7 3.3a10 10 0 0 0-8.6-5.4c-6.8 0-11.7 5.2-11.7 12.1 0 7 5 12.1 11.7 12.1 3.7 0 7-2.3 8.6-5.3l6.7 3.2c-2.6 4.6-7.3 9.1-15.3 9.1-11.2 0-19.7-7.7-19.7-19zM284.3 166v-37h26.1v7h-18.2v7.7H310v7h-18v8.3h18.3v7h-26zM345.7 166l-7.2-13.2h-5.8V166H325v-36.8H342c7.7 0 12.5 5 12.5 11.8 0 6.5-4.2 10-8.2 11l8.4 14h-9zm.8-25.1c0-3-2.4-5-5.5-5h-8.3v10h8.3c3.1 0 5.5-1.9 5.5-5z"/>
</g>
<path fill="none" stroke="#fff" stroke-width="5" d="M241 232.4a50 50 0 0 0-50 51.5v.1c0 40.4 49.5 70.4 49.5 70.4 10 0 50.5-40.5 50.5-72a50 50 0 0 0-50-50z"/>
<path fill="none" stroke="#fff" stroke-width="5" stroke-linejoin="round" stroke-miterlimit="10" d="M240.7 231.2v-30.8"/>
<path fill="none" stroke="#fff" stroke-width="5" stroke-linecap="round" stroke-linejoin="round" stroke-miterlimit="10" d="M215.3 215.5s2 20.9 21.5 15.4M215.3 215.5s20.3-5 21.5 15.4M265.6 215.5s-2 20.9-21.5 15.4M265.6 215.5s-20.3-5-21.5 15.4"/>
<circle fill="#fff" cx="212" cy="277.9" r="3.4"/>
<circle fill="#fff" cx="240" cy="277.9" r="3.4"/>
<circle fill="#fff" cx="268" cy="277.9" r="3.4"/>
<circle fill="#fff" cx="227" cy="292.9" r="3.4"/>
<circle fill="#fff" cx="255" cy="292.9" r="3.4"/>
<path fill="#fff" d="M290.5 380.3v-.1l-1.7-3.8-10.1-17.4-10.2 17.8-1.4 3v.4a12.2 12.2 0 0 0 11.7 15.5 12.2 12.2 0 0 0 11.7-15.4"/>
</svg>