<svg viewBox="0 0 871 797" xmlns="http://www.w3.org/2000/svg">
<path d="m222.67 677.33c-0.36667-0.36666-0.66667-21.288-0.66667-46.492v-45.825l7.75-9.1984c15.667-18.595 42.111-35.722 59.214-38.35l3.5364-0.54355-2.9573 2.2883c-17.036 13.182-22.375 28.249-12.712 35.878 2.7921 2.2044 2.9314 2.2069 17.819 0.32603 7.6693-0.96895 8.5178 1.1599 10.895 27.335 0.7102 7.8208 1.6471 9.0074 3.321 4.2058 2.8481-8.17 10.927-14.956 17.806-14.956 9.0704 0 8.5412 4.2479-5.1034 40.966-4.6054 12.393-9.6281 27.034-11.162 32.534s-3.2073 10.562-3.7198 11.25c-1.0071 1.3512-82.685 1.9183-84.02 0.58333zm96.696-2.3965c7.5571-37.785 48.51-71.404 124.14-101.9 34.853-14.056 58.197-26.647 71.147-38.372 16.596-15.027 14.84-2.4644-3.3327 23.84l-4.836 7-15.489 0.5-15.489 0.5-0.5 49.5-0.5 49.5-63.5 0.5-63.5 0.5-0.5 5.5-0.5 5.5-13.881 0.27907-13.881 0.27907zm165.07-76.245c-0.2761-0.71952-0.37448-6.682-0.21861-13.25l0.28339-11.942h6.6672c8.5945 0 11.158 3.7828 3.7382 5.5166-1.8672 0.4363-2.4789 1.3264-2.7341 3.979-0.1808 1.8793-1.224 4.6741-2.3181 6.2107-1.9877 2.7914-1.9877 2.7938 0.0197 2.7938 1.105 0 2.2872 0.45 2.6271 1 2.4859 4.0222 7.2655 0.0766 7.686-6.345 0.3602-5.5003 4.8164-9.8402 6.8334-6.655 3.266 5.1575-0.0598 16.283-5.5538 18.579-4.402 1.8393-16.338 1.9185-17.03 0.113zm47.065 0.41688c-5.5465-2.4199-8.2824-9.9679-6.2089-17.13 3.3418-11.542 21.646-11.942 25.458-0.55635 4.0153 11.992-7.6771 22.735-19.249 17.686zm10.943-7.3312c4.7831-6.8289-1.5897-16.047-7.9026-11.431-2.2675 1.658-2.7065 9.5427-0.66821 11.999 2.0013 2.412 6.7016 2.1002 8.5709-0.56841zm27.019 6.9844c-0.2909-0.75809-0.40139-6.7522-0.24552-13.32l0.28339-11.942h9.8986l1.5548 6.3106c1.8354 7.4499 3.0673 7.9656 4.8652 2.0371 2.7386-9.0307 2.6999-8.9884 7.935-8.6524l4.7465 0.30465v26h-6l-0.29569-6.75c-0.3545-8.0926-1.5588-8.6507-3.2367-1.5-2.9564 12.6-7.2782 12.386-10.52-0.51912-2.2127-8.8087-3.2966-8.5065-3.6555 1.0191-0.28859 7.658-3.4739 11.849-5.3299 7.0119zm47.998-6e-3c-0.28959-0.75464-0.39899-6.7459-0.24312-13.314l0.28339-11.942h7v26l-3.2569 0.31387c-2.074 0.19987-3.4481-0.18448-3.7834-1.0582zm-98.8-33.497c-0.26064-0.42173 2.6532-4.59 6.4751-9.2629s9.7399-12.442 13.151-17.265l6.2021-8.7685 22.006 0.26848 22.006 0.26821v35l-34.683 0.26288c-19.076 0.14459-34.896-0.0822-35.157-0.50391zm-296.66-21.259v-14h11.441c13.96 0 13.991 0.0427 6.253 8.6339-3.4327 3.8113-8.3944 9.7279-11.026 13.148-6.5149 8.4666-6.6679 8.288-6.6679-7.7818zm-49.581-16.349c-0.28476-0.74207-0.38314-4.4546-0.21862-8.25l0.29913-6.9008h49l0.29044 8.25 0.29044 8.25h-24.572c-19.699 0-24.675-0.26758-25.09-1.3492zm175 0.0122c-0.28733-0.74877-0.38782-4.4668-0.2233-8.2622l0.29913-6.9008h75v16l-37.277 0.2622c-30.706 0.21598-37.369 0.0222-37.799-1.0992zm242-4e-3c-0.28658-0.74681-0.38645-4.4632-0.22193-8.2586l0.29913-6.9004h109v16l-54.278 0.25863c-44.976 0.2143-54.367 0.0259-54.799-1.0992zm-353.76-17.326c-1.0694-1.0694-0.79682-72.333 0.27663-72.333 1.5918 0 3.8818 4.0388 5.1947 9.1616 1.4788 5.7698 3.0206 5.7727 4.254 8e-3 1.0044-4.6943 1.9987-5.2096 3.7032-1.9195 4.4702 8.6287 9.604 13.209 10.088 9 0.488-4.2412 5.8676-3.5625 17.488 2.2064 10.221 5.0741 11.646 5.2158 8.5626 0.85119-10.393-14.71-10.824-21.61-1.0238-16.371 9.2166 4.9268 16.051 6.9177 26.508 7.7214 9.3603 0.71949 11.007-0.53775 3.1494-2.4043-8.9327-2.1219-13.367-5.4961-19.291-14.679-8.8953-13.789-8.6244-14.786 9.2013-33.874 6.4471-6.9034 14.647-16.386 18.222-21.072 7.1235-9.338 8.7151-10.27 9.1866-5.379l0.31336 3.25 7.5 0.5 7.5 0.5 0.26009 45.749 0.26008 45.749-7.2601 3.1808c-20.33 8.907-47.194 24.146-62.439 35.421l-7.3015 5.3997h-16.843c-9.2636 0-17.143-0.3-17.51-0.66667zm320.33-0.16106c0-0.4825 2.1905-5.5562 4.8677-11.275 10.77-23.004 17.404-50.011 18.791-76.488l0.63337-12.091-3.6047-7.409c-10.055-20.667-11.547-18.449-14.184 21.091-3.0059 45.06-6.0182 64.405-11.735 75.358-3.1066 5.9527-3.2924 3.1172-0.89385-13.642 5.8045-40.559 5.0019-86.867-1.7234-99.433-1.2226-2.2844 0.16611-4.283 2.976-4.283 10.381 0 6.411-18.915-8.5958-40.954-6.4983-9.5433-6.3652-9.0464-2.4232-9.0464 5.0491 0 2.439-6.2191-11.517-27.443-12.401-18.858-4.8523-11.758 34.281 32.244 6.2777 7.0588 9.2376 11.999 4.9441 8.2525-13.534-11.81-16.546-11.426-8.1727 1.0434 7.8083 11.627 12.357 21.386 12.357 26.51 0 4.8037 3.847 8.595 6.493 6.399 0.74754-0.6204 3.3049-0.98801 5.6831-0.8169l4.3239 0.31111v132l-16.25 0.27477c-8.9375 0.15113-16.25-0.12-16.25-0.6025zm-244-2.239c0-3.7157 34.082-11.135 34.808-7.5771 0.59747 2.9251-0.88409 3.6266-9.8834 4.6801-4.6337 0.54241-12.137 1.5938-16.675 2.3364s-8.25 0.9949-8.25 0.56061zm41.362-6.4333c-1.0497-2.7354 0.45364-4.6539 3.3827-4.317 4.3859 0.50448 4.6514 5.817 0.29073 5.817-1.8311 0-3.3332-0.61335-3.6734-1.5zm13.638-1.3296c0-3.3935 2.1536-4.6937 5.1331-3.0991 3.246 1.7372 2.0572 5.3622-1.8831 5.7421-3.0044 0.28968-3.25 0.09-3.25-2.643zm-0.41984-10.688c-1.4199-2.1671-1.4461-2.5962-0.18774-3.0791 3.235-1.2414 6.0997 0.0282 6.424 2.8471 0.43138 3.7491-3.828 3.9075-6.2363 0.23199zm-11.886-0.12147c-1.1334-1.1334 0.35596-2.3605 2.8652-2.3605 1.5031 0 2.441 0.57634 2.441 1.5 0 1.4968-4.0183 2.1484-5.3062 0.86052zm-107.19-79.013c-1.65-0.86473-5.1199-2.9073-7.7108-4.5391l-4.7108-2.9668-0.28917-8.1709-0.28916-8.1709-6-0.5-6-0.5v-60.913l15.5-6.3502c23.478-9.6189 38.044-14.319 46.316-14.944l7.2036-0.54481 6.8469 7.258c13.7 14.522 1.9277 32.594-26.424 40.564-19.593 5.5079-32.346 14.328-39.215 27.121-3.8157 7.1062-2.0576 7.4495 5.6481 1.103 10.393-8.5602 21.048-14.414 31.625-17.375 18.915-5.2952 32.559-13.613 37.559-22.897 2.6969-5.0079 3.8221-4.3834 3.0992 1.7201-1.5975 13.489-17.933 34.57-48.265 62.287-11.396 10.413-10.671 10.033-14.893 7.82zm318.52-78.098c-1.7841-4.8125-6.5536-15.162-10.599-23-4.0452-7.8375-7.0247-14.25-6.621-14.25s5.3013 4.6125 10.884 10.25l10.15 10.25 0.70254 12.75c0.84389 15.315-0.0335 16.092-4.5164 4zm-6.6589-50.154c-8.1334-7.7318-17.69-14.46-29.232-20.581-16.854-8.9377-7.9528-11.848 21.71-7.0988 10.335 1.6548 9.6735 0.85277 12.024 14.584 3.8184 22.301 4.1541 21.325-4.5021 13.096zm-317.7-2.7628c-3.6483-3.6483 14.618-25.333 21.34-25.333 5.541 0 2.2801 13.256-4.5406 18.458-6.1495 4.6904-15.257 8.4177-16.799 6.8752zm-19.423-83.083 0.25621-76.75l29.371-0.2653c27.689-0.2501 29.337-0.16422 28.786 1.5-0.32165 0.97092-1.7114 4.9524-3.0884 8.8477-3.0397 8.5988-5.1249 24.473-6.62 50.397-1.7823 30.903-3.5706 30.935-12.018 0.21245-7.5847-27.586-16.126-31.959-11.542-5.9093 4.4395 25.23 4.4469 35.639 0.0409 57.567-4.7927 23.853-15.032 41.15-24.359 41.15-0.77024 0-1.0091-22.168-0.82686-76.75zm322.76 44.127c-23.016-5.2386-39.583-12.419-60.623-26.276-33.232-21.885-29.083-31.439 11.123-25.613 5.5 0.79687 10.338 1.4631 10.75 1.4806 3.8902 0.16448-7.6692-8.0165-22.54-15.952-12.146-6.4815-27.885-11.655-39.981-13.141-11.589-1.4242-11.93-2.0508-2.7289-5.0142 12.025-3.8728 9.6682-5.1901-8.25-4.6118-16.237 0.52409-25.055 2.4218-38.029 8.1843-6.3005 2.7986-7.7215 3.0874-7.7215 1.5696 0-1.6346 6.9182-8.7892 10.847-11.217 10.845-6.7029-7.5739-0.7745-22.714 7.3108-11.362 6.0679-11.075 6.3036-5.6013-4.6038 6.8308-13.61 5.9914-14.26-4.8616-3.7606-21.127 20.438-35.67 25.07-35.67 11.361 0-5.5532 3.5722-11.433 11.551-19.012 10.132-9.6242 9.4653-10.634-3.0468-4.6157-8.6915 4.1804-16.838 11.805-24.696 23.114-8.0103 11.527-18.363 20.265-20.948 17.68-5.1165-5.1165-1.7326-38.561 5.038-49.793l4.8025-7.967 57.9 6e-3c122.1 0.0133 167.42 24.782 193.88 105.96 6.0612 18.595 6.2502 18.262-8.4764 14.91zm-62.572-5.2771c-9.4922-6.684-22.024-12.838-30.149-14.807-4.2142-1.0209-8.9957-3.1317-12.639-5.5796-27.382-18.398-66.021-27.039-100.14-22.397l-6 0.81646 2.5-2.0185c8.0097-6.4671 34.261-17.54 44.412-18.733 6.7077-0.78836 7.4985 0.73131 1.3383 2.5717-11.391 3.4031-14.967 7.4526-4.0944 4.637 14.733-3.8155 33.026-3.8393 42.084-0.0547 5.2268 2.1839 3.8467 3.1461-5.3344 3.7189-18.264 1.1394-10.668 7.9535 22.475 20.163 14.168 5.2194 25.823 11.837 37.12 21.078 16.765 13.713 21.749 19.985 8.4285 10.605z" fill="#1369BF"/>
</svg>