<svg xmlns="http://www.w3.org/2000/svg" width="512" height="512"><path d="M0 0h512v512H0z" fill="#f0db4f"/><path d="M279.063 376.094q0 45-20.937 68.906-20.781 23.906-60.312 23.906-17.656 0-32.656-6.094v-47.344q12.969 9.844 29.063 9.844 34.531 0 34.531-51.25V240.938h50.313zm38.75 80.313v-50q13.594 11.406 29.531 17.188 15.938 5.625 32.188 5.625 9.531 0 16.563-1.719 7.188-1.719 11.875-4.687 4.844-3.125 7.188-7.187 2.344-4.219 2.344-9.062 0-6.562-3.75-11.719-3.75-5.156-10.312-9.531-6.406-4.375-15.312-8.437-8.906-4.062-19.219-8.281-26.25-10.937-39.219-26.719-12.812-15.781-12.812-38.125 0-17.5 7.031-30 7.031-12.656 19.063-20.781 12.188-8.125 28.125-11.875 15.938-3.906 33.75-3.906 17.5 0 30.938 2.188 13.594 2.031 25 6.406V292.5q-5.625-3.906-12.344-6.875-6.562-2.969-13.594-4.844-7.031-2.031-14.062-2.969-6.875-.937-13.125-.937-8.594 0-15.625 1.719-7.031 1.563-11.875 4.531-4.844 2.969-7.5 7.188-2.656 4.063-2.656 9.219 0 5.625 2.969 10.156 2.969 4.375 8.438 8.438 5.469 3.906 13.281 7.813 7.813 3.75 17.656 7.813 13.438 5.625 24.063 12.031 10.781 6.25 18.438 14.219 7.656 7.969 11.719 18.281 4.063 10.156 4.063 23.75 0 18.75-7.187 31.563-7.031 12.656-19.219 20.625-12.187 7.813-28.437 11.25-16.094 3.438-34.062 3.438-18.437 0-35.156-3.125-16.562-3.125-28.75-9.375z" fill="#323330"/></svg>
